SplineFontDB: 3.2
FontName: Vazirmatn-UI-SemiBold
FullName: Vazirmatn UI SemiBold
FamilyName: Vazirmatn UI SemiBold
Weight: Demi
Copyright: Copyright 2015 The Vazirmatn Project Authors (https://github.com/rastikerdar/vazirmatn)
Version: 33.003
ItalicAngle: 0
UnderlinePosition: -780
UnderlineWidth: 100
Ascent: 1638
Descent: 410
InvalidEm: 0
sfntRevision: 0x002100c5
LayerCount: 2
Layer: 0 1 "Back" 1
Layer: 1 1 "Fore" 0
XUID: [1021 361 -1614679662 9000772]
StyleMap: 0x0040
FSType: 0
OS2Version: 4
OS2_WeightWidthSlopeOnly: 0
OS2_UseTypoMetrics: 1
CreationTime: 1431850356
ModificationTime: 1724682676
PfmFamily: 81
TTFWeight: 600
TTFWidth: 5
LineGap: 0
VLineGap: 0
Panose: 0 0 0 0 0 0 0 0 0 0
OS2TypoAscent: 1950
OS2TypoAOffset: 0
OS2TypoDescent: -970
OS2TypoDOffset: 0
OS2TypoLinegap: 0
OS2WinAscent: 1950
OS2WinAOffset: 0
OS2WinDescent: 970
OS2WinDOffset: 0
HheadAscent: 2100
HheadAOffset: 0
HheadDescent: -1100
HheadDOffset: 0
OS2SubXSize: 1331
OS2SubYSize: 1433
OS2SubXOff: 0
OS2SubYOff: 286
OS2SupXSize: 1331
OS2SupYSize: 1433
OS2SupXOff: 0
OS2SupYOff: 983
OS2StrikeYSize: 102
OS2StrikeYPos: 530
OS2CapHeight: 1638
OS2XHeight: 1082
OS2Vendor: '    '
OS2CodePages: 00000041.20080000
OS2UnicodeRanges: 80002003.80000000.00000008.00000000
Lookup: 1 0 0 "'c2sc' Capitals to Small Capitals lookup 0" { "'c2sc' Capitals to Small Capitals lookup 0 subtable"  } ['c2sc' ('DFLT' <'dflt' > 'cyrl' <'dflt' > 'grek' <'dflt' > 'latn' <'AZE ' 'CRT ' 'FRA ' 'MOL ' 'NAV ' 'ROM ' 'TRK ' 'dflt' > ) ]
Lookup: 1 0 0 "'smcp' Lowercase to Small Capitals lookup 1" { "'smcp' Lowercase to Small Capitals lookup 1 subtable"  } ['smcp' ('DFLT' <'dflt' > 'cyrl' <'dflt' > 'grek' <'dflt' > 'latn' <'AZE ' 'CRT ' 'FRA ' 'MOL ' 'NAV ' 'ROM ' 'TRK ' 'dflt' > ) ]
Lookup: 1 0 0 "'unic' Unicase lookup 2" { "'unic' Unicase lookup 2 subtable"  } ['unic' ('DFLT' <'dflt' > 'cyrl' <'dflt' > 'grek' <'dflt' > 'latn' <'AZE ' 'CRT ' 'FRA ' 'MOL ' 'NAV ' 'ROM ' 'TRK ' 'dflt' > ) ]

StartChar: A
Encoding: 65 65 2
Width: 1367
VWidth: 1798
GlyphClass: 2
Flags: W
AnchorPoint: "Anchor-1" 686 -250 basechar 0
AnchorPoint: "Anchor-0" 672 1351 basechar 0
LayerCount: 2
Fore
SplineSet
1065 -250 m 1,0,-1
 956 74 l 1,1,-1
 412 74 l 1,2,-1
 303 -250 l 1,3,-1
 12 -250 l 1,4,-1
 556 1206 l 1,5,-1
 810 1206 l 1,6,-1
 1357 -250 l 1,7,-1
 1065 -250 l 1,0,-1
485 291 m 1,8,-1
 882 291 l 1,9,-1
 683 881 l 1,10,-1
 485 291 l 1,8,-1
EndSplineSet
Substitution2: "'unic' Unicase lookup 2 subtable" A.unic
Substitution2: "'c2sc' Capitals to Small Capitals lookup 0 subtable" A.smcp
Position2: "'cpsp' Capital Spacing lookup 0 subtable" dx=36 dy=0 dh=72 dv=0
EndChar

StartChar: A.smcp
Encoding: 65537 -1 3
Width: 1186
GlyphClass: 2
Flags: W
AnchorPoint: "Anchor-1" 592 0 basechar 0
AnchorPoint: "Anchor-0" 581 1320 basechar 0
LayerCount: 2
Fore
SplineSet
915 0 m 1,0,-1
 825 240 l 1,1,-1
 360 240 l 1,2,-1
 271 0 l 1,3,-1
 3 0 l 1,4,-1
 468 1165 l 1,5,-1
 716 1165 l 1,6,-1
 1182 0 l 1,7,-1
 915 0 l 1,0,-1
431 433 m 1,8,-1
 753 433 l 1,9,-1
 591 868 l 1,10,-1
 431 433 l 1,8,-1
EndSplineSet
EndChar

StartChar: A.unic
Encoding: 65538 -1 4
Width: 1388
GlyphClass: 2
Flags: W
AnchorPoint: "Anchor-1" 682 0 basechar 0
AnchorPoint: "Anchor-0" 701 1632 basechar 0
LayerCount: 2
Fore
SplineSet
1015 0 m 1,0,1
 1005 25 1005 25 997 59.5 c 128,-1,2
 989 94 989 94 985 132 c 1,3,4
 924 72 924 72 821.5 26 c 128,-1,5
 719 -20 719 -20 567 -20 c 0,6,7
 432 -20 432 -20 324.5 32.5 c 128,-1,8
 217 85 217 85 154.5 182.5 c 128,-1,9
 92 280 92 280 92 413 c 0,10,11
 92 629 92 629 245 740 c 128,-1,12
 398 851 398 851 728 851 c 2,13,-1
 977 851 l 1,14,-1
 977 975 l 2,15,16
 977 1105 977 1105 907 1181.5 c 128,-1,17
 837 1258 837 1258 687 1258 c 0,18,19
 548 1258 548 1258 471 1198.5 c 128,-1,20
 394 1139 394 1139 394 1015 c 1,21,-1
 121 1015 l 1,22,23
 121 1149 121 1149 190 1253 c 128,-1,24
 259 1357 259 1357 388.5 1417 c 128,-1,25
 518 1477 518 1477 699 1477 c 0,26,27
 859 1477 859 1477 983.5 1421 c 128,-1,28
 1108 1365 1108 1365 1179.5 1253 c 128,-1,29
 1251 1141 1251 1141 1251 973 c 2,30,-1
 1251 283 l 2,31,32
 1251 191 1251 191 1262 127.5 c 128,-1,33
 1273 64 1273 64 1293 17 c 1,34,-1
 1293 0 l 1,35,-1
 1015 0 l 1,0,1
619 199 m 0,36,37
 706 199 706 199 779 226 c 128,-1,38
 852 253 852 253 903.5 294.5 c 128,-1,39
 955 336 955 336 977 379 c 1,40,-1
 977 640 l 1,41,-1
 741 640 l 2,42,43
 539 640 539 640 453 586 c 128,-1,44
 367 532 367 532 367 420 c 0,45,46
 367 320 367 320 434 259.5 c 128,-1,47
 501 199 501 199 619 199 c 0,36,37
EndSplineSet
EndChar

StartChar: AE
Encoding: 198 198 5
Width: 1920
VWidth: 1798
GlyphClass: 2
Flags: W
AnchorPoint: "Anchor-0" 939 1362 basechar 0
LayerCount: 2
Fore
SplineSet
1865 -39 m 1,0,-1
 1865 -250 l 1,1,-1
 975 -250 l 1,2,-1
 961 90 l 1,3,-1
 490 90 l 1,4,-1
 313 -250 l 1,5,-1
 1 -250 l 1,6,-1
 806 1206 l 1,7,-1
 1804 1206 l 1,8,-1
 1804 995 l 1,9,-1
 1187 995 l 1,10,-1
 1203 606 l 1,11,-1
 1723 606 l 1,12,-1
 1723 395 l 1,13,-1
 1212 395 l 1,14,-1
 1230 -39 l 1,15,-1
 1865 -39 l 1,0,-1
606 315 m 1,16,-1
 951 315 l 1,17,-1
 926 930 l 1,18,-1
 606 315 l 1,16,-1
EndSplineSet
Substitution2: "'c2sc' Capitals to Small Capitals lookup 0 subtable" AE.smcp
Position2: "'cpsp' Capital Spacing lookup 0 subtable" dx=36 dy=0 dh=72 dv=0
EndChar

StartChar: AE.smcp
Encoding: 65539 -1 6
Width: 1611
GlyphClass: 2
Flags: W
AnchorPoint: "Anchor-1" 896 0 basechar 0
AnchorPoint: "Anchor-0" 896 1290 basechar 0
LayerCount: 2
Fore
SplineSet
1547 206 m 1,0,-1
 1547 0 l 1,1,-1
 748 0 l 1,2,-1
 739 248 l 1,3,-1
 375 248 l 1,4,-1
 256 0 l 1,5,-1
 -32 0 l 1,6,-1
 571 1165 l 1,7,-1
 1503 1165 l 1,8,-1
 1503 959 l 1,9,-1
 975 959 l 1,10,-1
 984 710 l 1,11,-1
 1442 710 l 1,12,-1
 1442 503 l 1,13,-1
 991 503 l 1,14,-1
 1002 206 l 1,15,-1
 1547 206 l 1,0,-1
474 453 m 1,16,-1
 731 453 l 1,17,-1
 713 950 l 1,18,-1
 474 453 l 1,16,-1
EndSplineSet
EndChar

StartChar: Aogonek
Encoding: 260 260 27
Width: 1367
VWidth: 1798
GlyphClass: 2
Flags: W
AnchorPoint: "Anchor-1" 686 -250 basechar 0
AnchorPoint: "Anchor-0" 672 1351 basechar 0
LayerCount: 2
Fore
SplineSet
12 -250 m 1,0,-1
 556 1206 l 1,1,-1
 810 1206 l 1,2,-1
 1357 -250 l 1,3,-1
 1282 -250 l 1,4,5
 1209 -294 1209 -294 1167 -338.5 c 128,-1,6
 1125 -383 1125 -383 1125 -440 c 0,7,8
 1125 -469 1125 -469 1140 -488 c 128,-1,9
 1155 -507 1155 -507 1193 -507 c 0,10,11
 1222 -507 1222 -507 1242.5 -499.5 c 128,-1,12
 1263 -492 1263 -492 1277 -485 c 1,13,-1
 1304 -631 l 1,14,15
 1279 -646 1279 -646 1239.5 -660.5 c 128,-1,16
 1200 -675 1200 -675 1140 -675 c 0,17,18
 1049 -675 1049 -675 985.5 -623.5 c 128,-1,19
 922 -572 922 -572 922 -472 c 0,20,21
 922 -411 922 -411 953 -351.5 c 128,-1,22
 984 -292 984 -292 1062 -240 c 1,23,-1
 956 74 l 1,24,-1
 412 74 l 1,25,-1
 303 -250 l 1,26,-1
 12 -250 l 1,0,-1
485 291 m 1,27,-1
 882 291 l 1,28,-1
 683 881 l 1,29,-1
 485 291 l 1,27,-1
EndSplineSet
Substitution2: "'locl' Localized Forms in Latin lookup 8 subtable" Aogonek.NAV
Substitution2: "'unic' Unicase lookup 2 subtable" Aogonek.unic
Substitution2: "'c2sc' Capitals to Small Capitals lookup 0 subtable" Aogonek.smcp
Position2: "'cpsp' Capital Spacing lookup 0 subtable" dx=36 dy=0 dh=72 dv=0
EndChar

StartChar: Aogonek.smcp
Encoding: 65554 -1 29
Width: 1186
GlyphClass: 2
Flags: W
AnchorPoint: "Anchor-1" 592 0 basechar 0
AnchorPoint: "Anchor-0" 581 1320 basechar 0
LayerCount: 2
Fore
SplineSet
3 0 m 1,0,-1
 468 1165 l 1,1,-1
 716 1165 l 1,2,-1
 1182 0 l 1,3,-1
 1124 0 l 1,4,5
 1051 -44 1051 -44 1008.5 -88.5 c 128,-1,6
 966 -133 966 -133 966 -190 c 0,7,8
 966 -219 966 -219 981.5 -238 c 128,-1,9
 997 -257 997 -257 1035 -257 c 0,10,11
 1064 -257 1064 -257 1084.5 -249.5 c 128,-1,12
 1105 -242 1105 -242 1119 -235 c 1,13,-1
 1146 -381 l 1,14,15
 1121 -396 1121 -396 1081.5 -410.5 c 128,-1,16
 1042 -425 1042 -425 982 -425 c 0,17,18
 891 -425 891 -425 827 -373.5 c 128,-1,19
 763 -322 763 -322 763 -222 c 0,20,21
 763 -159 763 -159 796 -99 c 128,-1,22
 829 -39 829 -39 910 14 c 1,23,-1
 825 240 l 1,24,-1
 360 240 l 1,25,-1
 271 0 l 1,26,-1
 3 0 l 1,0,-1
431 433 m 1,27,-1
 753 433 l 1,28,-1
 591 868 l 1,29,-1
 431 433 l 1,27,-1
EndSplineSet
Substitution2: "'locl' Localized Forms in Latin lookup 8 subtable" Aogonek.smcp.NAV
EndChar

StartChar: B
Encoding: 66 66 41
Width: 1300
VWidth: 1798
GlyphClass: 2
Flags: W
AnchorPoint: "Anchor-1" 613 -240 basechar 0
AnchorPoint: "Anchor-0" 606 1362 basechar 0
LayerCount: 2
Fore
SplineSet
685 -250 m 2,0,-1
 139 -250 l 1,1,-1
 139 1206 l 1,2,-1
 640 1206 l 2,3,4
 888 1206 888 1206 1027 1110 c 128,-1,5
 1166 1014 1166 1014 1166 811 c 0,6,7
 1166 710 1166 710 1114 628 c 128,-1,8
 1062 546 1062 546 955 504 c 1,9,10
 1083 471 1083 471 1142 379 c 128,-1,11
 1201 287 1201 287 1201 176 c 0,12,13
 1201 -34 1201 -34 1065.5 -142 c 128,-1,14
 930 -250 930 -250 685 -250 c 2,0,-1
640 989 m 2,15,-1
 414 989 l 1,16,-1
 414 593 l 1,17,-1
 642 593 l 2,18,19
 891 593 891 593 891 790 c 0,20,21
 891 895 891 895 830 942 c 128,-1,22
 769 989 769 989 640 989 c 2,15,-1
927 177 m 0,23,24
 927 279 927 279 873 339 c 128,-1,25
 819 399 819 399 697 399 c 2,26,-1
 414 399 l 1,27,-1
 414 -34 l 1,28,-1
 685 -34 l 2,29,30
 807 -34 807 -34 867 25 c 128,-1,31
 927 84 927 84 927 177 c 0,23,24
EndSplineSet
Substitution2: "'c2sc' Capitals to Small Capitals lookup 0 subtable" B.smcp
Position2: "'cpsp' Capital Spacing lookup 0 subtable" dx=36 dy=0 dh=72 dv=0
EndChar

StartChar: B.smcp
Encoding: 65563 -1 42
Width: 1126
GlyphClass: 2
Flags: W
AnchorPoint: "Anchor-1" 536 10 basechar 0
AnchorPoint: "Anchor-0" 529 1320 basechar 0
LayerCount: 2
Fore
SplineSet
591 0 m 2,0,-1
 109 0 l 1,1,-1
 109 1165 l 1,2,-1
 547 1165 l 2,3,4
 768 1165 768 1165 893.5 1086.5 c 128,-1,5
 1019 1008 1019 1008 1019 844 c 0,6,7
 1019 765 1019 765 977 697 c 128,-1,8
 935 629 935 629 841 596 c 1,9,10
 952 569 952 569 1000 492.5 c 128,-1,11
 1048 416 1048 416 1048 334 c 0,12,13
 1048 163 1048 163 930 81.5 c 128,-1,14
 812 0 812 0 591 0 c 2,0,-1
565 956 m 2,15,-1
 374 956 l 1,16,-1
 374 677 l 1,17,-1
 565 677 l 2,18,19
 754 677 754 677 754 813 c 0,20,21
 754 890 754 890 706.5 923 c 128,-1,22
 659 956 659 956 565 956 c 2,15,-1
783 349 m 0,23,24
 783 418 783 418 741.5 458.5 c 128,-1,25
 700 499 700 499 603 499 c 2,26,-1
 374 499 l 1,27,-1
 374 208 l 1,28,-1
 591 208 l 2,29,30
 691 208 691 208 737 249 c 128,-1,31
 783 290 783 290 783 349 c 0,23,24
EndSplineSet
EndChar

StartChar: C
Encoding: 67 67 43
Width: 1339
VWidth: 1798
GlyphClass: 2
Flags: W
AnchorPoint: "Anchor-1" 680 -260 basechar 0
AnchorPoint: "Anchor-0" 680 1383 basechar 0
LayerCount: 2
Fore
SplineSet
991 229 m 1,0,-1
 1266 229 l 1,1,2
 1255 84 1255 84 1185 -29 c 128,-1,3
 1115 -142 1115 -142 990 -206 c 128,-1,4
 865 -270 865 -270 687 -270 c 0,5,6
 504 -270 504 -270 371 -185 c 128,-1,7
 238 -100 238 -100 166 55.5 c 128,-1,8
 94 211 94 211 94 422 c 2,9,-1
 94 533 l 2,10,11
 94 745 94 745 167.5 900.5 c 128,-1,12
 241 1056 241 1056 376 1141.5 c 128,-1,13
 511 1227 511 1227 693 1227 c 0,14,15
 871 1227 871 1227 993.5 1161.5 c 128,-1,16
 1116 1096 1116 1096 1184.5 982 c 128,-1,17
 1253 868 1253 868 1267 720 c 1,18,-1
 992 720 l 1,19,20
 980 857 980 857 913.5 932 c 128,-1,21
 847 1007 847 1007 693 1007 c 0,22,23
 533 1007 533 1007 452.5 887 c 128,-1,24
 372 767 372 767 372 535 c 2,25,-1
 372 422 l 2,26,27
 372 199 372 199 446 74 c 128,-1,28
 520 -51 520 -51 687 -51 c 0,29,30
 838 -51 838 -51 908 20 c 128,-1,31
 978 91 978 91 991 229 c 1,0,-1
EndSplineSet
Substitution2: "'c2sc' Capitals to Small Capitals lookup 0 subtable" C.smcp
Position2: "'cpsp' Capital Spacing lookup 0 subtable" dx=36 dy=0 dh=72 dv=0
EndChar

StartChar: C.smcp
Encoding: 65564 -1 44
Width: 1154
GlyphClass: 2
Flags: W
AnchorPoint: "Anchor-1" 586 -4 basechar 0
AnchorPoint: "Anchor-0" 587 1320 basechar 0
LayerCount: 2
Fore
SplineSet
832 393 m 1,0,-1
 1098 393 l 1,1,2
 1085 210 1085 210 953 97 c 128,-1,3
 821 -16 821 -16 591 -16 c 0,4,5
 347 -16 347 -16 209 135.5 c 128,-1,6
 71 287 71 287 71 548 c 2,7,-1
 71 616 l 2,8,9
 71 790 71 790 135.5 917 c 128,-1,10
 200 1044 200 1044 317 1113 c 128,-1,11
 434 1182 434 1182 591 1182 c 0,12,13
 749 1182 749 1182 858 1128 c 128,-1,14
 967 1074 967 1074 1027 980 c 128,-1,15
 1087 886 1087 886 1099 765 c 1,16,-1
 834 765 l 1,17,18
 827 855 827 855 773 914 c 128,-1,19
 719 973 719 973 591 973 c 0,20,21
 336 973 336 973 336 617 c 2,22,-1
 336 548 l 2,23,24
 336 373 336 373 396 282 c 128,-1,25
 456 191 456 191 591 191 c 0,26,27
 708 191 708 191 766.5 241.5 c 128,-1,28
 825 292 825 292 832 393 c 1,0,-1
EndSplineSet
EndChar

StartChar: D
Encoding: 68 68 54
Width: 1334
VWidth: 1798
GlyphClass: 2
Flags: W
AnchorPoint: "Anchor-1" 613 -240 basechar 0
AnchorPoint: "Anchor-0" 609 1362 basechar 0
LayerCount: 2
Fore
SplineSet
574 -250 m 2,0,-1
 139 -250 l 1,1,-1
 139 1206 l 1,2,-1
 580 1206 l 2,3,4
 775 1206 775 1206 923.5 1120 c 128,-1,5
 1072 1034 1072 1034 1155.5 878.5 c 128,-1,6
 1239 723 1239 723 1239 514 c 2,7,-1
 1239 441 l 2,8,9
 1239 233 1239 233 1155.5 77.5 c 128,-1,10
 1072 -78 1072 -78 922.5 -164 c 128,-1,11
 773 -250 773 -250 574 -250 c 2,0,-1
580 989 m 2,12,-1
 414 989 l 1,13,-1
 414 -34 l 1,14,-1
 574 -34 l 2,15,16
 764 -34 764 -34 862.5 91.5 c 128,-1,17
 961 217 961 217 961 441 c 2,18,-1
 961 516 l 2,19,20
 961 745 961 745 862.5 867 c 128,-1,21
 764 989 764 989 580 989 c 2,12,-1
EndSplineSet
Substitution2: "'c2sc' Capitals to Small Capitals lookup 0 subtable" D.smcp
Position2: "'cpsp' Capital Spacing lookup 0 subtable" dx=36 dy=0 dh=72 dv=0
EndChar

StartChar: D.smcp
Encoding: 65569 -1 55
Width: 1143
GlyphClass: 2
Flags: W
AnchorPoint: "Anchor-1" 500 10 basechar 0
AnchorPoint: "Anchor-0" 500 1320 basechar 0
LayerCount: 2
Fore
SplineSet
498 0 m 2,0,-1
 109 0 l 1,1,-1
 109 1165 l 1,2,-1
 498 1165 l 2,3,4
 667 1165 667 1165 796 1094.5 c 128,-1,5
 925 1024 925 1024 998.5 898.5 c 128,-1,6
 1072 773 1072 773 1072 608 c 2,7,-1
 1072 556 l 2,8,9
 1072 391 1072 391 999 265.5 c 128,-1,10
 926 140 926 140 796.5 70 c 128,-1,11
 667 0 667 0 498 0 c 2,0,-1
498 956 m 2,12,-1
 374 956 l 1,13,-1
 374 208 l 1,14,-1
 498 208 l 2,15,16
 662 208 662 208 734 297 c 128,-1,17
 806 386 806 386 806 556 c 2,18,-1
 806 610 l 2,19,20
 806 780 806 780 734 868 c 128,-1,21
 662 956 662 956 498 956 c 2,12,-1
EndSplineSet
EndChar

StartChar: Dcroat
Encoding: 272 272 58
Width: 1364
VWidth: 1798
GlyphClass: 2
Flags: W
AnchorPoint: "Anchor-1" 613 -240 basechar 0
AnchorPoint: "Anchor-0" 609 1362 basechar 0
LayerCount: 2
Fore
SplineSet
604 -250 m 2,0,-1
 169 -250 l 1,1,-1
 169 399 l 1,2,-1
 17 399 l 1,3,-1
 17 572 l 1,4,-1
 169 572 l 1,5,-1
 169 1206 l 1,6,-1
 610 1206 l 2,7,8
 805 1206 805 1206 953.5 1120 c 128,-1,9
 1102 1034 1102 1034 1185.5 878.5 c 128,-1,10
 1269 723 1269 723 1269 514 c 2,11,-1
 1269 441 l 2,12,13
 1269 233 1269 233 1185.5 77.5 c 128,-1,14
 1102 -78 1102 -78 952.5 -164 c 128,-1,15
 803 -250 803 -250 604 -250 c 2,0,-1
703 572 m 1,16,-1
 703 399 l 1,17,-1
 444 399 l 1,18,-1
 444 -34 l 1,19,-1
 604 -34 l 2,20,21
 794 -34 794 -34 892.5 91.5 c 128,-1,22
 991 217 991 217 991 441 c 2,23,-1
 991 516 l 2,24,25
 991 745 991 745 892.5 867 c 128,-1,26
 794 989 794 989 610 989 c 2,27,-1
 444 989 l 1,28,-1
 444 572 l 1,29,-1
 703 572 l 1,16,-1
EndSplineSet
Substitution2: "'c2sc' Capitals to Small Capitals lookup 0 subtable" Dcroat.smcp
Position2: "'cpsp' Capital Spacing lookup 0 subtable" dx=36 dy=0 dh=72 dv=0
EndChar

StartChar: Delta
Encoding: 8710 8710 60
Width: 1486
GlyphClass: 2
Flags: W
LayerCount: 2
Fore
SplineSet
24 0 m 1,0,-1
 611 1456 l 1,1,-1
 891 1456 l 1,2,-1
 1467 0 l 1,3,-1
 24 0 l 1,0,-1
395 216 m 1,4,-1
 1098 216 l 1,5,-1
 750 1138 l 1,6,-1
 395 216 l 1,4,-1
EndSplineSet
Substitution2: "'c2sc' Capitals to Small Capitals lookup 0 subtable" Delta.smcp
Position2: "'cpsp' Capital Spacing lookup 0 subtable" dx=36 dy=0 dh=72 dv=0
EndChar

StartChar: Delta.smcp
Encoding: 65572 -1 61
Width: 1152
GlyphClass: 2
Flags: W
LayerCount: 2
Fore
SplineSet
3 0 m 1,0,-1
 434 1165 l 1,1,-1
 716 1165 l 1,2,-1
 1149 0 l 1,3,-1
 3 0 l 1,0,-1
588 858 m 1,4,-1
 575 920 l 1,5,-1
 560 855 l 1,6,-1
 350 208 l 1,7,-1
 802 208 l 1,8,-1
 588 858 l 1,4,-1
EndSplineSet
EndChar

StartChar: E
Encoding: 69 69 62
Width: 1155
VWidth: 1798
GlyphClass: 2
Flags: W
AnchorPoint: "Anchor-1" 619 -240 basechar 0
AnchorPoint: "Anchor-0" 619 1362 basechar 0
LayerCount: 2
Fore
SplineSet
1104 -34 m 1,0,-1
 1104 -250 l 1,1,-1
 139 -250 l 1,2,-1
 139 1206 l 1,3,-1
 1101 1206 l 1,4,-1
 1101 989 l 1,5,-1
 414 989 l 1,6,-1
 414 605 l 1,7,-1
 1003 605 l 1,8,-1
 1003 394 l 1,9,-1
 414 394 l 1,10,-1
 414 -34 l 1,11,-1
 1104 -34 l 1,0,-1
EndSplineSet
Substitution2: "'unic' Unicase lookup 2 subtable" E.unic
Substitution2: "'c2sc' Capitals to Small Capitals lookup 0 subtable" E.smcp
Position2: "'cpsp' Capital Spacing lookup 0 subtable" dx=36 dy=0 dh=72 dv=0
EndChar

StartChar: E.smcp
Encoding: 65573 -1 63
Width: 989
GlyphClass: 2
Flags: W
AnchorPoint: "Anchor-1" 537 8 basechar 0
AnchorPoint: "Anchor-0" 537 1320 basechar 0
LayerCount: 2
Fore
SplineSet
953 208 m 1,0,-1
 953 0 l 1,1,-1
 109 0 l 1,2,-1
 109 1165 l 1,3,-1
 953 1165 l 1,4,-1
 953 956 l 1,5,-1
 374 956 l 1,6,-1
 374 706 l 1,7,-1
 867 706 l 1,8,-1
 867 498 l 1,9,-1
 374 498 l 1,10,-1
 374 208 l 1,11,-1
 953 208 l 1,0,-1
EndSplineSet
EndChar

StartChar: E.unic
Encoding: 65574 -1 64
Width: 1426
GlyphClass: 2
Flags: W
AnchorPoint: "Anchor-1" 743 10 basechar 0
AnchorPoint: "Anchor-0" 735 1643 basechar 0
LayerCount: 2
Fore
SplineSet
750 -21 m 0,0,1
 537 -21 537 -21 390 66.5 c 128,-1,2
 243 154 243 154 167 308 c 128,-1,3
 91 462 91 462 91 662 c 2,4,-1
 91 796 l 2,5,6
 91 997 91 997 173 1150.5 c 128,-1,7
 255 1304 255 1304 396 1390.5 c 128,-1,8
 537 1477 537 1477 713 1476 c 0,9,10
 1015 1475 1015 1475 1171 1295.5 c 128,-1,11
 1327 1116 1327 1116 1327 799 c 2,12,-1
 1327 639 l 1,13,-1
 365 639 l 1,14,15
 369 520 369 520 411 423 c 128,-1,16
 453 326 453 326 539.5 269 c 128,-1,17
 626 212 626 212 762 212 c 0,18,19
 890 212 890 212 975.5 258 c 128,-1,20
 1061 304 1061 304 1119 354 c 1,21,-1
 1270 186 l 1,22,23
 1187 118 1187 118 1110 72 c 128,-1,24
 1033 26 1033 26 946.5 2.5 c 128,-1,25
 860 -21 860 -21 750 -21 c 0,0,1
713 1243 m 0,26,27
 606 1243 606 1243 531.5 1191 c 128,-1,28
 457 1139 457 1139 416 1050 c 128,-1,29
 375 961 375 961 367 850 c 1,30,-1
 1052 850 l 1,31,-1
 1052 895 l 2,32,33
 1052 994 1052 994 1018.5 1072.5 c 128,-1,34
 985 1151 985 1151 910.5 1197 c 128,-1,35
 836 1243 836 1243 713 1243 c 0,26,27
EndSplineSet
EndChar

StartChar: Eng
Encoding: 330 330 89
Width: 1437
VWidth: 1798
GlyphClass: 2
Flags: W
AnchorPoint: "Anchor-1" 720 -240 basechar 0
AnchorPoint: "Anchor-0" 726 1351 basechar 0
LayerCount: 2
Fore
SplineSet
136 1206 m 1,0,-1
 412 1206 l 1,1,-1
 1028 188 l 1,2,-1
 1028 1206 l 1,3,-1
 1303 1206 l 1,4,-1
 1303 -294 l 2,5,6
 1303 -484 1303 -484 1203.5 -585.5 c 128,-1,7
 1104 -687 1104 -687 929 -687 c 0,8,9
 892 -687 892 -687 859 -683.5 c 128,-1,10
 826 -680 826 -680 788 -670 c 1,11,-1
 802 -458 l 1,12,13
 846 -470 846 -470 901 -470 c 0,14,15
 962 -470 962 -470 995 -424.5 c 128,-1,16
 1028 -379 1028 -379 1028 -294 c 2,17,-1
 1028 -250 l 1,18,-1
 412 768 l 1,19,-1
 412 -250 l 1,20,-1
 136 -250 l 1,21,-1
 136 1206 l 1,0,-1
EndSplineSet
Substitution2: "'c2sc' Capitals to Small Capitals lookup 0 subtable" Eng.smcp
Position2: "'cpsp' Capital Spacing lookup 0 subtable" dx=36 dy=0 dh=72 dv=0
EndChar

StartChar: Eng.smcp
Encoding: 65591 -1 90
Width: 1241
GlyphClass: 2
Flags: W
AnchorPoint: "Anchor-1" 619 4 basechar 0
AnchorPoint: "Anchor-0" 624 1320 basechar 0
LayerCount: 2
Fore
SplineSet
1132 1165 m 1,0,-1
 1132 -50 l 2,1,2
 1132 -237 1132 -237 1034.5 -337 c 128,-1,3
 937 -437 937 -437 764 -437 c 0,4,5
 728 -437 728 -437 695.5 -433.5 c 128,-1,6
 663 -430 663 -430 627 -420 c 1,7,-1
 641 -212 l 1,8,9
 662 -218 662 -218 688.5 -221 c 128,-1,10
 715 -224 715 -224 740 -224 c 0,11,12
 867 -224 867 -224 867 -50 c 2,13,-1
 867 0 l 1,14,-1
 374 773 l 1,15,-1
 374 0 l 1,16,-1
 109 0 l 1,17,-1
 109 1165 l 1,18,-1
 374 1165 l 1,19,-1
 867 392 l 1,20,-1
 867 1165 l 1,21,-1
 1132 1165 l 1,0,-1
EndSplineSet
EndChar

StartChar: Eogonek
Encoding: 280 280 91
Width: 1155
VWidth: 1798
GlyphClass: 2
Flags: W
AnchorPoint: "Anchor-1" 619 -240 basechar 0
AnchorPoint: "Anchor-0" 619 1362 basechar 0
LayerCount: 2
Fore
SplineSet
1104 -34 m 1,0,-1
 1104 -250 l 1,1,-1
 968 -250 l 1,2,3
 895 -294 895 -294 852.5 -338.5 c 128,-1,4
 810 -383 810 -383 810 -440 c 0,5,6
 810 -469 810 -469 825.5 -488 c 128,-1,7
 841 -507 841 -507 879 -507 c 0,8,9
 908 -507 908 -507 928.5 -499.5 c 128,-1,10
 949 -492 949 -492 963 -485 c 1,11,-1
 990 -631 l 1,12,13
 965 -646 965 -646 925.5 -660.5 c 128,-1,14
 886 -675 886 -675 826 -675 c 0,15,16
 735 -675 735 -675 671 -623.5 c 128,-1,17
 607 -572 607 -572 607 -472 c 0,18,19
 607 -413 607 -413 635.5 -356.5 c 128,-1,20
 664 -300 664 -300 733 -250 c 1,21,-1
 139 -250 l 1,22,-1
 139 1206 l 1,23,-1
 1101 1206 l 1,24,-1
 1101 989 l 1,25,-1
 414 989 l 1,26,-1
 414 605 l 1,27,-1
 1003 605 l 1,28,-1
 1003 394 l 1,29,-1
 414 394 l 1,30,-1
 414 -34 l 1,31,-1
 1104 -34 l 1,0,-1
EndSplineSet
Substitution2: "'locl' Localized Forms in Latin lookup 8 subtable" Eogonek.NAV
Substitution2: "'unic' Unicase lookup 2 subtable" Eogonek.unic
Substitution2: "'c2sc' Capitals to Small Capitals lookup 0 subtable" Eogonek.smcp
Position2: "'cpsp' Capital Spacing lookup 0 subtable" dx=36 dy=0 dh=72 dv=0
EndChar

StartChar: Eogonek.smcp
Encoding: 65593 -1 93
Width: 989
GlyphClass: 2
Flags: W
AnchorPoint: "Anchor-1" 537 8 basechar 0
AnchorPoint: "Anchor-0" 537 1320 basechar 0
LayerCount: 2
Fore
SplineSet
953 208 m 1,0,-1
 953 0 l 1,1,-1
 838 0 l 1,2,3
 765 -44 765 -44 722.5 -88.5 c 128,-1,4
 680 -133 680 -133 680 -190 c 0,5,6
 680 -219 680 -219 695.5 -238 c 128,-1,7
 711 -257 711 -257 749 -257 c 0,8,9
 778 -257 778 -257 798.5 -249.5 c 128,-1,10
 819 -242 819 -242 833 -235 c 1,11,-1
 860 -381 l 1,12,13
 835 -396 835 -396 795.5 -410.5 c 128,-1,14
 756 -425 756 -425 696 -425 c 0,15,16
 605 -425 605 -425 541 -373.5 c 128,-1,17
 477 -322 477 -322 477 -222 c 0,18,19
 477 -163 477 -163 505.5 -106.5 c 128,-1,20
 534 -50 534 -50 603 0 c 1,21,-1
 109 0 l 1,22,-1
 109 1165 l 1,23,-1
 953 1165 l 1,24,-1
 953 956 l 1,25,-1
 374 956 l 1,26,-1
 374 706 l 1,27,-1
 867 706 l 1,28,-1
 867 498 l 1,29,-1
 374 498 l 1,30,-1
 374 208 l 1,31,-1
 953 208 l 1,0,-1
EndSplineSet
Substitution2: "'locl' Localized Forms in Latin lookup 8 subtable" Eogonek.smcp.NAV
EndChar

StartChar: Eth
Encoding: 208 208 96
Width: 1364
VWidth: 1798
GlyphClass: 2
Flags: W
AnchorPoint: "Anchor-1" 613 -240 basechar 0
AnchorPoint: "Anchor-0" 609 1362 basechar 0
LayerCount: 2
Fore
SplineSet
604 -250 m 2,0,-1
 169 -250 l 1,1,-1
 169 399 l 1,2,-1
 17 399 l 1,3,-1
 17 572 l 1,4,-1
 169 572 l 1,5,-1
 169 1206 l 1,6,-1
 610 1206 l 2,7,8
 805 1206 805 1206 953.5 1120 c 128,-1,9
 1102 1034 1102 1034 1185.5 878.5 c 128,-1,10
 1269 723 1269 723 1269 514 c 2,11,-1
 1269 441 l 2,12,13
 1269 233 1269 233 1185.5 77.5 c 128,-1,14
 1102 -78 1102 -78 952.5 -164 c 128,-1,15
 803 -250 803 -250 604 -250 c 2,0,-1
703 572 m 1,16,-1
 703 399 l 1,17,-1
 444 399 l 1,18,-1
 444 -34 l 1,19,-1
 604 -34 l 2,20,21
 794 -34 794 -34 892.5 91.5 c 128,-1,22
 991 217 991 217 991 441 c 2,23,-1
 991 516 l 2,24,25
 991 745 991 745 892.5 867 c 128,-1,26
 794 989 794 989 610 989 c 2,27,-1
 444 989 l 1,28,-1
 444 572 l 1,29,-1
 703 572 l 1,16,-1
EndSplineSet
Substitution2: "'c2sc' Capitals to Small Capitals lookup 0 subtable" Eth.smcp
Position2: "'cpsp' Capital Spacing lookup 0 subtable" dx=36 dy=0 dh=72 dv=0
EndChar

StartChar: Euro
Encoding: 8364 8364 98
Width: 1170
GlyphClass: 2
Flags: W
LayerCount: 2
Fore
SplineSet
856 196 m 0,0,1
 963 196 963 196 1052 227 c 1,2,-1
 1084 11 l 1,3,4
 1026 -3 1026 -3 962 -11 c 128,-1,5
 898 -19 898 -19 832 -19 c 0,6,7
 669 -19 669 -19 542 41.5 c 128,-1,8
 415 102 415 102 341 222.5 c 128,-1,9
 267 343 267 343 262 524 c 1,10,-1
 90 524 l 1,11,-1
 90 667 l 1,12,-1
 262 667 l 1,13,-1
 262 796 l 1,14,-1
 90 796 l 1,15,-1
 90 938 l 1,16,-1
 263 938 l 1,17,18
 274 1115 274 1115 350 1234.5 c 128,-1,19
 426 1354 426 1354 554 1414.5 c 128,-1,20
 682 1475 682 1475 848 1475 c 0,21,22
 908 1475 908 1475 966.5 1466.5 c 128,-1,23
 1025 1458 1025 1458 1084 1444 c 1,24,-1
 1052 1227 l 1,25,26
 1010 1241 1010 1241 960 1250 c 128,-1,27
 910 1259 910 1259 860 1259 c 0,28,29
 718 1259 718 1259 634 1183 c 128,-1,30
 550 1107 550 1107 540 938 c 1,31,-1
 883 938 l 1,32,-1
 883 796 l 1,33,-1
 538 796 l 1,34,-1
 538 667 l 1,35,-1
 883 667 l 1,36,-1
 883 524 l 1,37,-1
 538 524 l 1,38,39
 543 344 543 344 629.5 270 c 128,-1,40
 716 196 716 196 856 196 c 0,0,1
EndSplineSet
Substitution2: "'c2sc' Capitals to Small Capitals lookup 0 subtable" Euro.smcp
Position2: "'cpsp' Capital Spacing lookup 0 subtable" dx=36 dy=0 dh=72 dv=0
EndChar

StartChar: Euro.smcp
Encoding: 65597 -1 99
Width: 1019
GlyphClass: 2
Flags: W
LayerCount: 2
Fore
SplineSet
724 192 m 0,0,1
 783 192 783 192 828.5 200 c 128,-1,2
 874 208 874 208 925 219 c 1,3,-1
 948 15 l 1,4,5
 892 0 892 0 839 -8 c 128,-1,6
 786 -16 786 -16 724 -16 c 0,7,8
 511 -16 511 -16 380.5 88.5 c 128,-1,9
 250 193 250 193 223 382 c 1,10,-1
 70 382 l 1,11,-1
 70 536 l 1,12,-1
 216 536 l 1,13,-1
 216 622 l 1,14,-1
 70 622 l 1,15,-1
 70 776 l 1,16,-1
 223 776 l 1,17,18
 251 970 251 970 380.5 1076.5 c 128,-1,19
 510 1183 510 1183 722 1183 c 0,20,21
 785 1183 785 1183 836.5 1175 c 128,-1,22
 888 1167 888 1167 949 1151 c 1,23,-1
 927 947 l 1,24,25
 874 962 874 962 827.5 968.5 c 128,-1,26
 781 975 781 975 722 975 c 0,27,28
 619 975 619 975 562.5 924 c 128,-1,29
 506 873 506 873 489 776 c 1,30,-1
 857 776 l 1,31,-1
 857 622 l 1,32,-1
 481 622 l 1,33,-1
 481 536 l 1,34,-1
 857 536 l 1,35,-1
 857 382 l 1,36,-1
 489 382 l 1,37,38
 524 192 524 192 724 192 c 0,0,1
EndSplineSet
EndChar

StartChar: F
Encoding: 70 70 100
Width: 1126
VWidth: 1798
GlyphClass: 2
Flags: W
AnchorPoint: "Anchor-1" 619 -240 basechar 0
AnchorPoint: "Anchor-0" 619 1362 basechar 0
LayerCount: 2
Fore
SplineSet
1001 577 m 1,0,-1
 1001 360 l 1,1,-1
 414 360 l 1,2,-1
 414 -250 l 1,3,-1
 139 -250 l 1,4,-1
 139 1206 l 1,5,-1
 1078 1206 l 1,6,-1
 1078 989 l 1,7,-1
 414 989 l 1,8,-1
 414 577 l 1,9,-1
 1001 577 l 1,0,-1
EndSplineSet
Substitution2: "'c2sc' Capitals to Small Capitals lookup 0 subtable" F.smcp
Position2: "'cpsp' Capital Spacing lookup 0 subtable" dx=36 dy=0 dh=72 dv=0
EndChar

StartChar: F.smcp
Encoding: 65598 -1 101
Width: 966
GlyphClass: 2
Flags: W
AnchorPoint: "Anchor-1" 489 10 basechar 0
AnchorPoint: "Anchor-0" 541 1320 basechar 0
LayerCount: 2
Fore
SplineSet
872 677 m 1,0,-1
 872 469 l 1,1,-1
 374 469 l 1,2,-1
 374 0 l 1,3,-1
 109 0 l 1,4,-1
 109 1165 l 1,5,-1
 931 1165 l 1,6,-1
 931 956 l 1,7,-1
 374 956 l 1,8,-1
 374 677 l 1,9,-1
 872 677 l 1,0,-1
EndSplineSet
EndChar

StartChar: G
Encoding: 71 71 102
Width: 1396
VWidth: 1798
GlyphClass: 2
Flags: W
AnchorPoint: "Anchor-1" 730 -259 basechar 0
AnchorPoint: "Anchor-0" 672 1383 basechar 0
LayerCount: 2
Fore
SplineSet
1275 503 m 1,0,-1
 1275 -64 l 1,1,2
 1242 -104 1242 -104 1174 -152.5 c 128,-1,3
 1106 -201 1106 -201 996 -235.5 c 128,-1,4
 886 -270 886 -270 726 -270 c 0,5,6
 541 -270 541 -270 400 -187.5 c 128,-1,7
 259 -105 259 -105 180 51 c 128,-1,8
 101 207 101 207 101 430 c 2,9,-1
 101 526 l 2,10,11
 101 748 101 748 175.5 905 c 128,-1,12
 250 1062 250 1062 386 1144.5 c 128,-1,13
 522 1227 522 1227 706 1227 c 256,14,15
 890 1227 890 1227 1010 1166.5 c 128,-1,16
 1130 1106 1130 1106 1194 999 c 128,-1,17
 1258 892 1258 892 1274 754 c 1,18,-1
 1006 754 l 1,19,20
 988 867 988 867 921.5 938.5 c 128,-1,21
 855 1010 855 1010 712 1010 c 0,22,23
 549 1010 549 1010 464.5 885 c 128,-1,24
 380 760 380 760 380 528 c 2,25,-1
 380 430 l 2,26,27
 380 195 380 195 473.5 70.5 c 128,-1,28
 567 -54 567 -54 740 -54 c 0,29,30
 858 -54 858 -54 916.5 -26 c 128,-1,31
 975 2 975 2 1000 29 c 1,32,-1
 1000 302 l 1,33,-1
 711 302 l 1,34,-1
 711 503 l 1,35,-1
 1275 503 l 1,0,-1
EndSplineSet
Substitution2: "'c2sc' Capitals to Small Capitals lookup 0 subtable" G.smcp
Position2: "'cpsp' Capital Spacing lookup 0 subtable" dx=36 dy=0 dh=72 dv=0
EndChar

StartChar: G.smcp
Encoding: 65599 -1 103
Width: 1189
GlyphClass: 2
Flags: W
AnchorPoint: "Anchor-1" 591 -4 basechar 0
AnchorPoint: "Anchor-0" 584 1320 basechar 0
LayerCount: 2
Fore
SplineSet
1107 618 m 1,0,-1
 1107 144 l 1,1,2
 1077 111 1077 111 1015.5 73.5 c 128,-1,3
 954 36 954 36 857 10 c 128,-1,4
 760 -16 760 -16 623 -16 c 0,5,6
 460 -16 460 -16 338 50 c 128,-1,7
 216 116 216 116 148 242 c 128,-1,8
 80 368 80 368 80 548 c 2,9,-1
 80 617 l 2,10,11
 80 797 80 797 146.5 923.5 c 128,-1,12
 213 1050 213 1050 331.5 1116 c 128,-1,13
 450 1182 450 1182 606 1182 c 0,14,15
 772 1182 772 1182 877.5 1131.5 c 128,-1,16
 983 1081 983 1081 1038 992.5 c 128,-1,17
 1093 904 1093 904 1106 788 c 1,18,-1
 850 788 l 1,19,20
 836 875 836 875 782.5 924 c 128,-1,21
 729 973 729 973 614 973 c 0,22,23
 488 973 488 973 417 884 c 128,-1,24
 346 795 346 795 346 619 c 2,25,-1
 346 548 l 2,26,27
 346 191 346 191 640 191 c 0,28,29
 727 191 727 191 774.5 209 c 128,-1,30
 822 227 822 227 841 243 c 1,31,-1
 841 432 l 1,32,-1
 603 432 l 1,33,-1
 603 618 l 1,34,-1
 1107 618 l 1,0,-1
EndSplineSet
EndChar

StartChar: Germandbls.smcp
Encoding: 65604 -1 111
Width: 1126
GlyphClass: 2
Flags: W
LayerCount: 2
Fore
SplineSet
435 36 m 1,0,-1
 511 231 l 1,1,2
 532 215 532 215 567.5 198.5 c 128,-1,3
 603 182 603 182 647 182 c 0,4,5
 720 182 720 182 761.5 229 c 128,-1,6
 803 276 803 276 803 353 c 0,7,8
 803 437 803 437 743.5 472.5 c 128,-1,9
 684 508 684 508 571 508 c 2,10,-1
 490 508 l 1,11,-1
 490 675 l 1,12,-1
 679 916 l 1,13,14
 651 942 651 942 615 960 c 128,-1,15
 579 978 579 978 530 978 c 0,16,17
 450 978 450 978 408.5 915 c 128,-1,18
 367 852 367 852 367 745 c 2,19,-1
 367 0 l 1,20,-1
 109 0 l 1,21,-1
 109 747 l 1,22,-1
 109 747 l 1,23,24
 110 1180 110 1180 533 1180 c 0,25,26
 673 1180 673 1180 779 1120.5 c 128,-1,27
 885 1061 885 1061 974 958 c 1,28,-1
 736 673 l 1,29,30
 890 649 890 649 976 568 c 128,-1,31
 1062 487 1062 487 1062 354 c 0,32,33
 1062 231 1062 231 1010 147.5 c 128,-1,34
 958 64 958 64 869.5 21.5 c 128,-1,35
 781 -21 781 -21 672 -21 c 0,36,37
 599 -21 599 -21 541 -5.5 c 128,-1,38
 483 10 483 10 435 36 c 1,0,-1
EndSplineSet
EndChar

StartChar: H
Encoding: 72 72 112
Width: 1450
VWidth: 1798
GlyphClass: 2
Flags: W
AnchorPoint: "Anchor-1" 714 -240 basechar 0
AnchorPoint: "Anchor-0" 712 1362 basechar 0
LayerCount: 2
Fore
SplineSet
414 1206 m 1,0,-1
 414 605 l 1,1,-1
 1034 605 l 1,2,-1
 1034 1206 l 1,3,-1
 1309 1206 l 1,4,-1
 1309 -250 l 1,5,-1
 1034 -250 l 1,6,-1
 1034 389 l 1,7,-1
 414 389 l 1,8,-1
 414 -250 l 1,9,-1
 139 -250 l 1,10,-1
 139 1206 l 1,11,-1
 414 1206 l 1,0,-1
EndSplineSet
Substitution2: "'c2sc' Capitals to Small Capitals lookup 0 subtable" H.smcp
Position2: "'cpsp' Capital Spacing lookup 0 subtable" dx=36 dy=0 dh=72 dv=0
EndChar

StartChar: H.smcp
Encoding: 65605 -1 113
Width: 1242
GlyphClass: 2
Flags: W
AnchorPoint: "Anchor-1" 615 10 basechar 0
AnchorPoint: "Anchor-0" 615 1320 basechar 0
LayerCount: 2
Fore
SplineSet
374 1165 m 1,0,-1
 374 677 l 1,1,-1
 869 677 l 1,2,-1
 869 1165 l 1,3,-1
 1133 1165 l 1,4,-1
 1133 0 l 1,5,-1
 869 0 l 1,6,-1
 869 468 l 1,7,-1
 374 468 l 1,8,-1
 374 0 l 1,9,-1
 109 0 l 1,10,-1
 109 1165 l 1,11,-1
 374 1165 l 1,0,-1
EndSplineSet
EndChar

StartChar: Hbar
Encoding: 294 294 114
Width: 1465
VWidth: 1798
GlyphClass: 2
Flags: W
AnchorPoint: "Anchor-1" 724 -240 basechar 0
AnchorPoint: "Anchor-0" 724 1362 basechar 0
LayerCount: 2
Fore
SplineSet
424 1206 m 1,0,-1
 424 957 l 1,1,-1
 1045 957 l 1,2,-1
 1045 1206 l 1,3,-1
 1320 1206 l 1,4,-1
 1320 957 l 1,5,-1
 1444 957 l 1,6,-1
 1444 793 l 1,7,-1
 1320 793 l 1,8,-1
 1320 -250 l 1,9,-1
 1045 -250 l 1,10,-1
 1045 389 l 1,11,-1
 424 389 l 1,12,-1
 424 -250 l 1,13,-1
 149 -250 l 1,14,-1
 149 793 l 1,15,-1
 32 793 l 1,16,-1
 32 957 l 1,17,-1
 149 957 l 1,18,-1
 149 1206 l 1,19,-1
 424 1206 l 1,0,-1
424 605 m 1,20,-1
 1045 605 l 1,21,-1
 1045 793 l 1,22,-1
 424 793 l 1,23,-1
 424 605 l 1,20,-1
EndSplineSet
Substitution2: "'c2sc' Capitals to Small Capitals lookup 0 subtable" Hbar.smcp
Position2: "'cpsp' Capital Spacing lookup 0 subtable" dx=36 dy=0 dh=72 dv=0
EndChar

StartChar: Hbar.smcp
Encoding: 65606 -1 115
Width: 1313
GlyphClass: 2
Flags: W
AnchorPoint: "Anchor-1" 615 10 basechar 0
AnchorPoint: "Anchor-0" 615 1320 basechar 0
LayerCount: 2
Fore
SplineSet
410 1165 m 1,0,-1
 410 1021 l 1,1,-1
 904 1021 l 1,2,-1
 904 1165 l 1,3,-1
 1168 1165 l 1,4,-1
 1168 1021 l 1,5,-1
 1258 1021 l 1,6,-1
 1258 849 l 1,7,-1
 1168 849 l 1,8,-1
 1168 0 l 1,9,-1
 904 0 l 1,10,-1
 904 468 l 1,11,-1
 410 468 l 1,12,-1
 410 0 l 1,13,-1
 145 0 l 1,14,-1
 145 849 l 1,15,-1
 54 849 l 1,16,-1
 54 1021 l 1,17,-1
 145 1021 l 1,18,-1
 145 1165 l 1,19,-1
 410 1165 l 1,0,-1
410 677 m 1,20,-1
 904 677 l 1,21,-1
 904 849 l 1,22,-1
 410 849 l 1,23,-1
 410 677 l 1,20,-1
EndSplineSet
EndChar

StartChar: I
Encoding: 73 73 118
Width: 589
VWidth: 1798
GlyphClass: 2
Flags: W
AnchorPoint: "Anchor-1" 279 -241 basechar 0
AnchorPoint: "Anchor-0" 279 1362 basechar 0
LayerCount: 2
Fore
SplineSet
432 1206 m 1,0,-1
 432 -250 l 1,1,-1
 157 -250 l 1,2,-1
 157 1206 l 1,3,-1
 432 1206 l 1,0,-1
EndSplineSet
Substitution2: "'c2sc' Capitals to Small Capitals lookup 0 subtable" I.smcp
Position2: "'cpsp' Capital Spacing lookup 0 subtable" dx=36 dy=0 dh=72 dv=0
EndChar

StartChar: I.smcp
Encoding: 65608 -1 119
Width: 519
GlyphClass: 2
Flags: W
AnchorPoint: "Anchor-1" 244 4 basechar 0
AnchorPoint: "Anchor-0" 244 1320 basechar 0
LayerCount: 2
Fore
SplineSet
392 1165 m 1,0,-1
 392 0 l 1,1,-1
 127 0 l 1,2,-1
 127 1165 l 1,3,-1
 392 1165 l 1,0,-1
EndSplineSet
EndChar

StartChar: J
Encoding: 74 74 140
Width: 1141
VWidth: 1798
GlyphClass: 2
Flags: W
AnchorPoint: "Anchor-1" 512 -260 basechar 0
AnchorPoint: "Anchor-0" 852 1349 basechar 0
LayerCount: 2
Fore
SplineSet
733 192 m 2,0,-1
 733 1206 l 1,1,-1
 1008 1206 l 1,2,-1
 1008 192 l 2,3,4
 1008 47 1008 47 945 -56.5 c 128,-1,5
 882 -160 882 -160 773 -215 c 128,-1,6
 664 -270 664 -270 527 -270 c 0,7,8
 387 -270 387 -270 278 -222.5 c 128,-1,9
 169 -175 169 -175 107 -77 c 128,-1,10
 45 21 45 21 45 172 c 1,11,-1
 321 172 l 1,12,13
 321 48 321 48 376.5 -3 c 128,-1,14
 432 -54 432 -54 527 -54 c 0,15,16
 619 -54 619 -54 676 10 c 128,-1,17
 733 74 733 74 733 192 c 2,0,-1
EndSplineSet
Substitution2: "'c2sc' Capitals to Small Capitals lookup 0 subtable" J.smcp
Position2: "'cpsp' Capital Spacing lookup 0 subtable" dx=36 dy=0 dh=72 dv=0
EndChar

StartChar: J.smcp
Encoding: 65619 -1 141
Width: 985
GlyphClass: 2
Flags: W
AnchorPoint: "Anchor-1" 457 -10 basechar 0
AnchorPoint: "Anchor-0" 734 1320 basechar 0
LayerCount: 2
Fore
SplineSet
614 379 m 2,0,-1
 614 1165 l 1,1,-1
 879 1165 l 1,2,-1
 879 379 l 2,3,4
 879 255 879 255 824 166.5 c 128,-1,5
 769 78 769 78 675.5 31 c 128,-1,6
 582 -16 582 -16 467 -16 c 0,7,8
 276 -16 276 -16 156 75.5 c 128,-1,9
 36 167 36 167 36 361 c 1,10,-1
 302 361 l 1,11,12
 302 273 302 273 344.5 232 c 128,-1,13
 387 191 387 191 467 191 c 0,14,15
 537 191 537 191 575.5 238 c 128,-1,16
 614 285 614 285 614 379 c 2,0,-1
EndSplineSet
EndChar

StartChar: K
Encoding: 75 75 144
Width: 1298
VWidth: 1798
GlyphClass: 2
Flags: W
AnchorPoint: "Anchor-1" 660 -160 basechar 0
AnchorPoint: "Anchor-0" 605 1345 basechar 0
LayerCount: 2
Fore
SplineSet
982 -250 m 1,0,-1
 577 360 l 1,1,-1
 414 186 l 1,2,-1
 414 -250 l 1,3,-1
 139 -250 l 1,4,-1
 139 1206 l 1,5,-1
 414 1206 l 1,6,-1
 414 527 l 1,7,-1
 553 707 l 1,8,-1
 951 1206 l 1,9,-1
 1288 1206 l 1,10,-1
 758 562 l 1,11,-1
 1309 -250 l 1,12,-1
 982 -250 l 1,0,-1
EndSplineSet
Substitution2: "'salt' Stylistic Alternatives lookup 13 subtable" K.alt
Substitution2: "'c2sc' Capitals to Small Capitals lookup 0 subtable" K.smcp
Position2: "'cpsp' Capital Spacing lookup 0 subtable" dx=36 dy=0 dh=72 dv=0
EndChar

StartChar: K.alt
Encoding: 65621 -1 145
Width: 1321
GlyphClass: 2
Flags: W
LayerCount: 2
Fore
SplineSet
1001 0 m 1,0,-1
 591 614 l 1,1,-1
 417 614 l 1,2,-1
 417 0 l 1,3,-1
 142 0 l 1,4,-1
 142 1456 l 1,5,-1
 417 1456 l 1,6,-1
 417 856 l 1,7,-1
 560 856 l 1,8,-1
 949 1456 l 1,9,-1
 1284 1456 l 1,10,-1
 812 765 l 1,11,-1
 1330 0 l 1,12,-1
 1001 0 l 1,0,-1
EndSplineSet
EndChar

StartChar: K.smcp
Encoding: 65622 -1 146
Width: 1122
GlyphClass: 2
Flags: W
AnchorPoint: "Anchor-1" 532 6 basechar 0
AnchorPoint: "Anchor-0" 518 1320 basechar 0
LayerCount: 2
Fore
SplineSet
819 0 m 1,0,-1
 506 458 l 1,1,-1
 374 329 l 1,2,-1
 374 0 l 1,3,-1
 109 0 l 1,4,-1
 109 1165 l 1,5,-1
 374 1165 l 1,6,-1
 374 659 l 1,7,-1
 480 794 l 1,8,-1
 787 1165 l 1,9,-1
 1118 1165 l 1,10,-1
 685 645 l 1,11,-1
 1134 0 l 1,12,-1
 819 0 l 1,0,-1
EndSplineSet
EndChar

StartChar: L
Encoding: 76 76 149
Width: 1107
VWidth: 1798
GlyphClass: 2
Flags: W
AnchorPoint: "Anchor-1" 620 -240 basechar 0
AnchorPoint: "Anchor-0" 264 1346 basechar 0
LayerCount: 2
Fore
SplineSet
1063 -34 m 1,0,-1
 1063 -250 l 1,1,-1
 139 -250 l 1,2,-1
 139 1206 l 1,3,-1
 414 1206 l 1,4,-1
 414 -34 l 1,5,-1
 1063 -34 l 1,0,-1
EndSplineSet
Substitution2: "'c2sc' Capitals to Small Capitals lookup 0 subtable" L.smcp
Position2: "'cpsp' Capital Spacing lookup 0 subtable" dx=36 dy=0 dh=72 dv=0
EndChar

StartChar: L.smcp
Encoding: 65624 -1 150
Width: 952
GlyphClass: 2
Flags: W
AnchorPoint: "Anchor-1" 527 8 basechar 0
AnchorPoint: "Anchor-0" 233 1320 basechar 0
LayerCount: 2
Fore
SplineSet
917 208 m 1,0,-1
 917 0 l 1,1,-1
 109 0 l 1,2,-1
 109 1165 l 1,3,-1
 374 1165 l 1,4,-1
 374 208 l 1,5,-1
 917 208 l 1,0,-1
EndSplineSet
EndChar

StartChar: Lslash
Encoding: 321 321 161
Width: 1133
VWidth: 1798
GlyphClass: 2
Flags: W
AnchorPoint: "Anchor-1" 618 -240 basechar 0
AnchorPoint: "Anchor-0" 262 1346 basechar 0
LayerCount: 2
Fore
SplineSet
1089 -34 m 1,0,-1
 1089 -250 l 1,1,-1
 165 -250 l 1,2,-1
 165 399 l 1,3,-1
 30 359 l 1,4,-1
 30 511 l 1,5,-1
 165 551 l 1,6,-1
 165 1206 l 1,7,-1
 440 1206 l 1,8,-1
 440 631 l 1,9,-1
 667 698 l 1,10,-1
 667 546 l 1,11,-1
 440 479 l 1,12,-1
 440 -34 l 1,13,-1
 1089 -34 l 1,0,-1
EndSplineSet
Substitution2: "'c2sc' Capitals to Small Capitals lookup 0 subtable" Lslash.smcp
Position2: "'cpsp' Capital Spacing lookup 0 subtable" dx=36 dy=0 dh=72 dv=0
EndChar

StartChar: Lslash.smcp
Encoding: 65631 -1 162
Width: 970
GlyphClass: 2
Flags: W
AnchorPoint: "Anchor-1" 527 8 basechar 0
AnchorPoint: "Anchor-0" 233 1320 basechar 0
LayerCount: 2
Fore
SplineSet
934 208 m 1,0,-1
 934 0 l 1,1,-1
 126 0 l 1,2,-1
 126 522 l 1,3,-1
 6 487 l 1,4,-1
 6 640 l 1,5,-1
 126 675 l 1,6,-1
 126 1165 l 1,7,-1
 391 1165 l 1,8,-1
 391 753 l 1,9,-1
 644 827 l 1,10,-1
 644 674 l 1,11,-1
 391 600 l 1,12,-1
 391 208 l 1,13,-1
 934 208 l 1,0,-1
EndSplineSet
EndChar

StartChar: M
Encoding: 77 77 163
Width: 1792
VWidth: 1798
GlyphClass: 2
Flags: W
AnchorPoint: "Anchor-1" 893 -240 basechar 0
AnchorPoint: "Anchor-0" 890 1351 basechar 0
LayerCount: 2
Fore
SplineSet
139 1206 m 1,0,-1
 497 1206 l 1,1,-1
 895 110 l 1,2,-1
 1292 1206 l 1,3,-1
 1651 1206 l 1,4,-1
 1651 -250 l 1,5,-1
 1376 -250 l 1,6,-1
 1376 199 l 1,7,-1
 1403 861 l 1,8,-1
 990 -250 l 1,9,-1
 799 -250 l 1,10,-1
 386 863 l 1,11,-1
 414 199 l 1,12,-1
 414 -250 l 1,13,-1
 139 -250 l 1,14,-1
 139 1206 l 1,0,-1
EndSplineSet
Substitution2: "'unic' Unicase lookup 2 subtable" M.unic
Substitution2: "'c2sc' Capitals to Small Capitals lookup 0 subtable" M.smcp
Position2: "'cpsp' Capital Spacing lookup 0 subtable" dx=36 dy=0 dh=72 dv=0
EndChar

StartChar: M.smcp
Encoding: 65632 -1 164
Width: 1542
GlyphClass: 2
Flags: W
AnchorPoint: "Anchor-1" 765 10 basechar 0
AnchorPoint: "Anchor-0" 765 1320 basechar 0
LayerCount: 2
Fore
SplineSet
109 1165 m 1,0,-1
 456 1165 l 1,1,-1
 770 342 l 1,2,-1
 1083 1165 l 1,3,-1
 1433 1165 l 1,4,-1
 1433 0 l 1,5,-1
 1167 0 l 1,6,-1
 1167 286 l 1,7,-1
 1194 874 l 1,8,-1
 859 0 l 1,9,-1
 681 0 l 1,10,-1
 347 869 l 1,11,-1
 374 286 l 1,12,-1
 374 0 l 1,13,-1
 109 0 l 1,14,-1
 109 1165 l 1,0,-1
EndSplineSet
EndChar

StartChar: M.unic
Encoding: 65633 -1 165
Width: 2218
GlyphClass: 2
Flags: W
AnchorPoint: "Anchor-1" 1118 10 basechar 0
AnchorPoint: "Anchor-0" 1114 1632 basechar 0
LayerCount: 2
Fore
SplineSet
731 1251 m 256,0,1
 615 1251 615 1251 531 1179 c 128,-1,2
 447 1107 447 1107 414 994 c 1,3,-1
 414 0 l 1,4,-1
 139 0 l 1,5,-1
 139 1456 l 1,6,-1
 398 1456 l 1,7,-1
 409 1293 l 1,8,9
 482 1377 482 1377 586.5 1426.5 c 128,-1,10
 691 1476 691 1476 819 1476 c 0,11,12
 951 1476 951 1476 1047 1423 c 128,-1,13
 1143 1370 1143 1370 1194 1259 c 1,14,15
 1272 1357 1272 1357 1390 1416.5 c 128,-1,16
 1508 1476 1508 1476 1651 1476 c 0,17,18
 1850 1476 1850 1476 1965 1361 c 128,-1,19
 2080 1246 2080 1246 2080 973 c 2,20,-1
 2080 0 l 1,21,-1
 1805 0 l 1,22,-1
 1805 950 l 2,23,24
 1805 1117 1805 1117 1742 1184 c 128,-1,25
 1679 1251 1679 1251 1563 1251 c 256,26,27
 1447 1251 1447 1251 1363 1178 c 128,-1,28
 1279 1105 1279 1105 1247 993 c 0,29,30
 1247 983 1247 983 1247 973 c 2,31,-1
 1247 0 l 1,32,-1
 973 0 l 1,33,-1
 973 950 l 2,34,35
 973 1117 973 1117 910 1184 c 128,-1,36
 847 1251 847 1251 731 1251 c 256,0,1
EndSplineSet
EndChar

StartChar: N
Encoding: 78 78 166
Width: 1449
VWidth: 1798
GlyphClass: 2
Flags: W
AnchorPoint: "Anchor-1" 720 -240 basechar 0
AnchorPoint: "Anchor-0" 726 1351 basechar 0
LayerCount: 2
Fore
SplineSet
1309 1206 m 1,0,-1
 1309 -250 l 1,1,-1
 1033 -250 l 1,2,-1
 414 760 l 1,3,-1
 414 -250 l 1,4,-1
 139 -250 l 1,5,-1
 139 1206 l 1,6,-1
 414 1206 l 1,7,-1
 1035 195 l 1,8,-1
 1035 1206 l 1,9,-1
 1309 1206 l 1,0,-1
EndSplineSet
Substitution2: "'unic' Unicase lookup 2 subtable" N.unic
Substitution2: "'c2sc' Capitals to Small Capitals lookup 0 subtable" N.smcp
Position2: "'cpsp' Capital Spacing lookup 0 subtable" dx=36 dy=0 dh=72 dv=0
EndChar

StartChar: N.smcp
Encoding: 65634 -1 167
Width: 1241
GlyphClass: 2
Flags: W
AnchorPoint: "Anchor-1" 619 4 basechar 0
AnchorPoint: "Anchor-0" 624 1320 basechar 0
LayerCount: 2
Fore
SplineSet
1132 1165 m 1,0,-1
 1132 0 l 1,1,-1
 867 0 l 1,2,-1
 374 773 l 1,3,-1
 374 0 l 1,4,-1
 109 0 l 1,5,-1
 109 1165 l 1,6,-1
 374 1165 l 1,7,-1
 867 392 l 1,8,-1
 867 1165 l 1,9,-1
 1132 1165 l 1,0,-1
EndSplineSet
EndChar

StartChar: N.unic
Encoding: 65635 -1 168
Width: 1450
GlyphClass: 2
Flags: W
AnchorPoint: "Anchor-1" 720 10 basechar 0
AnchorPoint: "Anchor-0" 726 1632 basechar 0
LayerCount: 2
Fore
SplineSet
765 1251 m 256,0,1
 636 1251 636 1251 542.5 1174.5 c 128,-1,2
 449 1098 449 1098 414 980 c 1,3,-1
 414 0 l 1,4,-1
 139 0 l 1,5,-1
 139 1456 l 1,6,-1
 398 1456 l 1,7,-1
 410 1280 l 1,8,9
 487 1370 487 1370 600.5 1423 c 128,-1,10
 714 1476 714 1476 854 1476 c 0,11,12
 995 1476 995 1476 1097 1425.5 c 128,-1,13
 1199 1375 1199 1375 1254 1262.5 c 128,-1,14
 1309 1150 1309 1150 1309 965 c 2,15,-1
 1309 0 l 1,16,-1
 1034 0 l 1,17,-1
 1034 941 l 2,18,19
 1034 1112 1034 1112 964 1181.5 c 128,-1,20
 894 1251 894 1251 765 1251 c 256,0,1
EndSplineSet
EndChar

StartChar: NameMe.65564
Encoding: 65638 -1 172
Width: 557
GlyphClass: 1
Flags: W
LayerCount: 2
Fore
SplineSet
143 1263 m 1,0,-1
 374 1263 l 1,1,-1
 374 463 l 2,2,3
 374 344 374 344 413 296.5 c 128,-1,4
 452 249 452 249 552 249 c 2,5,-1
 577 249 l 1,6,-1
 577 0 l 1,7,-1
 552 0 l 2,8,9
 344 0 344 0 243.5 110 c 128,-1,10
 143 220 143 220 143 447 c 2,11,-1
 143 1263 l 1,0,-1
EndSplineSet
EndChar

StartChar: NameMe.65565
Encoding: 65639 -1 173
Width: 707
GlyphClass: 1
Flags: W
LayerCount: 2
Fore
SplineSet
516 223 m 0,0,1
 532 223 532 223 563 218.5 c 128,-1,2
 594 214 594 214 621 203 c 1,3,-1
 600 96 l 1,4,5
 580 102 580 102 556.5 106.5 c 128,-1,6
 533 111 533 111 516 111 c 0,7,8
 452 111 452 111 414 72 c 128,-1,9
 376 33 376 33 376 -9 c 0,10,11
 376 -29 376 -29 381 -35 c 128,-1,12
 386 -41 386 -41 408 -41 c 2,13,-1
 501 -41 l 2,14,15
 560 -41 560 -41 591.5 -73 c 128,-1,16
 623 -105 623 -105 623 -153 c 0,17,18
 623 -289 623 -289 522 -355.5 c 128,-1,19
 421 -422 421 -422 272 -422 c 0,20,21
 214 -422 214 -422 167 -411 c 128,-1,22
 120 -400 120 -400 80 -382 c 1,23,-1
 130 -277 l 1,24,25
 159 -291 159 -291 193 -300 c 128,-1,26
 227 -309 227 -309 274 -309 c 0,27,28
 329 -309 329 -309 385 -294 c 128,-1,29
 441 -279 441 -279 479 -248.5 c 128,-1,30
 517 -218 517 -218 517 -173 c 0,31,32
 517 -155 517 -155 477 -155 c 2,33,-1
 403 -155 l 2,34,35
 337 -155 337 -155 300.5 -119.5 c 128,-1,36
 264 -84 264 -84 264 -17 c 0,37,38
 264 57 264 57 300 110.5 c 128,-1,39
 336 164 336 164 393.5 193.5 c 128,-1,40
 451 223 451 223 516 223 c 0,0,1
EndSplineSet
EndChar

StartChar: NameMe.65583
Encoding: 65641 -1 175
Width: 471
GlyphClass: 1
Flags: W
LayerCount: 2
Fore
SplineSet
-52 1332 m 1,0,-1
 -31 1420 l 1,1,2
 -17 1408 -17 1408 4 1393.5 c 128,-1,3
 25 1379 25 1379 44 1371 c 1,4,5
 124 1506 124 1506 190 1565.5 c 128,-1,6
 256 1625 256 1625 337 1625 c 0,7,8
 420 1625 420 1625 472 1573.5 c 128,-1,9
 524 1522 524 1522 524 1445 c 0,10,11
 524 1342 524 1342 451.5 1301 c 128,-1,12
 379 1260 379 1260 207 1260 c 2,13,-1
 182 1260 l 2,14,15
 91 1260 91 1260 31.5 1277 c 128,-1,16
 -28 1294 -28 1294 -52 1332 c 1,0,-1
205 1356 m 2,17,18
 336 1356 336 1356 383 1372.5 c 128,-1,19
 430 1389 430 1389 430 1441 c 0,20,21
 430 1478 430 1478 406 1502.5 c 128,-1,22
 382 1527 382 1527 342 1527 c 0,23,24
 291 1527 291 1527 248.5 1489 c 128,-1,25
 206 1451 206 1451 144 1356 c 1,26,-1
 205 1356 l 2,17,18
EndSplineSet
EndChar

StartChar: NameMe.65703
Encoding: 65642 -1 176
Width: 517
GlyphClass: 1
Flags: W
LayerCount: 2
Fore
SplineSet
375 1261 m 1,0,-1
 375 1 l 1,1,-1
 143 1 l 1,2,-1
 143 1261 l 1,3,-1
 375 1261 l 1,0,-1
EndSplineSet
EndChar

StartChar: O
Encoding: 79 79 186
Width: 1412
VWidth: 1798
GlyphClass: 2
Flags: W
AnchorPoint: "Anchor-1" 707 -250 basechar 0
AnchorPoint: "Anchor-0" 707 1353 basechar 0
LayerCount: 2
Fore
SplineSet
1318 515 m 2,0,-1
 1318 440 l 2,1,2
 1318 220 1318 220 1241 60.5 c 128,-1,3
 1164 -99 1164 -99 1026.5 -184.5 c 128,-1,4
 889 -270 889 -270 707 -270 c 0,5,6
 527 -270 527 -270 388.5 -184.5 c 128,-1,7
 250 -99 250 -99 171.5 60.5 c 128,-1,8
 93 220 93 220 93 440 c 2,9,-1
 93 515 l 2,10,11
 93 736 93 736 171 895 c 128,-1,12
 249 1054 249 1054 387 1140 c 128,-1,13
 525 1226 525 1226 705 1226 c 0,14,15
 887 1226 887 1226 1025 1140 c 128,-1,16
 1163 1054 1163 1054 1240.5 895 c 128,-1,17
 1318 736 1318 736 1318 515 c 2,0,-1
1040 440 m 2,18,-1
 1040 517 l 2,19,20
 1040 754 1040 754 952 879 c 128,-1,21
 864 1004 864 1004 705 1004 c 0,22,23
 547 1004 547 1004 459 879 c 128,-1,24
 371 754 371 754 371 517 c 2,25,-1
 371 440 l 2,26,27
 371 204 371 204 460 77.5 c 128,-1,28
 549 -49 549 -49 707 -49 c 0,29,30
 867 -49 867 -49 953.5 77.5 c 128,-1,31
 1040 204 1040 204 1040 440 c 2,18,-1
EndSplineSet
Substitution2: "'c2sc' Capitals to Small Capitals lookup 0 subtable" O.smcp
Position2: "'cpsp' Capital Spacing lookup 0 subtable" dx=36 dy=0 dh=72 dv=0
EndChar

StartChar: O.smcp
Encoding: 65649 -1 187
Width: 1214
GlyphClass: 2
Flags: W
AnchorPoint: "Anchor-1" 631 0 basechar 0
AnchorPoint: "Anchor-0" 606 1320 basechar 0
LayerCount: 2
Fore
SplineSet
1142 608 m 2,0,-1
 1142 556 l 2,1,2
 1142 379 1142 379 1074.5 251 c 128,-1,3
 1007 123 1007 123 886.5 53.5 c 128,-1,4
 766 -16 766 -16 608 -16 c 256,5,6
 450 -16 450 -16 329 53.5 c 128,-1,7
 208 123 208 123 139.5 251 c 128,-1,8
 71 379 71 379 71 556 c 2,9,-1
 71 608 l 2,10,11
 71 785 71 785 139 913.5 c 128,-1,12
 207 1042 207 1042 327.5 1111.5 c 128,-1,13
 448 1181 448 1181 606 1181 c 256,14,15
 764 1181 764 1181 885 1111.5 c 128,-1,16
 1006 1042 1006 1042 1074 913.5 c 128,-1,17
 1142 785 1142 785 1142 608 c 2,0,-1
877 556 m 2,18,-1
 877 610 l 2,19,20
 877 784 877 784 805.5 878.5 c 128,-1,21
 734 973 734 973 606 973 c 0,22,23
 477 973 477 973 406.5 878.5 c 128,-1,24
 336 784 336 784 336 610 c 2,25,-1
 336 556 l 2,26,27
 336 383 336 383 407.5 287 c 128,-1,28
 479 191 479 191 608 191 c 0,29,30
 736 191 736 191 806.5 287 c 128,-1,31
 877 383 877 383 877 556 c 2,18,-1
EndSplineSet
EndChar

StartChar: OE
Encoding: 338 338 188
Width: 1975
VWidth: 1798
GlyphClass: 2
Flags: W
AnchorPoint: "Anchor-1" 953 -250 basechar 0
AnchorPoint: "Anchor-0" 953 1353 basechar 0
LayerCount: 2
Fore
SplineSet
691 1226 m 0,0,1
 768 1226 768 1226 842 1220 c 128,-1,2
 916 1214 916 1214 983 1206 c 1,3,-1
 1859 1206 l 1,4,-1
 1859 989 l 1,5,-1
 1172 989 l 1,6,-1
 1172 605 l 1,7,-1
 1761 605 l 1,8,-1
 1761 394 l 1,9,-1
 1172 394 l 1,10,-1
 1172 -34 l 1,11,-1
 1862 -34 l 1,12,-1
 1862 -250 l 1,13,-1
 983 -250 l 1,14,15
 916 -257 916 -257 843 -263.5 c 128,-1,16
 770 -270 770 -270 693 -270 c 0,17,18
 517 -270 517 -270 383 -194.5 c 128,-1,19
 249 -119 249 -119 174 15.5 c 128,-1,20
 99 150 99 150 99 326 c 2,21,-1
 99 630 l 2,22,23
 99 807 99 807 173.5 941 c 128,-1,24
 248 1075 248 1075 381.5 1150.5 c 128,-1,25
 515 1226 515 1226 691 1226 c 0,0,1
363 326 m 2,26,27
 363 134 363 134 452.5 36 c 128,-1,28
 542 -62 542 -62 693 -62 c 0,29,30
 746 -62 746 -62 797.5 -58.5 c 128,-1,31
 849 -55 849 -55 897 -49 c 1,32,-1
 897 1004 l 1,33,34
 849 1011 849 1011 797 1014.5 c 128,-1,35
 745 1018 745 1018 691 1018 c 0,36,37
 540 1018 540 1018 451.5 921 c 128,-1,38
 363 824 363 824 363 632 c 2,39,-1
 363 326 l 2,26,27
EndSplineSet
Substitution2: "'c2sc' Capitals to Small Capitals lookup 0 subtable" OE.smcp
Position2: "'cpsp' Capital Spacing lookup 0 subtable" dx=36 dy=0 dh=72 dv=0
EndChar

StartChar: OE.smcp
Encoding: 65650 -1 189
Width: 1683
GlyphClass: 2
Flags: W
LayerCount: 2
Fore
SplineSet
994 1165 m 2,0,-1
 1647 1165 l 1,1,-1
 1647 956 l 1,2,-1
 1068 956 l 1,3,-1
 1068 706 l 1,4,-1
 1561 706 l 1,5,-1
 1561 498 l 1,6,-1
 1068 498 l 1,7,-1
 1068 208 l 1,8,-1
 1647 208 l 1,9,-1
 1647 0 l 1,10,-1
 995 0 l 2,11,12
 880 0 880 0 774 -8 c 128,-1,13
 668 -16 668 -16 608 -16 c 0,14,15
 450 -16 450 -16 329 53.5 c 128,-1,16
 208 123 208 123 139.5 251 c 128,-1,17
 71 379 71 379 71 556 c 2,18,-1
 71 608 l 2,19,20
 71 785 71 785 139 913.5 c 128,-1,21
 207 1042 207 1042 327.5 1111.5 c 128,-1,22
 448 1181 448 1181 606 1181 c 0,23,24
 666 1181 666 1181 774.5 1173 c 128,-1,25
 883 1165 883 1165 994 1165 c 2,0,-1
336 556 m 2,26,27
 336 383 336 383 407.5 287 c 128,-1,28
 479 191 479 191 608 191 c 0,29,30
 631 191 631 191 686.5 193.5 c 128,-1,31
 742 196 742 196 803 199 c 1,32,-1
 803 963 l 1,33,34
 740 967 740 967 684 970 c 128,-1,35
 628 973 628 973 606 973 c 0,36,37
 477 973 477 973 406.5 878.5 c 128,-1,38
 336 784 336 784 336 610 c 2,39,-1
 336 556 l 2,26,27
EndSplineSet
EndChar

StartChar: Ohorn
Encoding: 416 416 200
Width: 1432
VWidth: 1798
GlyphClass: 2
Flags: W
AnchorPoint: "Anchor-1" 692 -250 basechar 0
AnchorPoint: "Anchor-0" 703 1345 basechar 0
LayerCount: 2
Fore
SplineSet
1311 515 m 2,0,-1
 1311 440 l 2,1,2
 1311 220 1311 220 1234 60.5 c 128,-1,3
 1157 -99 1157 -99 1019.5 -184.5 c 128,-1,4
 882 -270 882 -270 700 -270 c 0,5,6
 520 -270 520 -270 382 -184.5 c 128,-1,7
 244 -99 244 -99 165.5 60.5 c 128,-1,8
 87 220 87 220 87 440 c 2,9,-1
 87 515 l 2,10,11
 87 736 87 736 164.5 895 c 128,-1,12
 242 1054 242 1054 380 1140 c 128,-1,13
 518 1226 518 1226 698 1226 c 0,14,15
 831 1226 831 1226 941.5 1179.5 c 128,-1,16
 1052 1133 1052 1133 1132 1046 c 1,17,18
 1214 1060 1214 1060 1245 1132.5 c 128,-1,19
 1276 1205 1276 1205 1276 1323 c 1,20,-1
 1462 1323 l 1,21,22
 1462 1158 1462 1158 1404.5 1052.5 c 128,-1,23
 1347 947 1347 947 1226 910 c 1,24,25
 1267 829 1267 829 1289 730 c 128,-1,26
 1311 631 1311 631 1311 515 c 2,0,-1
1033 440 m 2,27,-1
 1033 517 l 2,28,29
 1033 754 1033 754 945.5 879 c 128,-1,30
 858 1004 858 1004 698 1004 c 0,31,32
 541 1004 541 1004 452.5 879 c 128,-1,33
 364 754 364 754 364 517 c 2,34,-1
 364 440 l 2,35,36
 364 204 364 204 453.5 77.5 c 128,-1,37
 543 -49 543 -49 700 -49 c 0,38,39
 861 -49 861 -49 947 77.5 c 128,-1,40
 1033 204 1033 204 1033 440 c 2,27,-1
EndSplineSet
EndChar

StartChar: Omega
Encoding: 8486 8486 205
Width: 1372
GlyphClass: 2
Flags: W
AnchorPoint: "Anchor-1" 679 10 basechar 0
LayerCount: 2
Fore
SplineSet
119 0 m 1,0,-1
 119 218 l 1,1,-1
 343 218 l 1,2,3
 239 312 239 312 172.5 454.5 c 128,-1,4
 106 597 106 597 106 762 c 2,5,-1
 106 855 l 2,6,7
 106 1038 106 1038 178 1178 c 128,-1,8
 250 1318 250 1318 378.5 1396.5 c 128,-1,9
 507 1475 507 1475 676 1475 c 0,10,11
 847 1475 847 1475 976 1396.5 c 128,-1,12
 1105 1318 1105 1318 1177.5 1178 c 128,-1,13
 1250 1038 1250 1038 1250 855 c 2,14,-1
 1250 762 l 2,15,16
 1250 597 1250 597 1183.5 455 c 128,-1,17
 1117 313 1117 313 1014 218 c 1,18,-1
 1235 218 l 1,19,-1
 1235 0 l 1,20,-1
 736 0 l 1,21,-1
 736 223 l 1,22,23
 829 256 829 256 888 384.5 c 128,-1,24
 947 513 947 513 947 762 c 2,25,-1
 947 857 l 2,26,27
 947 1054 947 1054 874.5 1155.5 c 128,-1,28
 802 1257 802 1257 676 1257 c 0,29,30
 552 1257 552 1257 480.5 1155.5 c 128,-1,31
 409 1054 409 1054 409 857 c 2,32,-1
 409 762 l 2,33,34
 409 512 409 512 469.5 383.5 c 128,-1,35
 530 255 530 255 626 223 c 1,36,-1
 626 0 l 1,37,-1
 119 0 l 1,0,-1
EndSplineSet
Substitution2: "'c2sc' Capitals to Small Capitals lookup 0 subtable" Omega.smcp
Position2: "'cpsp' Capital Spacing lookup 0 subtable" dx=36 dy=0 dh=72 dv=0
EndChar

StartChar: Omega.smcp
Encoding: 65658 -1 206
Width: 1240
GlyphClass: 2
Flags: W
AnchorPoint: "Anchor-1" 637 10 basechar 0
LayerCount: 2
Fore
SplineSet
102 0 m 1,0,-1
 102 211 l 1,1,-1
 289 211 l 1,2,3
 195 283 195 283 139.5 393.5 c 128,-1,4
 84 504 84 504 84 643 c 2,5,-1
 84 677 l 2,6,7
 84 812 84 812 147.5 926.5 c 128,-1,8
 211 1041 211 1041 330.5 1111 c 128,-1,9
 450 1181 450 1181 618 1181 c 0,10,11
 788 1181 788 1181 908 1111.5 c 128,-1,12
 1028 1042 1028 1042 1091.5 927.5 c 128,-1,13
 1155 813 1155 813 1155 678 c 2,14,-1
 1155 643 l 2,15,16
 1155 503 1155 503 1099.5 393 c 128,-1,17
 1044 283 1044 283 952 211 c 1,18,-1
 1144 211 l 1,19,-1
 1144 0 l 1,20,-1
 679 0 l 1,21,-1
 679 215 l 1,22,23
 787 254 787 254 838.5 348.5 c 128,-1,24
 890 443 890 443 890 610 c 2,25,-1
 890 655 l 2,26,27
 890 794 890 794 826 883.5 c 128,-1,28
 762 973 762 973 618 973 c 0,29,30
 476 973 476 973 412.5 883.5 c 128,-1,31
 349 794 349 794 349 655 c 2,32,-1
 349 610 l 2,33,34
 349 443 349 443 404 348 c 128,-1,35
 459 253 459 253 566 215 c 1,36,-1
 566 0 l 1,37,-1
 102 0 l 1,0,-1
EndSplineSet
EndChar

StartChar: Oslash
Encoding: 216 216 207
Width: 1410
VWidth: 1798
GlyphClass: 2
Flags: W
AnchorPoint: "Anchor-0" 715 1424 basechar 0
LayerCount: 2
Fore
SplineSet
1324 515 m 2,0,-1
 1324 440 l 2,1,2
 1324 220 1324 220 1247 60.5 c 128,-1,3
 1170 -99 1170 -99 1032.5 -184.5 c 128,-1,4
 895 -270 895 -270 713 -270 c 0,5,6
 548 -270 548 -270 416 -197 c 1,7,-1
 328 -344 l 1,8,-1
 151 -344 l 1,9,-1
 294 -105 l 1,10,11
 202 -13 202 -13 150.5 125 c 128,-1,12
 99 263 99 263 99 440 c 2,13,-1
 99 515 l 2,14,15
 99 736 99 736 177 895 c 128,-1,16
 255 1054 255 1054 393 1140 c 128,-1,17
 531 1226 531 1226 711 1226 c 0,18,19
 896 1226 896 1226 1037 1136 c 1,20,-1
 1115 1267 l 1,21,-1
 1290 1267 l 1,22,-1
 1153 1037 l 1,23,24
 1234 945 1234 945 1279 813 c 128,-1,25
 1324 681 1324 681 1324 515 c 2,0,-1
377 440 m 2,26,27
 377 251 377 251 435 130 c 1,28,-1
 913 930 l 1,29,30
 833 1004 833 1004 711 1004 c 0,31,32
 552 1004 552 1004 464.5 879 c 128,-1,33
 377 754 377 754 377 517 c 2,34,-1
 377 440 l 2,26,27
1046 440 m 2,35,-1
 1046 517 l 2,36,37
 1046 677 1046 677 1004 789 c 1,38,-1
 536 5 l 1,39,40
 610 -49 610 -49 713 -49 c 0,41,42
 873 -49 873 -49 959.5 77.5 c 128,-1,43
 1046 204 1046 204 1046 440 c 2,35,-1
EndSplineSet
Substitution2: "'c2sc' Capitals to Small Capitals lookup 0 subtable" Oslash.smcp
Position2: "'cpsp' Capital Spacing lookup 0 subtable" dx=36 dy=0 dh=72 dv=0
EndChar

StartChar: Oslash.smcp
Encoding: 65659 -1 208
Width: 1214
GlyphClass: 2
Flags: W
AnchorPoint: "Anchor-1" 631 0 basechar 0
AnchorPoint: "Anchor-0" 606 1320 basechar 0
LayerCount: 2
Fore
SplineSet
1142 608 m 2,0,-1
 1142 556 l 2,1,2
 1142 379 1142 379 1074.5 251 c 128,-1,3
 1007 123 1007 123 886.5 53.5 c 128,-1,4
 766 -16 766 -16 608 -16 c 0,5,6
 445 -16 445 -16 321 58 c 1,7,-1
 240 -56 l 1,8,-1
 78 -56 l 1,9,-1
 218 141 l 1,10,11
 148 215 148 215 109.5 320 c 128,-1,12
 71 425 71 425 71 556 c 2,13,-1
 71 608 l 2,14,15
 71 785 71 785 139 913.5 c 128,-1,16
 207 1042 207 1042 327.5 1111.5 c 128,-1,17
 448 1181 448 1181 606 1181 c 0,18,19
 773 1181 773 1181 899 1103 c 1,20,-1
 977 1213 l 1,21,-1
 1139 1213 l 1,22,-1
 1001 1018 l 1,23,24
 1068 944 1068 944 1105 840.5 c 128,-1,25
 1142 737 1142 737 1142 608 c 2,0,-1
336 556 m 2,26,27
 336 439 336 439 370 356 c 1,28,-1
 768 918 l 1,29,30
 703 973 703 973 606 973 c 0,31,32
 477 973 477 973 406.5 878.5 c 128,-1,33
 336 784 336 784 336 610 c 2,34,-1
 336 556 l 2,26,27
877 556 m 2,35,-1
 877 610 l 2,36,37
 877 721 877 721 847 801 c 1,38,-1
 451 242 l 1,39,40
 515 191 515 191 608 191 c 0,41,42
 736 191 736 191 806.5 287 c 128,-1,43
 877 383 877 383 877 556 c 2,35,-1
EndSplineSet
EndChar

StartChar: P
Encoding: 80 80 213
Width: 1314
VWidth: 1798
GlyphClass: 2
Flags: W
AnchorPoint: "Anchor-1" 613 -240 basechar 0
AnchorPoint: "Anchor-0" 606 1362 basechar 0
LayerCount: 2
Fore
SplineSet
699 281 m 2,0,-1
 414 281 l 1,1,-1
 414 -250 l 1,2,-1
 139 -250 l 1,3,-1
 139 1206 l 1,4,-1
 699 1206 l 2,5,6
 869 1206 869 1206 989.5 1145 c 128,-1,7
 1110 1084 1110 1084 1173.5 978 c 128,-1,8
 1237 872 1237 872 1237 736 c 0,9,10
 1237 525 1237 525 1095.5 403 c 128,-1,11
 954 281 954 281 699 281 c 2,0,-1
699 989 m 2,12,-1
 414 989 l 1,13,-1
 414 497 l 1,14,-1
 699 497 l 2,15,16
 837 497 837 497 898.5 564 c 128,-1,17
 960 631 960 631 960 734 c 0,18,19
 960 801 960 801 933 859 c 128,-1,20
 906 917 906 917 848.5 953 c 128,-1,21
 791 989 791 989 699 989 c 2,12,-1
EndSplineSet
Substitution2: "'c2sc' Capitals to Small Capitals lookup 0 subtable" P.smcp
Position2: "'cpsp' Capital Spacing lookup 0 subtable" dx=36 dy=0 dh=72 dv=0
EndChar

StartChar: P.smcp
Encoding: 65662 -1 214
Width: 1137
GlyphClass: 2
Flags: W
AnchorPoint: "Anchor-1" 574 0 basechar 0
AnchorPoint: "Anchor-0" 576 1320 basechar 0
LayerCount: 2
Fore
SplineSet
598 400 m 2,0,-1
 374 400 l 1,1,-1
 374 0 l 1,2,-1
 109 0 l 1,3,-1
 109 1165 l 1,4,-1
 598 1165 l 2,5,6
 746 1165 746 1165 851.5 1114.5 c 128,-1,7
 957 1064 957 1064 1013.5 975 c 128,-1,8
 1070 886 1070 886 1070 772 c 0,9,10
 1070 604 1070 604 945 502 c 128,-1,11
 820 400 820 400 598 400 c 2,0,-1
598 956 m 2,12,-1
 374 956 l 1,13,-1
 374 609 l 1,14,-1
 598 609 l 2,15,16
 705 609 705 609 755.5 654.5 c 128,-1,17
 806 700 806 700 806 770 c 0,18,19
 806 844 806 844 755.5 900 c 128,-1,20
 705 956 705 956 598 956 c 2,12,-1
EndSplineSet
EndChar

StartChar: Q
Encoding: 81 81 215
Width: 1412
VWidth: 1798
GlyphClass: 2
Flags: W
AnchorPoint: "Anchor-1" 698 -260 basechar 0
AnchorPoint: "Anchor-0" 700 1350 basechar 0
LayerCount: 2
Fore
SplineSet
1315 515 m 2,0,-1
 1315 440 l 2,1,2
 1315 235 1315 235 1248 83 c 128,-1,3
 1181 -69 1181 -69 1062 -158 c 1,4,-1
 1308 -353 l 1,5,-1
 1132 -506 l 1,6,-1
 824 -260 l 1,7,8
 766 -270 766 -270 704 -270 c 0,9,10
 524 -270 524 -270 385.5 -184.5 c 128,-1,11
 247 -99 247 -99 168.5 60.5 c 128,-1,12
 90 220 90 220 90 440 c 2,13,-1
 90 515 l 2,14,15
 90 736 90 736 168 895 c 128,-1,16
 246 1054 246 1054 384 1140 c 128,-1,17
 522 1226 522 1226 702 1226 c 0,18,19
 884 1226 884 1226 1022 1140 c 128,-1,20
 1160 1054 1160 1054 1237.5 895 c 128,-1,21
 1315 736 1315 736 1315 515 c 2,0,-1
1037 440 m 2,22,-1
 1037 517 l 2,23,24
 1037 754 1037 754 949.5 879 c 128,-1,25
 862 1004 862 1004 702 1004 c 0,26,27
 544 1004 544 1004 456 879 c 128,-1,28
 368 754 368 754 368 517 c 2,29,-1
 368 440 l 2,30,31
 368 204 368 204 457 77.5 c 128,-1,32
 546 -49 546 -49 704 -49 c 0,33,34
 864 -49 864 -49 950.5 77.5 c 128,-1,35
 1037 204 1037 204 1037 440 c 2,22,-1
EndSplineSet
Substitution2: "'c2sc' Capitals to Small Capitals lookup 0 subtable" Q.smcp
Position2: "'cpsp' Capital Spacing lookup 0 subtable" dx=36 dy=0 dh=72 dv=0
EndChar

StartChar: Q.smcp
Encoding: 65663 -1 216
Width: 1214
GlyphClass: 2
Flags: W
AnchorPoint: "Anchor-1" 599 -10 basechar 0
AnchorPoint: "Anchor-0" 599 1320 basechar 0
LayerCount: 2
Fore
SplineSet
1142 608 m 2,0,-1
 1142 556 l 2,1,2
 1142 396 1142 396 1086 275 c 128,-1,3
 1030 154 1030 154 930 82 c 1,4,-1
 1132 -70 l 1,5,-1
 965 -212 l 1,6,-1
 701 -9 l 1,7,8
 655 -16 655 -16 607 -16 c 0,9,10
 450 -16 450 -16 329 53.5 c 128,-1,11
 208 123 208 123 139.5 251 c 128,-1,12
 71 379 71 379 71 556 c 2,13,-1
 71 608 l 2,14,15
 71 785 71 785 139 913.5 c 128,-1,16
 207 1042 207 1042 327.5 1111.5 c 128,-1,17
 448 1181 448 1181 606 1181 c 256,18,19
 764 1181 764 1181 885 1111.5 c 128,-1,20
 1006 1042 1006 1042 1074 913.5 c 128,-1,21
 1142 785 1142 785 1142 608 c 2,0,-1
878 556 m 2,22,-1
 878 610 l 2,23,24
 878 784 878 784 806 878.5 c 128,-1,25
 734 973 734 973 606 973 c 0,26,27
 476 973 476 973 406 878.5 c 128,-1,28
 336 784 336 784 336 610 c 2,29,-1
 336 556 l 2,30,31
 336 383 336 383 407 287 c 128,-1,32
 478 191 478 191 607 191 c 0,33,34
 735 191 735 191 806.5 287 c 128,-1,35
 878 383 878 383 878 556 c 2,22,-1
EndSplineSet
EndChar

StartChar: R
Encoding: 82 82 217
Width: 1301
VWidth: 1798
GlyphClass: 2
Flags: W
AnchorPoint: "Anchor-1" 611 -240 basechar 0
AnchorPoint: "Anchor-0" 610 1351 basechar 0
LayerCount: 2
Fore
SplineSet
961 -250 m 1,0,-1
 677 300 l 1,1,-1
 414 300 l 1,2,-1
 414 -250 l 1,3,-1
 139 -250 l 1,4,-1
 139 1206 l 1,5,-1
 668 1206 l 2,6,7
 917 1206 917 1206 1058.5 1094 c 128,-1,8
 1200 982 1200 982 1200 767 c 0,9,10
 1200 615 1200 615 1129 516.5 c 128,-1,11
 1058 418 1058 418 935 366 c 1,12,-1
 1256 -236 l 1,13,-1
 1256 -250 l 1,14,-1
 961 -250 l 1,0,-1
668 989 m 2,15,-1
 414 989 l 1,16,-1
 414 517 l 1,17,-1
 671 517 l 2,18,19
 797 517 797 517 861 582.5 c 128,-1,20
 925 648 925 648 925 751 c 0,21,22
 925 860 925 860 862 924.5 c 128,-1,23
 799 989 799 989 668 989 c 2,15,-1
EndSplineSet
Substitution2: "'c2sc' Capitals to Small Capitals lookup 0 subtable" R.smcp
Position2: "'cpsp' Capital Spacing lookup 0 subtable" dx=36 dy=0 dh=72 dv=0
EndChar

StartChar: R.smcp
Encoding: 65664 -1 218
Width: 1136
GlyphClass: 2
Flags: W
AnchorPoint: "Anchor-1" 525 8 basechar 0
AnchorPoint: "Anchor-0" 520 1320 basechar 0
LayerCount: 2
Fore
SplineSet
807 0 m 1,0,-1
 578 416 l 1,1,-1
 374 416 l 1,2,-1
 374 0 l 1,3,-1
 108 0 l 1,4,-1
 108 1165 l 1,5,-1
 581 1165 l 2,6,7
 796 1165 796 1165 921 1075.5 c 128,-1,8
 1046 986 1046 986 1046 814 c 0,9,10
 1046 681 1046 681 985 603.5 c 128,-1,11
 924 526 924 526 822 483 c 1,12,-1
 1092 12 l 1,13,-1
 1092 0 l 1,14,-1
 807 0 l 1,0,-1
581 956 m 2,15,-1
 374 956 l 1,16,-1
 374 625 l 1,17,-1
 584 625 l 2,18,19
 682 625 682 625 731.5 669 c 128,-1,20
 781 713 781 713 781 789 c 0,21,22
 781 867 781 867 730.5 911.5 c 128,-1,23
 680 956 680 956 581 956 c 2,15,-1
EndSplineSet
EndChar

StartChar: S
Encoding: 83 83 225
Width: 1250
VWidth: 1798
GlyphClass: 2
Flags: W
AnchorPoint: "Anchor-1" 628 -251 basechar 0
AnchorPoint: "Anchor-0" 622 1353 basechar 0
LayerCount: 2
Fore
SplineSet
901 128 m 0,0,1
 901 184 901 184 877.5 225 c 128,-1,2
 854 266 854 266 789.5 301 c 128,-1,3
 725 336 725 336 602 374 c 0,4,5
 466 416 466 416 356 473.5 c 128,-1,6
 246 531 246 531 181.5 616 c 128,-1,7
 117 701 117 701 117 823 c 0,8,9
 117 943 117 943 184.5 1033.5 c 128,-1,10
 252 1124 252 1124 371.5 1175 c 128,-1,11
 491 1226 491 1226 646 1226 c 0,12,13
 808 1226 808 1226 926.5 1167 c 128,-1,14
 1045 1108 1045 1108 1110 1007 c 128,-1,15
 1175 906 1175 906 1175 780 c 1,16,-1
 901 780 l 1,17,18
 901 881 901 881 837 946.5 c 128,-1,19
 773 1012 773 1012 642 1012 c 0,20,21
 516 1012 516 1012 454 957.5 c 128,-1,22
 392 903 392 903 392 823 c 0,23,24
 392 745 392 745 467.5 692.5 c 128,-1,25
 543 640 543 640 694 595 c 0,26,27
 933 523 933 523 1055 415 c 128,-1,28
 1177 307 1177 307 1177 130 c 0,29,30
 1177 -57 1177 -57 1034 -163.5 c 128,-1,31
 891 -270 891 -270 653 -270 c 0,32,33
 547 -270 547 -270 443.5 -241.5 c 128,-1,34
 340 -213 340 -213 256 -155.5 c 128,-1,35
 172 -98 172 -98 122 -10 c 128,-1,36
 72 78 72 78 72 198 c 1,37,-1
 348 198 l 1,38,39
 348 60 348 60 435 1.5 c 128,-1,40
 522 -57 522 -57 653 -57 c 0,41,42
 778 -57 778 -57 839.5 -5.5 c 128,-1,43
 901 46 901 46 901 128 c 0,0,1
EndSplineSet
Substitution2: "'c2sc' Capitals to Small Capitals lookup 0 subtable" S.smcp
Position2: "'cpsp' Capital Spacing lookup 0 subtable" dx=36 dy=0 dh=72 dv=0
EndChar

StartChar: S.smcp
Encoding: 65668 -1 226
Width: 1089
GlyphClass: 2
Flags: W
AnchorPoint: "Anchor-1" 552 0 basechar 0
AnchorPoint: "Anchor-0" 543 1320 basechar 0
LayerCount: 2
Fore
SplineSet
762 308 m 0,0,1
 762 370 762 370 713.5 409 c 128,-1,2
 665 448 665 448 528 481 c 0,3,4
 314 531 314 531 207.5 611 c 128,-1,5
 101 691 101 691 101 845 c 0,6,7
 101 944 101 944 158 1020 c 128,-1,8
 215 1096 215 1096 315.5 1138.5 c 128,-1,9
 416 1181 416 1181 545 1181 c 0,10,11
 686 1181 686 1181 792 1136.5 c 128,-1,12
 898 1092 898 1092 957.5 1011 c 128,-1,13
 1017 930 1017 930 1017 820 c 1,14,-1
 752 820 l 1,15,16
 752 889 752 889 699 938 c 128,-1,17
 646 987 646 987 545 987 c 0,18,19
 447 987 447 987 400.5 945 c 128,-1,20
 354 903 354 903 354 853 c 0,21,22
 354 798 354 798 406.5 762 c 128,-1,23
 459 726 459 726 588 693 c 0,24,25
 801 645 801 645 908.5 559 c 128,-1,26
 1016 473 1016 473 1016 315 c 0,27,28
 1016 159 1016 159 891.5 71.5 c 128,-1,29
 767 -16 767 -16 561 -16 c 0,30,31
 469 -16 469 -16 380 6 c 128,-1,32
 291 28 291 28 219 74.5 c 128,-1,33
 147 121 147 121 104 193 c 128,-1,34
 61 265 61 265 61 365 c 1,35,-1
 327 365 l 1,36,37
 327 265 327 265 392 221 c 128,-1,38
 457 177 457 177 573 177 c 0,39,40
 675 177 675 177 718.5 218 c 128,-1,41
 762 259 762 259 762 308 c 0,0,1
EndSplineSet
EndChar

StartChar: Schwa
Encoding: 399 399 233
Width: 1423
VWidth: 1798
GlyphClass: 2
Flags: W
AnchorPoint: "Anchor-1" 696 -250 basechar 0
AnchorPoint: "Anchor-0" 661 1353 basechar 0
LayerCount: 2
Fore
SplineSet
703 -271 m 0,0,1
 500 -271 500 -271 361 -187.5 c 128,-1,2
 222 -104 222 -104 151.5 48 c 128,-1,3
 81 200 81 200 81 407 c 2,4,-1
 81 559 l 1,5,-1
 1047 559 l 1,6,7
 1044 680 1044 680 1002.5 778.5 c 128,-1,8
 961 877 961 877 869.5 935.5 c 128,-1,9
 778 994 778 994 627 994 c 0,10,11
 494 994 494 994 397.5 971 c 128,-1,12
 301 948 301 948 242 925 c 1,13,-1
 194 1140 l 1,14,15
 217 1153 217 1153 280.5 1173.5 c 128,-1,16
 344 1194 344 1194 437 1210.5 c 128,-1,17
 530 1227 530 1227 639 1227 c 0,18,19
 862 1227 862 1227 1014 1139.5 c 128,-1,20
 1166 1052 1166 1052 1244 897.5 c 128,-1,21
 1322 743 1322 743 1322 543 c 2,22,-1
 1322 409 l 2,23,24
 1322 209 1322 209 1240 55.5 c 128,-1,25
 1158 -98 1158 -98 1017.5 -184.5 c 128,-1,26
 877 -271 877 -271 703 -271 c 0,0,1
703 -39 m 0,27,28
 805 -39 805 -39 878 11.5 c 128,-1,29
 951 62 951 62 992.5 148.5 c 128,-1,30
 1034 235 1034 235 1044 343 c 1,31,-1
 356 343 l 1,32,-1
 356 311 l 2,33,34
 356 214 356 214 390 134.5 c 128,-1,35
 424 55 424 55 500 8 c 128,-1,36
 576 -39 576 -39 703 -39 c 0,27,28
EndSplineSet
EndChar

StartChar: T
Encoding: 84 84 237
Width: 1259
VWidth: 1798
GlyphClass: 2
Flags: W
AnchorPoint: "Anchor-1" 614 -250 basechar 0
AnchorPoint: "Anchor-0" 612 1350 basechar 0
LayerCount: 2
Fore
SplineSet
1216 1206 m 1,0,-1
 1216 989 l 1,1,-1
 764 989 l 1,2,-1
 764 -250 l 1,3,-1
 490 -250 l 1,4,-1
 490 989 l 1,5,-1
 43 989 l 1,6,-1
 43 1206 l 1,7,-1
 1216 1206 l 1,0,-1
EndSplineSet
Substitution2: "'c2sc' Capitals to Small Capitals lookup 0 subtable" T.smcp
Position2: "'cpsp' Capital Spacing lookup 0 subtable" dx=36 dy=0 dh=72 dv=0
EndChar

StartChar: T.smcp
Encoding: 65674 -1 238
Width: 1097
GlyphClass: 2
Flags: W
AnchorPoint: "Anchor-1" 531 3 basechar 0
AnchorPoint: "Anchor-0" 530 1320 basechar 0
LayerCount: 2
Fore
SplineSet
1061 1165 m 1,0,-1
 1061 956 l 1,1,-1
 677 956 l 1,2,-1
 677 0 l 1,3,-1
 412 0 l 1,4,-1
 412 956 l 1,5,-1
 35 956 l 1,6,-1
 35 1165 l 1,7,-1
 1061 1165 l 1,0,-1
EndSplineSet
EndChar

StartChar: Tbar
Encoding: 358 358 239
Width: 1259
VWidth: 1798
GlyphClass: 2
Flags: W
AnchorPoint: "Anchor-1" 614 -250 basechar 0
AnchorPoint: "Anchor-0" 612 1350 basechar 0
LayerCount: 2
Fore
SplineSet
958 693 m 1,0,-1
 958 520 l 1,1,-1
 764 520 l 1,2,-1
 764 -250 l 1,3,-1
 490 -250 l 1,4,-1
 490 520 l 1,5,-1
 272 520 l 1,6,-1
 272 693 l 1,7,-1
 490 693 l 1,8,-1
 490 989 l 1,9,-1
 43 989 l 1,10,-1
 43 1206 l 1,11,-1
 1216 1206 l 1,12,-1
 1216 989 l 1,13,-1
 764 989 l 1,14,-1
 764 693 l 1,15,-1
 958 693 l 1,0,-1
EndSplineSet
Substitution2: "'c2sc' Capitals to Small Capitals lookup 0 subtable" Tbar.smcp
Position2: "'cpsp' Capital Spacing lookup 0 subtable" dx=36 dy=0 dh=72 dv=0
EndChar

StartChar: Thorn
Encoding: 222 222 244
Width: 1239
VWidth: 1798
GlyphClass: 2
Flags: W
LayerCount: 2
Fore
SplineSet
141 1206 m 1,0,-1
 406 1206 l 1,1,-1
 406 931 l 1,2,-1
 643 931 l 2,3,4
 813 931 813 931 930 874 c 128,-1,5
 1047 817 1047 817 1107.5 717 c 128,-1,6
 1168 617 1168 617 1168 488 c 0,7,8
 1168 360 1168 360 1107.5 259.5 c 128,-1,9
 1047 159 1047 159 930 102 c 128,-1,10
 813 45 813 45 643 45 c 2,11,-1
 406 45 l 1,12,-1
 406 -250 l 1,13,-1
 141 -250 l 1,14,-1
 141 1206 l 1,0,-1
643 723 m 2,15,-1
 406 723 l 1,16,-1
 406 253 l 1,17,-1
 643 253 l 2,18,19
 736 253 736 253 793 286.5 c 128,-1,20
 850 320 850 320 876.5 373.5 c 128,-1,21
 903 427 903 427 903 486 c 0,22,23
 903 547 903 547 876.5 601 c 128,-1,24
 850 655 850 655 793 689 c 128,-1,25
 736 723 736 723 643 723 c 2,15,-1
EndSplineSet
Substitution2: "'c2sc' Capitals to Small Capitals lookup 0 subtable" Thorn.smcp
Position2: "'cpsp' Capital Spacing lookup 0 subtable" dx=36 dy=0 dh=72 dv=0
EndChar

StartChar: Thorn.smcp
Encoding: 65678 -1 245
Width: 1037
GlyphClass: 2
Flags: W
AnchorPoint: "Anchor-1" 450 10 basechar 0
AnchorPoint: "Anchor-0" 526 1320 basechar 0
LayerCount: 2
Fore
SplineSet
109 0 m 1,0,-1
 109 1165 l 1,1,-1
 374 1165 l 1,2,-1
 374 990 l 1,3,-1
 515 990 l 2,4,5
 664 990 664 990 769.5 940.5 c 128,-1,6
 875 891 875 891 931.5 805 c 128,-1,7
 988 719 988 719 988 608 c 0,8,9
 988 435 988 435 863 330 c 128,-1,10
 738 225 738 225 515 225 c 2,11,-1
 374 225 l 1,12,-1
 374 0 l 1,13,-1
 109 0 l 1,0,-1
515 781 m 2,14,-1
 374 781 l 1,15,-1
 374 434 l 1,16,-1
 515 434 l 2,17,18
 623 434 623 434 673.5 483 c 128,-1,19
 724 532 724 532 724 606 c 0,20,21
 724 676 724 676 673.5 728.5 c 128,-1,22
 623 781 623 781 515 781 c 2,14,-1
EndSplineSet
EndChar

StartChar: U
Encoding: 85 85 246
Width: 1345
VWidth: 1798
GlyphClass: 2
Flags: W
AnchorPoint: "Anchor-1" 666 -250 basechar 0
AnchorPoint: "Anchor-0" 667 1351 basechar 0
LayerCount: 2
Fore
SplineSet
949 1206 m 1,0,-1
 1224 1206 l 1,1,-1
 1224 239 l 2,2,3
 1224 72 1224 72 1152 -41.5 c 128,-1,4
 1080 -155 1080 -155 956 -212.5 c 128,-1,5
 832 -270 832 -270 674 -270 c 0,6,7
 514 -270 514 -270 389 -212.5 c 128,-1,8
 264 -155 264 -155 193 -41.5 c 128,-1,9
 122 72 122 72 122 239 c 2,10,-1
 122 1206 l 1,11,-1
 397 1206 l 1,12,-1
 397 239 l 2,13,14
 397 87 397 87 472 16.5 c 128,-1,15
 547 -54 547 -54 674 -54 c 0,16,17
 803 -54 803 -54 876 16.5 c 128,-1,18
 949 87 949 87 949 239 c 2,19,-1
 949 1206 l 1,0,-1
EndSplineSet
Substitution2: "'unic' Unicase lookup 2 subtable" U.unic
Substitution2: "'c2sc' Capitals to Small Capitals lookup 0 subtable" U.smcp
Position2: "'cpsp' Capital Spacing lookup 0 subtable" dx=36 dy=0 dh=72 dv=0
EndChar

StartChar: U.smcp
Encoding: 65679 -1 247
Width: 1165
GlyphClass: 2
Flags: W
AnchorPoint: "Anchor-1" 574 0 basechar 0
AnchorPoint: "Anchor-0" 576 1320 basechar 0
LayerCount: 2
Fore
SplineSet
799 1165 m 1,0,-1
 1065 1165 l 1,1,-1
 1065 402 l 2,2,3
 1065 266 1065 266 1003.5 173 c 128,-1,4
 942 80 942 80 833.5 32 c 128,-1,5
 725 -16 725 -16 583 -16 c 256,6,7
 441 -16 441 -16 332 32 c 128,-1,8
 223 80 223 80 161.5 173 c 128,-1,9
 100 266 100 266 100 402 c 2,10,-1
 100 1165 l 1,11,-1
 364 1165 l 1,12,-1
 364 402 l 2,13,14
 364 292 364 292 422.5 241.5 c 128,-1,15
 481 191 481 191 583 191 c 0,16,17
 686 191 686 191 742.5 241.5 c 128,-1,18
 799 292 799 292 799 402 c 2,19,-1
 799 1165 l 1,0,-1
EndSplineSet
EndChar

StartChar: U.unic
Encoding: 65680 -1 248
Width: 1450
GlyphClass: 2
Flags: W
AnchorPoint: "Anchor-1" 721 0 basechar 0
AnchorPoint: "Anchor-0" 722 1632 basechar 0
LayerCount: 2
Fore
SplineSet
1050 0 m 1,0,-1
 1039 159 l 1,1,2
 961 75 961 75 849 27.5 c 128,-1,3
 737 -20 737 -20 602 -20 c 0,4,5
 461 -20 461 -20 357 32 c 128,-1,6
 253 84 253 84 196 198.5 c 128,-1,7
 139 313 139 313 139 502 c 2,8,-1
 139 1456 l 1,9,-1
 414 1456 l 1,10,-1
 414 526 l 2,11,12
 414 348 414 348 489.5 278.5 c 128,-1,13
 565 209 565 209 686 209 c 0,14,15
 760 209 760 209 830.5 241 c 128,-1,16
 901 273 901 273 955 330 c 128,-1,17
 1009 387 1009 387 1034 462 c 1,18,-1
 1034 1456 l 1,19,-1
 1309 1456 l 1,20,-1
 1309 0 l 1,21,-1
 1050 0 l 1,0,-1
EndSplineSet
EndChar

StartChar: Uhorn
Encoding: 431 431 263
Width: 1451
VWidth: 1798
GlyphClass: 2
Flags: W
AnchorPoint: "Anchor-1" 692 -259 basechar 0
AnchorPoint: "Anchor-0" 694 1362 basechar 0
LayerCount: 2
Fore
SplineSet
949 1206 m 1,0,-1
 1224 1206 l 1,1,-1
 1224 983 l 1,2,3
 1311 990 1311 990 1354 1028 c 128,-1,4
 1397 1066 1397 1066 1410.5 1131 c 128,-1,5
 1424 1196 1424 1196 1424 1287 c 1,6,-1
 1607 1287 l 1,7,8
 1607 1077 1607 1077 1524 960 c 128,-1,9
 1441 843 1441 843 1224 833 c 1,10,-1
 1224 239 l 2,11,12
 1224 72 1224 72 1152 -41.5 c 128,-1,13
 1080 -155 1080 -155 956 -212.5 c 128,-1,14
 832 -270 832 -270 674 -270 c 0,15,16
 514 -270 514 -270 389 -212.5 c 128,-1,17
 264 -155 264 -155 193 -41.5 c 128,-1,18
 122 72 122 72 122 239 c 2,19,-1
 122 1206 l 1,20,-1
 397 1206 l 1,21,-1
 397 239 l 2,22,23
 397 87 397 87 472 16.5 c 128,-1,24
 547 -54 547 -54 674 -54 c 0,25,26
 803 -54 803 -54 876 16.5 c 128,-1,27
 949 87 949 87 949 239 c 2,28,-1
 949 1206 l 1,0,-1
EndSplineSet
EndChar

StartChar: Uogonek
Encoding: 370 370 270
Width: 1345
VWidth: 1798
GlyphClass: 2
Flags: W
AnchorPoint: "Anchor-1" 666 -250 basechar 0
AnchorPoint: "Anchor-0" 667 1351 basechar 0
LayerCount: 2
Fore
SplineSet
949 1206 m 1,0,-1
 1224 1206 l 1,1,-1
 1224 239 l 2,2,3
 1224 78 1224 78 1156.5 -33 c 128,-1,4
 1089 -144 1089 -144 975 -203 c 1,5,6
 912 -244 912 -244 876.5 -285.5 c 128,-1,7
 841 -327 841 -327 841 -379 c 0,8,9
 841 -409 841 -409 856 -428 c 128,-1,10
 871 -447 871 -447 909 -447 c 0,11,12
 938 -447 938 -447 958.5 -439 c 128,-1,13
 979 -431 979 -431 993 -424 c 1,14,-1
 1020 -570 l 1,15,16
 995 -585 995 -585 955.5 -599.5 c 128,-1,17
 916 -614 916 -614 856 -614 c 0,18,19
 765 -614 765 -614 701.5 -562.5 c 128,-1,20
 638 -511 638 -511 638 -411 c 0,21,22
 638 -375 638 -375 648.5 -339.5 c 128,-1,23
 659 -304 659 -304 682 -270 c 1,24,25
 678 -270 678 -270 674 -270 c 0,26,27
 514 -270 514 -270 389 -212.5 c 128,-1,28
 264 -155 264 -155 193 -41.5 c 128,-1,29
 122 72 122 72 122 239 c 2,30,-1
 122 1206 l 1,31,-1
 397 1206 l 1,32,-1
 397 239 l 2,33,34
 397 87 397 87 472 16.5 c 128,-1,35
 547 -54 547 -54 674 -54 c 0,36,37
 803 -54 803 -54 876 16.5 c 128,-1,38
 949 87 949 87 949 239 c 2,39,-1
 949 1206 l 1,0,-1
EndSplineSet
Substitution2: "'unic' Unicase lookup 2 subtable" Uogonek.unic
Substitution2: "'c2sc' Capitals to Small Capitals lookup 0 subtable" Uogonek.smcp
Position2: "'cpsp' Capital Spacing lookup 0 subtable" dx=36 dy=0 dh=72 dv=0
EndChar

StartChar: Uogonek.smcp
Encoding: 65694 -1 271
Width: 1165
GlyphClass: 2
Flags: W
AnchorPoint: "Anchor-1" 574 0 basechar 0
AnchorPoint: "Anchor-0" 576 1320 basechar 0
LayerCount: 2
Fore
SplineSet
799 1165 m 1,0,-1
 1065 1165 l 1,1,-1
 1065 402 l 2,2,3
 1065 259 1065 259 996.5 163 c 128,-1,4
 928 67 928 67 811 22 c 1,5,6
 759 -14 759 -14 729.5 -52 c 128,-1,7
 700 -90 700 -90 700 -137 c 0,8,9
 700 -167 700 -167 715.5 -186 c 128,-1,10
 731 -205 731 -205 769 -205 c 0,11,12
 798 -205 798 -205 818.5 -197 c 128,-1,13
 839 -189 839 -189 853 -182 c 1,14,-1
 880 -328 l 1,15,16
 855 -343 855 -343 815.5 -357.5 c 128,-1,17
 776 -372 776 -372 716 -372 c 0,18,19
 625 -372 625 -372 561.5 -320.5 c 128,-1,20
 498 -269 498 -269 498 -169 c 0,21,22
 498 -130 498 -130 510.5 -91 c 128,-1,23
 523 -52 523 -52 552 -15 c 1,24,25
 351 -8 351 -8 225.5 99 c 128,-1,26
 100 206 100 206 100 402 c 2,27,-1
 100 1165 l 1,28,-1
 364 1165 l 1,29,-1
 364 402 l 2,30,31
 364 292 364 292 422.5 241.5 c 128,-1,32
 481 191 481 191 583 191 c 0,33,34
 686 191 686 191 742.5 241.5 c 128,-1,35
 799 292 799 292 799 402 c 2,36,-1
 799 1165 l 1,0,-1
EndSplineSet
EndChar

StartChar: V
Encoding: 86 86 279
Width: 1330
VWidth: 1798
GlyphClass: 2
Flags: W
AnchorPoint: "Anchor-1" 655 -240 basechar 0
AnchorPoint: "Anchor-0" 655 1362 basechar 0
LayerCount: 2
Fore
SplineSet
316 1206 m 1,0,-1
 664 77 l 1,1,-1
 1014 1206 l 1,2,-1
 1319 1206 l 1,3,-1
 805 -250 l 1,4,-1
 524 -250 l 1,5,-1
 12 1206 l 1,6,-1
 316 1206 l 1,0,-1
EndSplineSet
Substitution2: "'c2sc' Capitals to Small Capitals lookup 0 subtable" V.smcp
Position2: "'cpsp' Capital Spacing lookup 0 subtable" dx=36 dy=0 dh=72 dv=0
EndChar

StartChar: V.smcp
Encoding: 65700 -1 280
Width: 1152
GlyphClass: 2
Flags: W
AnchorPoint: "Anchor-1" 561 10 basechar 0
AnchorPoint: "Anchor-0" 561 1320 basechar 0
LayerCount: 2
Fore
SplineSet
588 307 m 1,0,-1
 870 1165 l 1,1,-1
 1149 1165 l 1,2,-1
 716 0 l 1,3,-1
 434 0 l 1,4,-1
 3 1165 l 1,5,-1
 283 1165 l 1,6,-1
 560 310 l 1,7,-1
 575 245 l 1,8,-1
 588 307 l 1,0,-1
EndSplineSet
EndChar

StartChar: W
Encoding: 87 87 281
Width: 1798
VWidth: 1798
GlyphClass: 2
Flags: W
AnchorPoint: "Anchor-1" 922 -240 basechar 0
AnchorPoint: "Anchor-0" 924 1351 basechar 0
LayerCount: 2
Fore
SplineSet
314 1206 m 1,0,-1
 528 153 l 1,1,-1
 787 1206 l 1,2,-1
 1019 1206 l 1,3,-1
 1278 152 l 1,4,-1
 1489 1206 l 1,5,-1
 1763 1206 l 1,6,-1
 1433 -250 l 1,7,-1
 1160 -250 l 1,8,-1
 903 757 l 1,9,-1
 644 -250 l 1,10,-1
 371 -250 l 1,11,-1
 41 1206 l 1,12,-1
 314 1206 l 1,0,-1
EndSplineSet
Substitution2: "'c2sc' Capitals to Small Capitals lookup 0 subtable" W.smcp
Position2: "'cpsp' Capital Spacing lookup 0 subtable" dx=36 dy=0 dh=72 dv=0
EndChar

StartChar: W.smcp
Encoding: 65701 -1 282
Width: 1539
GlyphClass: 2
Flags: W
AnchorPoint: "Anchor-1" 786 10 basechar 0
AnchorPoint: "Anchor-0" 786 1320 basechar 0
LayerCount: 2
Fore
SplineSet
292 1165 m 1,0,-1
 455 340 l 1,1,-1
 653 1165 l 1,2,-1
 887 1165 l 1,3,-1
 1086 341 l 1,4,-1
 1249 1165 l 1,5,-1
 1504 1165 l 1,6,-1
 1229 0 l 1,7,-1
 967 0 l 1,8,-1
 769 780 l 1,9,-1
 574 0 l 1,10,-1
 311 0 l 1,11,-1
 35 1165 l 1,12,-1
 292 1165 l 1,0,-1
EndSplineSet
EndChar

StartChar: X
Encoding: 88 88 289
Width: 1297
VWidth: 1798
GlyphClass: 2
Flags: W
AnchorPoint: "Anchor-1" 645 -240 basechar 0
AnchorPoint: "Anchor-0" 653 1362 basechar 0
LayerCount: 2
Fore
SplineSet
358 1206 m 1,0,-1
 649 687 l 1,1,-1
 941 1206 l 1,2,-1
 1257 1206 l 1,3,-1
 825 484 l 1,4,-1
 1268 -250 l 1,5,-1
 949 -250 l 1,6,-1
 649 279 l 1,7,-1
 350 -250 l 1,8,-1
 30 -250 l 1,9,-1
 473 484 l 1,10,-1
 41 1206 l 1,11,-1
 358 1206 l 1,0,-1
EndSplineSet
Substitution2: "'c2sc' Capitals to Small Capitals lookup 0 subtable" X.smcp
Position2: "'cpsp' Capital Spacing lookup 0 subtable" dx=36 dy=0 dh=72 dv=0
EndChar

StartChar: X.smcp
Encoding: 65707 -1 290
Width: 1119
GlyphClass: 2
Flags: W
AnchorPoint: "Anchor-1" 550 8 basechar 0
AnchorPoint: "Anchor-0" 550 1320 basechar 0
LayerCount: 2
Fore
SplineSet
326 1165 m 1,0,-1
 548 771 l 1,1,-1
 774 1165 l 1,2,-1
 1081 1165 l 1,3,-1
 715 587 l 1,4,-1
 1106 0 l 1,5,-1
 792 0 l 1,6,-1
 552 401 l 1,7,-1
 318 0 l 1,8,-1
 11 0 l 1,9,-1
 388 587 l 1,10,-1
 20 1165 l 1,11,-1
 326 1165 l 1,0,-1
EndSplineSet
EndChar

StartChar: Y
Encoding: 89 89 291
Width: 1259
VWidth: 1798
GlyphClass: 2
Flags: W
AnchorPoint: "Anchor-1" 615 -249 basechar 0
AnchorPoint: "Anchor-0" 618 1350 basechar 0
LayerCount: 2
Fore
SplineSet
309 1206 m 1,0,-1
 629 527 l 1,1,-1
 951 1206 l 1,2,-1
 1253 1206 l 1,3,-1
 769 283 l 1,4,-1
 769 -250 l 1,5,-1
 490 -250 l 1,6,-1
 490 283 l 1,7,-1
 5 1206 l 1,8,-1
 309 1206 l 1,0,-1
EndSplineSet
Substitution2: "'c2sc' Capitals to Small Capitals lookup 0 subtable" Y.smcp
Position2: "'cpsp' Capital Spacing lookup 0 subtable" dx=36 dy=0 dh=72 dv=0
EndChar

StartChar: Y.smcp
Encoding: 65708 -1 292
Width: 1095
GlyphClass: 2
Flags: W
AnchorPoint: "Anchor-1" 533 10 basechar 0
AnchorPoint: "Anchor-0" 533 1320 basechar 0
LayerCount: 2
Fore
SplineSet
290 1165 m 1,0,-1
 547 645 l 1,1,-1
 804 1165 l 1,2,-1
 1092 1165 l 1,3,-1
 676 408 l 1,4,-1
 676 0 l 1,5,-1
 411 0 l 1,6,-1
 411 420 l 1,7,-1
 2 1165 l 1,8,-1
 290 1165 l 1,0,-1
EndSplineSet
EndChar

StartChar: Z
Encoding: 90 90 301
Width: 1239
VWidth: 1798
GlyphClass: 2
Flags: W
AnchorPoint: "Anchor-1" 613 -240 basechar 0
AnchorPoint: "Anchor-0" 616 1351 basechar 0
LayerCount: 2
Fore
SplineSet
1175 -34 m 1,0,-1
 1175 -250 l 1,1,-1
 77 -250 l 1,2,-1
 77 -85 l 1,3,-1
 821 989 l 1,4,-1
 80 989 l 1,5,-1
 80 1206 l 1,6,-1
 1156 1206 l 1,7,-1
 1156 1045 l 1,8,-1
 414 -34 l 1,9,-1
 1175 -34 l 1,0,-1
EndSplineSet
Substitution2: "'c2sc' Capitals to Small Capitals lookup 0 subtable" Z.smcp
Position2: "'cpsp' Capital Spacing lookup 0 subtable" dx=36 dy=0 dh=72 dv=0
EndChar

StartChar: Z.smcp
Encoding: 65714 -1 302
Width: 1070
GlyphClass: 2
Flags: W
AnchorPoint: "Anchor-1" 533 10 basechar 0
AnchorPoint: "Anchor-0" 533 1320 basechar 0
LayerCount: 2
Fore
SplineSet
1021 208 m 1,0,-1
 1021 0 l 1,1,-1
 62 0 l 1,2,-1
 62 143 l 1,3,-1
 672 957 l 1,4,-1
 62 957 l 1,5,-1
 62 1165 l 1,6,-1
 1009 1165 l 1,7,-1
 1009 1026 l 1,8,-1
 405 208 l 1,9,-1
 1021 208 l 1,0,-1
EndSplineSet
EndChar

StartChar: a
Encoding: 97 97 309
Width: 1100
VWidth: 1798
GlyphClass: 2
Flags: W
AnchorPoint: "Anchor-1" 502 -250 basechar 0
AnchorPoint: "Anchor-0" 582 1040 basechar 0
LayerCount: 2
Fore
SplineSet
754 -250 m 1,0,1
 735 -211 735 -211 725 -146 c 1,2,3
 680 -197 680 -197 610.5 -233.5 c 128,-1,4
 541 -270 541 -270 443 -270 c 0,5,6
 338 -270 338 -270 255 -228 c 128,-1,7
 172 -186 172 -186 124 -113 c 128,-1,8
 76 -40 76 -40 76 53 c 0,9,10
 76 223 76 223 203.5 316 c 128,-1,11
 331 409 331 409 574 409 c 2,12,-1
 715 409 l 1,13,-1
 715 479 l 2,14,15
 715 561 715 561 672 609.5 c 128,-1,16
 629 658 629 658 539 658 c 0,17,18
 459 658 459 658 412 618 c 128,-1,19
 365 578 365 578 365 515 c 1,20,-1
 100 515 l 1,21,22
 100 605 100 605 156 681.5 c 128,-1,23
 212 758 212 758 314 805 c 128,-1,24
 416 852 416 852 554 852 c 0,25,26
 677 852 677 852 773.5 810.5 c 128,-1,27
 870 769 870 769 925.5 685.5 c 128,-1,28
 981 602 981 602 981 477 c 2,29,-1
 981 5 l 2,30,31
 981 -150 981 -150 1023 -233 c 1,32,-1
 1023 -250 l 1,33,-1
 754 -250 l 1,0,1
497 -67 m 0,34,35
 577 -67 577 -67 634 -29.5 c 128,-1,36
 691 8 691 8 715 54 c 1,37,-1
 715 252 l 1,38,-1
 587 252 l 2,39,40
 462 252 462 252 401.5 203 c 128,-1,41
 341 154 341 154 341 74 c 0,42,43
 341 13 341 13 382.5 -27 c 128,-1,44
 424 -67 424 -67 497 -67 c 0,34,35
EndSplineSet
Substitution2: "'unic' Unicase lookup 2 subtable" A.unic
Substitution2: "'smcp' Lowercase to Small Capitals lookup 1 subtable" A.smcp
EndChar

StartChar: acute
Encoding: 180 180 313
Width: 668
VWidth: 1798
GlyphClass: 2
Flags: W
LayerCount: 2
Fore
SplineSet
106 982 m 1,0,-1
 302 1286 l 1,1,-1
 594 1286 l 1,2,-1
 321 982 l 1,3,-1
 106 982 l 1,0,-1
EndSplineSet
EndChar

StartChar: acutecomb
Encoding: 769 769 314
Width: 0
VWidth: 1798
GlyphClass: 4
Flags: W
AnchorPoint: "Anchor-3" -566 1391 basemark 0
AnchorPoint: "Anchor-3" -566 1040 mark 0
AnchorPoint: "Anchor-0" -566 1040 mark 0
LayerCount: 2
Fore
SplineSet
-675 982 m 1,0,-1
 -479 1286 l 1,1,-1
 -187 1286 l 1,2,-1
 -460 982 l 1,3,-1
 -675 982 l 1,0,-1
EndSplineSet
EndChar

StartChar: ae
Encoding: 230 230 316
Width: 1730
VWidth: 1798
GlyphClass: 2
Flags: W
AnchorPoint: "Anchor-0" 859 1041 basechar 0
LayerCount: 2
Fore
SplineSet
1250 -270 m 0,0,1
 1122 -270 1122 -270 1024.5 -229 c 128,-1,2
 927 -188 927 -188 862 -116 c 1,3,4
 808 -176 808 -176 708.5 -223 c 128,-1,5
 609 -270 609 -270 461 -270 c 0,6,7
 271 -270 271 -270 170.5 -179 c 128,-1,8
 70 -88 70 -88 70 64 c 0,9,10
 70 222 70 222 193.5 309 c 128,-1,11
 317 396 317 396 555 396 c 2,12,-1
 732 396 l 1,13,-1
 732 460 l 2,14,15
 732 546 732 546 688 595 c 128,-1,16
 644 644 644 644 561 644 c 0,17,18
 470 644 470 644 418.5 601.5 c 128,-1,19
 367 559 367 559 367 500 c 1,20,-1
 103 518 l 1,21,22
 103 615 103 615 160 690 c 128,-1,23
 217 765 217 765 320.5 808.5 c 128,-1,24
 424 852 424 852 563 852 c 0,25,26
 782 852 782 852 894 732 c 1,27,28
 955 790 955 790 1038 821.5 c 128,-1,29
 1121 853 1121 853 1223 852 c 0,30,31
 1437 852 1437 852 1555.5 720.5 c 128,-1,32
 1674 589 1674 589 1674 364 c 2,33,-1
 1674 215 l 1,34,-1
 992 215 l 1,35,36
 1001 96 1001 96 1067.5 17 c 128,-1,37
 1134 -62 1134 -62 1274 -62 c 0,38,39
 1381 -62 1381 -62 1449 -34.5 c 128,-1,40
 1517 -7 1517 -7 1573 24 c 1,41,-1
 1647 -149 l 1,42,43
 1599 -186 1599 -186 1496 -228 c 128,-1,44
 1393 -270 1393 -270 1250 -270 c 0,0,1
1223 644 m 0,45,46
 1119 644 1119 644 1064 573.5 c 128,-1,47
 1009 503 1009 503 996 393 c 1,48,-1
 1413 393 l 1,49,-1
 1413 422 l 2,50,51
 1413 518 1413 518 1368 581 c 128,-1,52
 1323 644 1323 644 1223 644 c 0,45,46
511 -77 m 0,53,54
 570 -77 570 -77 631 -49.5 c 128,-1,55
 692 -22 692 -22 732 15 c 1,56,-1
 732 222 l 1,57,-1
 557 222 l 2,58,59
 447 222 447 222 391 173.5 c 128,-1,60
 335 125 335 125 335 60 c 0,61,62
 335 0 335 0 378 -38.5 c 128,-1,63
 421 -77 421 -77 511 -77 c 0,53,54
EndSplineSet
Substitution2: "'unic' Unicase lookup 2 subtable" AE
Substitution2: "'smcp' Lowercase to Small Capitals lookup 1 subtable" AE.smcp
EndChar

StartChar: afii57636
Encoding: 8362 8362 321
Width: 1739
GlyphClass: 2
Flags: W
LayerCount: 2
Fore
SplineSet
118 1082 m 1,0,-1
 825 1082 l 2,1,2
 1025 1082 1025 1082 1111.5 985 c 128,-1,3
 1198 888 1198 888 1198 673 c 2,4,-1
 1198 360 l 1,5,-1
 932 360 l 1,6,-1
 932 674 l 2,7,8
 932 797 932 797 880.5 835.5 c 128,-1,9
 829 874 829 874 740 874 c 2,10,-1
 383 874 l 1,11,-1
 383 0 l 1,12,-1
 118 0 l 1,13,-1
 118 1082 l 1,0,-1
1096 0 m 2,14,-1
 541 0 l 1,15,-1
 541 724 l 1,16,-1
 806 724 l 1,17,-1
 806 208 l 1,18,-1
 1163 208 l 2,19,20
 1252 208 1252 208 1304 246.5 c 128,-1,21
 1356 285 1356 285 1356 408 c 2,22,-1
 1356 1082 l 1,23,-1
 1621 1082 l 1,24,-1
 1621 409 l 2,25,26
 1621 266 1621 266 1545 175.5 c 128,-1,27
 1469 85 1469 85 1349 42.5 c 128,-1,28
 1229 0 1229 0 1096 0 c 2,14,-1
EndSplineSet
EndChar

StartChar: ampersand
Encoding: 38 38 325
Width: 1330
VWidth: 1798
GlyphClass: 2
Flags: W
LayerCount: 2
Fore
SplineSet
1006 -250 m 1,0,-1
 925 -156 l 1,1,2
 763 -271 763 -271 551 -271 c 0,3,4
 405 -271 405 -271 299 -218 c 128,-1,5
 193 -165 193 -165 135.5 -72 c 128,-1,6
 78 21 78 21 78 141 c 0,7,8
 78 270 78 270 152.5 356 c 128,-1,9
 227 442 227 442 345 528 c 1,10,11
 279 615 279 615 240.5 692 c 128,-1,12
 202 769 202 769 202 853 c 0,13,14
 202 1024 202 1024 308.5 1125.5 c 128,-1,15
 415 1227 415 1227 591 1227 c 0,16,17
 703 1227 703 1227 785 1181.5 c 128,-1,18
 867 1136 867 1136 911.5 1061 c 128,-1,19
 956 986 956 986 956 897 c 0,20,21
 956 794 956 794 901 716.5 c 128,-1,22
 846 639 846 639 760 577 c 2,23,-1
 663 507 l 1,24,-1
 935 188 l 1,25,26
 964 244 964 244 980 310 c 128,-1,27
 996 376 996 376 996 451 c 1,28,-1
 1222 451 l 1,29,30
 1222 321 1222 321 1191.5 207.5 c 128,-1,31
 1161 94 1161 94 1092 3 c 1,32,-1
 1308 -250 l 1,33,-1
 1006 -250 l 1,0,-1
443 858 m 0,34,35
 443 810 443 810 469.5 760.5 c 128,-1,36
 496 711 496 711 539 655 c 1,37,-1
 622 710 l 2,38,39
 685 751 685 751 709 791 c 128,-1,40
 733 831 733 831 733 885 c 0,41,42
 733 935 733 935 695.5 977 c 128,-1,43
 658 1019 658 1019 590 1019 c 0,44,45
 517 1019 517 1019 480 971 c 128,-1,46
 443 923 443 923 443 858 c 0,34,35
343 153 m 0,47,48
 343 62 343 62 401.5 0 c 128,-1,49
 460 -62 460 -62 563 -62 c 0,50,51
 679 -62 679 -62 783 10 c 1,52,-1
 473 371 l 1,53,-1
 448 353 l 1,54,55
 380 295 380 295 361.5 243.5 c 128,-1,56
 343 192 343 192 343 153 c 0,47,48
EndSplineSet
Substitution2: "'smcp' Lowercase to Small Capitals lookup 1 subtable" ampersand.smcp
Substitution2: "'c2sc' Capitals to Small Capitals lookup 0 subtable" ampersand.smcp
Position2: "'cpsp' Capital Spacing lookup 0 subtable" dx=36 dy=0 dh=72 dv=0
EndChar

StartChar: ampersand.smcp
Encoding: 65718 -1 326
Width: 1315
GlyphClass: 2
Flags: W
LayerCount: 2
Fore
SplineSet
523 -19 m 0,0,1
 324 -19 324 -19 207.5 69 c 128,-1,2
 91 157 91 157 91 290 c 0,3,4
 91 391 91 391 145.5 457.5 c 128,-1,5
 200 524 200 524 295 586 c 2,6,-1
 337 614 l 1,7,8
 268 685 268 685 226 749 c 128,-1,9
 184 813 184 813 184 902 c 0,10,11
 184 1016 184 1016 275.5 1098.5 c 128,-1,12
 367 1181 367 1181 530 1181 c 0,13,14
 691 1181 691 1181 787 1100 c 128,-1,15
 883 1019 883 1019 883 891 c 0,16,17
 883 812 883 812 834.5 746 c 128,-1,18
 786 680 786 680 715 633 c 2,19,-1
 649 588 l 1,20,-1
 875 359 l 1,21,22
 931 451 931 451 931 575 c 1,23,-1
 1159 575 l 1,24,25
 1159 458 1159 458 1124 366 c 128,-1,26
 1089 274 1089 274 1029 204 c 1,27,-1
 1231 0 l 1,28,-1
 941 0 l 1,29,-1
 872 70 l 1,30,31
 718 -19 718 -19 523 -19 c 0,0,1
416 878 m 0,32,33
 416 840 416 840 442 805 c 128,-1,34
 468 770 468 770 509 728 c 1,35,-1
 557 760 l 2,36,37
 612 795 612 795 630.5 824.5 c 128,-1,38
 649 854 649 854 649 885 c 0,39,40
 649 923 649 923 618 952.5 c 128,-1,41
 587 982 587 982 531 982 c 0,42,43
 474 982 474 982 445 950.5 c 128,-1,44
 416 919 416 919 416 878 c 0,32,33
355 319 m 0,45,46
 355 261 355 261 400 225 c 128,-1,47
 445 189 445 189 530 189 c 0,48,49
 636 189 636 189 720 225 c 1,50,-1
 477 472 l 1,51,-1
 432 442 l 2,52,53
 385 410 385 410 370 378 c 128,-1,54
 355 346 355 346 355 319 c 0,45,46
EndSplineSet
EndChar

StartChar: aogonek
Encoding: 261 261 327
Width: 1100
VWidth: 1798
GlyphClass: 2
Flags: W
AnchorPoint: "Anchor-1" 502 -250 basechar 0
AnchorPoint: "Anchor-0" 582 1040 basechar 0
LayerCount: 2
Fore
SplineSet
1000 -631 m 1,0,1
 975 -646 975 -646 935.5 -660.5 c 128,-1,2
 896 -675 896 -675 836 -675 c 0,3,4
 745 -675 745 -675 681.5 -623.5 c 128,-1,5
 618 -572 618 -572 618 -472 c 0,6,7
 618 -412 618 -412 648 -354 c 128,-1,8
 678 -296 678 -296 751 -244 c 1,9,10
 735 -206 735 -206 725 -146 c 1,11,12
 680 -197 680 -197 610.5 -233.5 c 128,-1,13
 541 -270 541 -270 443 -270 c 0,14,15
 338 -270 338 -270 255 -228 c 128,-1,16
 172 -186 172 -186 124 -113 c 128,-1,17
 76 -40 76 -40 76 53 c 0,18,19
 76 223 76 223 203.5 316 c 128,-1,20
 331 409 331 409 574 409 c 2,21,-1
 715 409 l 1,22,-1
 715 479 l 2,23,24
 715 561 715 561 672 609.5 c 128,-1,25
 629 658 629 658 539 658 c 0,26,27
 459 658 459 658 412 618 c 128,-1,28
 365 578 365 578 365 515 c 1,29,-1
 100 515 l 1,30,31
 100 605 100 605 156 681.5 c 128,-1,32
 212 758 212 758 314 805 c 128,-1,33
 416 852 416 852 554 852 c 0,34,35
 677 852 677 852 773.5 810.5 c 128,-1,36
 870 769 870 769 925.5 685.5 c 128,-1,37
 981 602 981 602 981 477 c 2,38,-1
 981 5 l 2,39,40
 981 -150 981 -150 1023 -233 c 1,41,-1
 1023 -250 l 1,42,-1
 978 -250 l 1,43,44
 905 -294 905 -294 862.5 -338.5 c 128,-1,45
 820 -383 820 -383 820 -440 c 0,46,47
 820 -469 820 -469 835.5 -488 c 128,-1,48
 851 -507 851 -507 889 -507 c 0,49,50
 918 -507 918 -507 938.5 -499.5 c 128,-1,51
 959 -492 959 -492 973 -485 c 1,52,-1
 1000 -631 l 1,0,1
497 -67 m 0,53,54
 577 -67 577 -67 634 -29.5 c 128,-1,55
 691 8 691 8 715 54 c 1,56,-1
 715 252 l 1,57,-1
 587 252 l 2,58,59
 462 252 462 252 401.5 203 c 128,-1,60
 341 154 341 154 341 74 c 0,61,62
 341 13 341 13 382.5 -27 c 128,-1,63
 424 -67 424 -67 497 -67 c 0,53,54
EndSplineSet
Substitution2: "'locl' Localized Forms in Latin lookup 8 subtable" aogonek.NAV
Substitution2: "'unic' Unicase lookup 2 subtable" Aogonek.unic
Substitution2: "'smcp' Lowercase to Small Capitals lookup 1 subtable" Aogonek.smcp
EndChar

StartChar: approxequal
Encoding: 8776 8776 329
Width: 1176
GlyphClass: 2
Flags: W
LayerCount: 2
Fore
SplineSet
102 688 m 1,0,-1
 101 909 l 1,1,2
 148 959 148 959 215 988 c 128,-1,3
 282 1017 282 1017 347 1017 c 0,4,5
 427 1019 427 1019 478.5 997.5 c 128,-1,6
 530 976 530 976 593 944 c 0,7,8
 652 914 652 914 700.5 894.5 c 128,-1,9
 749 875 749 875 823 875 c 0,10,11
 888 875 888 875 947 908.5 c 128,-1,12
 1006 942 1006 942 1053 1002 c 1,13,-1
 1053 781 l 1,14,15
 1006 731 1006 731 950 702 c 128,-1,16
 894 673 894 673 829 673 c 0,17,18
 755 673 755 673 706.5 692.5 c 128,-1,19
 658 712 658 712 599 742 c 0,20,21
 536 774 536 774 484.5 795.5 c 128,-1,22
 433 817 433 817 353 815 c 0,23,24
 288 815 288 815 218.5 781.5 c 128,-1,25
 149 748 149 748 102 688 c 1,0,-1
101 270 m 1,26,-1
 101 491 l 1,27,28
 202 598 202 598 341 598 c 0,29,30
 421 600 421 600 472 578.5 c 128,-1,31
 523 557 523 557 586 525 c 0,32,33
 645 495 645 495 693.5 475.5 c 128,-1,34
 742 456 742 456 816 456 c 0,35,36
 881 456 881 456 943 490 c 128,-1,37
 1005 524 1005 524 1052 583 c 1,38,-1
 1053 362 l 1,39,40
 1006 312 1006 312 947 283 c 128,-1,41
 888 254 888 254 823 254 c 0,42,43
 749 254 749 254 700.5 273.5 c 128,-1,44
 652 293 652 293 593 323 c 0,45,46
 530 355 530 355 478.5 377 c 128,-1,47
 427 399 427 399 347 397 c 0,48,49
 282 397 282 397 215 363 c 128,-1,50
 148 329 148 329 101 270 c 1,26,-1
EndSplineSet
EndChar

StartChar: arabic_2dots
Encoding: 65720 -1 330
Width: 517
GlyphClass: 1
Flags: W
LayerCount: 2
Fore
SplineSet
425 261 m 1,0,-1
 584 102 l 1,1,-1
 425 -59 l 1,2,-1
 266 102 l 1,3,-1
 425 261 l 1,0,-1
89 261 m 1,4,-1
 249 102 l 1,5,-1
 89 -59 l 1,6,-1
 -69 102 l 1,7,-1
 89 261 l 1,4,-1
EndSplineSet
EndChar

StartChar: arabic_3dots
Encoding: 65721 -1 331
Width: 528
GlyphClass: 1
Flags: W
LayerCount: 2
Fore
SplineSet
255 472 m 1,0,-1
 406 321 l 1,1,-1
 255 169 l 1,2,-1
 104 321 l 1,3,-1
 255 472 l 1,0,-1
429 217 m 1,4,-1
 580 66 l 1,5,-1
 429 -85 l 1,6,-1
 278 66 l 1,7,-1
 429 217 l 1,4,-1
82 217 m 1,8,-1
 233 66 l 1,9,-1
 82 -85 l 1,10,-1
 -69 66 l 1,11,-1
 82 217 l 1,8,-1
EndSplineSet
EndChar

StartChar: arabic_3dots_a
Encoding: 65722 -1 332
Width: 528
GlyphClass: 1
Flags: W
LayerCount: 2
Fore
SplineSet
429 286 m 1,0,-1
 580 135 l 1,1,-1
 429 -17 l 1,2,-1
 278 135 l 1,3,-1
 429 286 l 1,0,-1
82 286 m 1,4,-1
 233 135 l 1,5,-1
 82 -17 l 1,6,-1
 -69 135 l 1,7,-1
 82 286 l 1,4,-1
255 31 m 1,8,-1
 406 -120 l 1,9,-1
 255 -271 l 1,10,-1
 104 -120 l 1,11,-1
 255 31 l 1,8,-1
EndSplineSet
EndChar

StartChar: arabic_dot
Encoding: 65723 -1 333
Width: 197
GlyphClass: 1
Flags: W
LayerCount: 2
Fore
SplineSet
96 269 m 1,0,-1
 263 102 l 1,1,-1
 96 -64 l 1,2,-1
 -70 102 l 1,3,-1
 96 269 l 1,0,-1
EndSplineSet
EndChar

StartChar: arabic_gaf_bar
Encoding: 65724 -1 334
Width: 787
GlyphClass: 1
Flags: W
LayerCount: 2
Fore
SplineSet
-63 1562 m 1,0,-1
 -63 1698 l 1,1,-1
 730 2020 l 1,2,-1
 730 1884 l 1,3,-1
 -63 1562 l 1,0,-1
EndSplineSet
EndChar

StartChar: asciicircum
Encoding: 94 94 337
Width: 888
VWidth: 1798
GlyphClass: 2
Flags: W
LayerCount: 2
Fore
SplineSet
624 479 m 1,0,-1
 444 946 l 1,1,-1
 264 479 l 1,2,-1
 49 479 l 1,3,-1
 348 1206 l 1,4,-1
 540 1206 l 1,5,-1
 839 479 l 1,6,-1
 624 479 l 1,0,-1
EndSplineSet
EndChar

StartChar: asciitilde
Encoding: 126 126 338
Width: 1342
VWidth: 1798
GlyphClass: 2
Flags: W
LayerCount: 2
Fore
SplineSet
1031 539 m 1,0,-1
 1229 539 l 1,1,2
 1229 420 1229 420 1187 328.5 c 128,-1,3
 1145 237 1145 237 1070.5 185.5 c 128,-1,4
 996 134 996 134 899 134 c 0,5,6
 817 134 817 134 753.5 167 c 128,-1,7
 690 200 690 200 616 268 c 0,8,9
 572 311 572 311 533.5 334 c 128,-1,10
 495 357 495 357 451 357 c 0,11,12
 388 357 388 357 350.5 305 c 128,-1,13
 313 253 313 253 313 171 c 1,14,-1
 112 172 l 1,15,16
 112 354 112 354 203.5 462 c 128,-1,17
 295 570 295 570 440 570 c 0,18,19
 522 570 522 570 589 535.5 c 128,-1,20
 656 501 656 501 724 436 c 0,21,22
 770 392 770 392 808 370 c 128,-1,23
 846 348 846 348 888 348 c 0,24,25
 952 348 952 348 991.5 402.5 c 128,-1,26
 1031 457 1031 457 1031 539 c 1,0,-1
EndSplineSet
EndChar

StartChar: asterisk
Encoding: 42 42 339
Width: 919
VWidth: 1798
GlyphClass: 2
Flags: W
LayerCount: 2
Fore
SplineSet
127 445 m 1,0,-1
 341 719 l 1,1,-1
 27 809 l 1,2,-1
 84 980 l 1,3,-1
 394 858 l 1,4,-1
 377 1206 l 1,5,-1
 561 1206 l 1,6,-1
 543 852 l 1,7,-1
 848 972 l 1,8,-1
 903 799 l 1,9,-1
 584 708 l 1,10,-1
 793 440 l 1,11,-1
 644 334 l 1,12,-1
 459 626 l 1,13,-1
 276 343 l 1,14,-1
 127 445 l 1,0,-1
EndSplineSet
EndChar

StartChar: at
Encoding: 64 64 340
Width: 1836
VWidth: 1798
GlyphClass: 2
Flags: W
LayerCount: 2
Fore
SplineSet
1746 278 m 0,0,1
 1742 178 1742 178 1716.5 80.5 c 128,-1,2
 1691 -17 1691 -17 1639.5 -96.5 c 128,-1,3
 1588 -176 1588 -176 1508 -223.5 c 128,-1,4
 1428 -271 1428 -271 1315 -271 c 0,5,6
 1228 -271 1228 -271 1166 -231 c 128,-1,7
 1104 -191 1104 -191 1073 -119 c 1,8,9
 971 -269 971 -269 809 -269 c 0,10,11
 663 -269 663 -269 585 -146.5 c 128,-1,12
 507 -24 507 -24 526 177 c 0,13,14
 544 349 544 349 609.5 475.5 c 128,-1,15
 675 602 675 602 773 671 c 128,-1,16
 871 740 871 740 985 740 c 0,17,18
 1098 740 1098 740 1163.5 707.5 c 128,-1,19
 1229 675 1229 675 1287 632 c 1,20,-1
 1237 61 l 2,21,22
 1229 -14 1229 -14 1245 -54 c 128,-1,23
 1261 -94 1261 -94 1290 -108.5 c 128,-1,24
 1319 -123 1319 -123 1348 -123 c 0,25,26
 1417 -123 1417 -123 1467 -70.5 c 128,-1,27
 1517 -18 1517 -18 1546 71.5 c 128,-1,28
 1575 161 1575 161 1579 272 c 0,29,30
 1590 500 1590 500 1527 667.5 c 128,-1,31
 1464 835 1464 835 1324 926.5 c 128,-1,32
 1184 1018 1184 1018 962 1018 c 0,33,34
 756 1018 756 1018 605.5 914.5 c 128,-1,35
 455 811 455 811 370 630.5 c 128,-1,36
 285 450 285 450 275 218 c 0,37,38
 258 -149 258 -149 421.5 -346.5 c 128,-1,39
 585 -544 585 -544 896 -544 c 0,40,41
 983 -544 983 -544 1073.5 -524 c 128,-1,42
 1164 -504 1164 -504 1226 -473 c 1,43,-1
 1264 -614 l 1,44,45
 1194 -659 1194 -659 1089.5 -681 c 128,-1,46
 985 -703 985 -703 892 -703 c 0,47,48
 630 -703 630 -703 447 -595 c 128,-1,49
 264 -487 264 -487 172 -281.5 c 128,-1,50
 80 -76 80 -76 91 218 c 0,51,52
 100 423 100 423 165 597 c 128,-1,53
 230 771 230 771 344 899.5 c 128,-1,54
 458 1028 458 1028 615 1099 c 128,-1,55
 772 1170 772 1170 966 1170 c 0,56,57
 1227 1170 1227 1170 1404.5 1059 c 128,-1,58
 1582 948 1582 948 1669.5 747.5 c 128,-1,59
 1757 547 1757 547 1746 278 c 0,0,1
733 177 m 0,60,61
 721 43 721 43 756.5 -29 c 128,-1,62
 792 -101 792 -101 871 -101 c 0,63,64
 912 -101 912 -101 962.5 -63.5 c 128,-1,65
 1013 -26 1013 -26 1049 76 c 1,66,-1
 1093 563 l 1,67,68
 1050 579 1050 579 1003 579 c 0,69,70
 888 579 888 579 820 476.5 c 128,-1,71
 752 374 752 374 733 177 c 0,60,61
EndSplineSet
EndChar

StartChar: b
Encoding: 98 98 342
Width: 1152
VWidth: 1798
GlyphClass: 2
Flags: W
AnchorPoint: "Anchor-1" 598 -260 basechar 0
AnchorPoint: "Anchor-0" 634 1361 basechar 0
LayerCount: 2
Fore
SplineSet
1079 302 m 2,0,-1
 1079 281 l 2,1,2
 1079 120 1079 120 1032 -4.5 c 128,-1,3
 985 -129 985 -129 891.5 -199.5 c 128,-1,4
 798 -270 798 -270 658 -270 c 0,5,6
 562 -270 562 -270 491 -233.5 c 128,-1,7
 420 -197 420 -197 370 -132 c 1,8,-1
 357 -250 l 1,9,-1
 118 -250 l 1,10,-1
 118 1286 l 1,11,-1
 383 1286 l 1,12,-1
 383 730 l 1,13,14
 432 788 432 788 499.5 820 c 128,-1,15
 567 852 567 852 656 852 c 0,16,17
 797 852 797 852 891 782 c 128,-1,18
 985 712 985 712 1032 588 c 128,-1,19
 1079 464 1079 464 1079 302 c 2,0,-1
814 281 m 2,20,-1
 814 302 l 2,21,22
 814 394 814 394 794.5 471.5 c 128,-1,23
 775 549 775 549 726.5 595.5 c 128,-1,24
 678 642 678 642 591 642 c 0,25,26
 510 642 510 642 460 607 c 128,-1,27
 410 572 410 572 383 513 c 1,28,-1
 383 69 l 1,29,30
 410 10 410 10 461 -25 c 128,-1,31
 512 -60 512 -60 593 -60 c 0,32,33
 679 -60 679 -60 727 -15 c 128,-1,34
 775 30 775 30 794.5 107 c 128,-1,35
 814 184 814 184 814 281 c 2,20,-1
EndSplineSet
Substitution2: "'unic' Unicase lookup 2 subtable" B
Substitution2: "'smcp' Lowercase to Small Capitals lookup 1 subtable" B.smcp
EndChar

StartChar: backslash
Encoding: 92 92 343
Width: 858
VWidth: 1798
GlyphClass: 2
Flags: W
LayerCount: 2
Fore
SplineSet
616 -375 m 1,0,-1
 9 1206 l 1,1,-1
 277 1206 l 1,2,-1
 885 -375 l 1,3,-1
 616 -375 l 1,0,-1
EndSplineSet
EndChar

StartChar: bar
Encoding: 124 124 344
Width: 513
VWidth: 1798
GlyphClass: 2
Flags: W
LayerCount: 2
Fore
SplineSet
341 1206 m 1,0,-1
 341 -520 l 1,1,-1
 174 -520 l 1,2,-1
 174 1206 l 1,3,-1
 341 1206 l 1,0,-1
EndSplineSet
EndChar

StartChar: braceleft
Encoding: 123 123 345
Width: 679
VWidth: 1798
GlyphClass: 2
Flags: W
LayerCount: 2
Fore
SplineSet
647 -465 m 1,0,-1
 595 -613 l 1,1,2
 459 -574 459 -574 380.5 -504.5 c 128,-1,3
 302 -435 302 -435 269.5 -343.5 c 128,-1,4
 237 -252 237 -252 237 -147 c 2,5,-1
 237 57 l 2,6,7
 237 156 237 156 193.5 214.5 c 128,-1,8
 150 273 150 273 52 273 c 1,9,-1
 52 461 l 1,10,11
 150 461 150 461 193.5 519.5 c 128,-1,12
 237 578 237 578 237 677 c 2,13,-1
 237 882 l 2,14,15
 237 987 237 987 269.5 1078.5 c 128,-1,16
 302 1170 302 1170 380.5 1239.5 c 128,-1,17
 459 1309 459 1309 595 1347 c 1,18,-1
 647 1201 l 1,19,20
 550 1167 550 1167 514.5 1080.5 c 128,-1,21
 479 994 479 994 479 882 c 2,22,-1
 479 677 l 2,23,24
 479 577 479 577 437 496 c 128,-1,25
 395 415 395 415 303 367 c 1,26,27
 395 320 395 320 437 238.5 c 128,-1,28
 479 157 479 157 479 57 c 2,29,-1
 479 -147 l 2,30,31
 479 -259 479 -259 514.5 -345 c 128,-1,32
 550 -431 550 -431 647 -465 c 1,0,-1
EndSplineSet
EndChar

StartChar: braceright
Encoding: 125 125 346
Width: 679
VWidth: 1798
GlyphClass: 2
Flags: W
LayerCount: 2
Fore
SplineSet
83 -613 m 1,0,-1
 31 -465 l 1,1,2
 129 -431 129 -431 164 -345 c 128,-1,3
 199 -259 199 -259 199 -147 c 2,4,-1
 199 57 l 2,5,6
 199 159 199 159 243.5 240.5 c 128,-1,7
 288 322 288 322 384 367 c 1,8,9
 288 412 288 412 243.5 493.5 c 128,-1,10
 199 575 199 575 199 677 c 2,11,-1
 199 882 l 2,12,13
 199 994 199 994 164 1080.5 c 128,-1,14
 129 1167 129 1167 31 1201 c 1,15,-1
 83 1347 l 1,16,17
 220 1309 220 1309 298 1239.5 c 128,-1,18
 376 1170 376 1170 408.5 1078.5 c 128,-1,19
 441 987 441 987 441 882 c 2,20,-1
 441 677 l 2,21,22
 441 578 441 578 484.5 519.5 c 128,-1,23
 528 461 528 461 627 461 c 1,24,-1
 627 273 l 1,25,26
 528 273 528 273 484.5 214.5 c 128,-1,27
 441 156 441 156 441 57 c 2,28,-1
 441 -147 l 2,29,30
 441 -252 441 -252 408.5 -343.5 c 128,-1,31
 376 -435 376 -435 298 -504.5 c 128,-1,32
 220 -574 220 -574 83 -613 c 1,0,-1
EndSplineSet
EndChar

StartChar: bracketleft
Encoding: 91 91 347
Width: 561
VWidth: 1798
GlyphClass: 2
Flags: W
LayerCount: 2
Fore
SplineSet
544 1235 m 1,0,-1
 392 1235 l 1,1,-1
 392 -381 l 1,2,-1
 544 -381 l 1,3,-1
 544 -581 l 1,4,-1
 147 -581 l 1,5,-1
 147 1436 l 1,6,-1
 544 1436 l 1,7,-1
 544 1235 l 1,0,-1
EndSplineSet
Position2: "Single Positioning lookup 9 subtable" dx=0 dy=0 dh=100 dv=0
Position2: "Single Positioning lookup 8 subtable" dx=0 dy=0 dh=160 dv=0
EndChar

StartChar: bracketright
Encoding: 93 93 348
Width: 561
VWidth: 1798
GlyphClass: 2
Flags: W
LayerCount: 2
Fore
SplineSet
12 1436 m 1,0,-1
 410 1436 l 1,1,-1
 410 -581 l 1,2,-1
 12 -581 l 1,3,-1
 12 -381 l 1,4,-1
 166 -381 l 1,5,-1
 166 1235 l 1,6,-1
 12 1235 l 1,7,-1
 12 1436 l 1,0,-1
EndSplineSet
EndChar

StartChar: breve
Encoding: 728 728 349
Width: 903
VWidth: 1798
GlyphClass: 2
Flags: W
LayerCount: 2
Fore
SplineSet
592 1267 m 1,0,-1
 784 1267 l 1,1,2
 784 1140 784 1140 693.5 1060 c 128,-1,3
 603 980 603 980 448 980 c 256,4,5
 293 980 293 980 202 1060 c 128,-1,6
 111 1140 111 1140 111 1267 c 1,7,-1
 303 1267 l 1,8,9
 303 1213 303 1213 336 1171.5 c 128,-1,10
 369 1130 369 1130 448 1130 c 0,11,12
 526 1130 526 1130 559 1171.5 c 128,-1,13
 592 1213 592 1213 592 1267 c 1,0,-1
EndSplineSet
EndChar

StartChar: brokenbar
Encoding: 166 166 350
Width: 509
VWidth: 1798
GlyphClass: 2
Flags: W
LayerCount: 2
Fore
SplineSet
374 1206 m 1,0,-1
 374 448 l 1,1,-1
 133 448 l 1,2,-1
 133 1206 l 1,3,-1
 374 1206 l 1,0,-1
374 -520 m 1,4,-1
 133 -520 l 1,5,-1
 133 274 l 1,6,-1
 374 274 l 1,7,-1
 374 -520 l 1,4,-1
EndSplineSet
EndChar

StartChar: bullet
Encoding: 8226 8226 351
Width: 726
GlyphClass: 2
Flags: W
LayerCount: 2
Fore
SplineSet
137 729 m 2,0,-1
 137 768 l 2,1,2
 137 864 137 864 199 926 c 128,-1,3
 261 988 261 988 366 988 c 0,4,5
 473 988 473 988 535 926 c 128,-1,6
 597 864 597 864 597 768 c 2,7,-1
 597 729 l 2,8,9
 597 633 597 633 535.5 572 c 128,-1,10
 474 511 474 511 367 511 c 0,11,12
 261 511 261 511 199 572 c 128,-1,13
 137 633 137 633 137 729 c 2,0,-1
EndSplineSet
EndChar

StartChar: c
Encoding: 99 99 352
Width: 1068
VWidth: 1798
GlyphClass: 2
Flags: W
AnchorPoint: "Anchor-1" 533 -260 basechar 0
AnchorPoint: "Anchor-0" 533 1040 basechar 0
LayerCount: 2
Fore
SplineSet
563 -62 m 0,0,1
 647 -62 647 -62 703 -13 c 128,-1,2
 759 36 759 36 762 115 c 1,3,-1
 1011 115 l 1,4,5
 1009 5 1009 5 949 -82 c 128,-1,6
 889 -169 889 -169 789.5 -219.5 c 128,-1,7
 690 -270 690 -270 567 -270 c 0,8,9
 401 -270 401 -270 291 -196.5 c 128,-1,10
 181 -123 181 -123 126.5 0.5 c 128,-1,11
 72 124 72 124 72 275 c 2,12,-1
 72 307 l 2,13,14
 72 458 72 458 126.5 581.5 c 128,-1,15
 181 705 181 705 291 778.5 c 128,-1,16
 401 852 401 852 566 852 c 0,17,18
 697 852 697 852 796.5 800.5 c 128,-1,19
 896 749 896 749 952.5 656 c 128,-1,20
 1009 563 1009 563 1011 438 c 1,21,-1
 762 438 l 1,22,23
 759 524 759 524 707 584 c 128,-1,24
 655 644 655 644 561 644 c 0,25,26
 471 644 471 644 422.5 595.5 c 128,-1,27
 374 547 374 547 355.5 470 c 128,-1,28
 337 393 337 393 337 307 c 2,29,-1
 337 275 l 2,30,31
 337 188 337 188 355 111 c 128,-1,32
 373 34 373 34 422 -14 c 128,-1,33
 471 -62 471 -62 563 -62 c 0,0,1
EndSplineSet
Substitution2: "'unic' Unicase lookup 2 subtable" C
Substitution2: "'smcp' Lowercase to Small Capitals lookup 1 subtable" C.smcp
EndChar

StartChar: caron
Encoding: 711 711 354
Width: 950
VWidth: 1798
GlyphClass: 2
Flags: W
LayerCount: 2
Fore
SplineSet
323 1286 m 1,0,-1
 471 1135 l 1,1,-1
 620 1286 l 1,2,-1
 847 1286 l 1,3,-1
 847 1276 l 1,4,-1
 556 997 l 1,5,-1
 388 997 l 1,6,-1
 97 1277 l 1,7,-1
 97 1286 l 1,8,-1
 323 1286 l 1,0,-1
EndSplineSet
EndChar

StartChar: cedilla
Encoding: 184 184 358
Width: 540
VWidth: 1798
GlyphClass: 2
Flags: W
LayerCount: 2
Fore
SplineSet
134 -245 m 1,0,-1
 331 -245 l 1,1,-1
 320 -302 l 1,2,3
 376 -312 376 -312 423.5 -350 c 128,-1,4
 471 -388 471 -388 471 -475 c 0,5,6
 471 -578 471 -578 384.5 -641 c 128,-1,7
 298 -704 298 -704 131 -704 c 1,8,-1
 124 -556 l 1,9,10
 177 -556 177 -556 213.5 -535.5 c 128,-1,11
 250 -515 250 -515 250 -469 c 0,12,13
 250 -425 250 -425 215 -408 c 128,-1,14
 180 -391 180 -391 103 -386 c 1,15,-1
 134 -245 l 1,0,-1
EndSplineSet
EndChar

StartChar: cent
Encoding: 162 162 359
Width: 1167
VWidth: 1798
GlyphClass: 2
Flags: W
LayerCount: 2
Fore
SplineSet
593 -62 m 0,0,1
 677 -62 677 -62 733 -13 c 128,-1,2
 789 36 789 36 792 115 c 1,3,-1
 1042 115 l 1,4,5
 1040 20 1040 20 994 -59 c 128,-1,6
 948 -138 948 -138 869.5 -191 c 128,-1,7
 791 -244 791 -244 691 -262 c 1,8,-1
 691 -495 l 1,9,-1
 498 -495 l 1,10,-1
 498 -262 l 1,11,12
 365 -240 365 -240 277 -164 c 128,-1,13
 189 -88 189 -88 145.5 26 c 128,-1,14
 102 140 102 140 102 275 c 2,15,-1
 102 307 l 2,16,17
 102 442 102 442 146 556 c 128,-1,18
 190 670 190 670 277.5 746.5 c 128,-1,19
 365 823 365 823 498 844 c 1,20,-1
 498 1068 l 1,21,-1
 691 1068 l 1,22,-1
 691 844 l 1,23,24
 848 818 848 818 943.5 710 c 128,-1,25
 1039 602 1039 602 1042 438 c 1,26,-1
 792 438 l 1,27,28
 789 524 789 524 737 584 c 128,-1,29
 685 644 685 644 592 644 c 0,30,31
 501 644 501 644 452.5 595.5 c 128,-1,32
 404 547 404 547 385.5 470 c 128,-1,33
 367 393 367 393 367 307 c 2,34,-1
 367 275 l 2,35,36
 367 188 367 188 385 111 c 128,-1,37
 403 34 403 34 452 -14 c 128,-1,38
 501 -62 501 -62 593 -62 c 0,0,1
EndSplineSet
EndChar

StartChar: circumflex
Encoding: 710 710 360
Width: 1001
VWidth: 1798
GlyphClass: 2
Flags: W
LayerCount: 2
Fore
SplineSet
572 1286 m 1,0,-1
 862 1009 l 1,1,-1
 862 997 l 1,2,-1
 650 997 l 1,3,-1
 495 1149 l 1,4,-1
 341 997 l 1,5,-1
 132 997 l 1,6,-1
 132 1011 l 1,7,-1
 418 1286 l 1,8,-1
 572 1286 l 1,0,-1
EndSplineSet
EndChar

StartChar: colon
Encoding: 58 58 361
Width: 598
VWidth: 1798
GlyphClass: 2
Flags: W
LayerCount: 2
Fore
SplineSet
135 500 m 0,0,1
 135 568 135 568 183.5 614 c 128,-1,2
 232 660 232 660 299 660 c 0,3,4
 367 660 367 660 415.5 614 c 128,-1,5
 464 568 464 568 464 500 c 256,6,7
 464 432 464 432 415.5 386 c 128,-1,8
 367 340 367 340 299 340 c 0,9,10
 230 340 230 340 182.5 385.5 c 128,-1,11
 135 431 135 431 135 500 c 0,0,1
135 -89 m 0,12,13
 135 -21 135 -21 183.5 25 c 128,-1,14
 232 71 232 71 299 71 c 0,15,16
 367 71 367 71 415.5 25 c 128,-1,17
 464 -21 464 -21 464 -89 c 256,18,19
 464 -157 464 -157 415.5 -203 c 128,-1,20
 367 -249 367 -249 299 -249 c 0,21,22
 230 -249 230 -249 182.5 -203.5 c 128,-1,23
 135 -158 135 -158 135 -89 c 0,12,13
EndSplineSet
EndChar

StartChar: comma
Encoding: 44 44 362
Width: 481
VWidth: 1798
GlyphClass: 2
Flags: W
LayerCount: 2
Fore
SplineSet
368 -12 m 1,0,-1
 366 -195 l 2,1,2
 366 -302 366 -302 313.5 -412 c 128,-1,3
 261 -522 261 -522 176 -594 c 1,4,-1
 36 -517 l 1,5,6
 75 -450 75 -450 107 -378.5 c 128,-1,7
 139 -307 139 -307 139 -207 c 2,8,-1
 139 -12 l 1,9,-1
 368 -12 l 1,0,-1
EndSplineSet
EndChar

StartChar: commaaccent
Encoding: 65725 -1 363
Width: 477
GlyphClass: 1
Flags: W
LayerCount: 2
Fore
SplineSet
339 263 m 1,0,-1
 339 189 l 2,1,2
 339 99 339 99 299 3.5 c 128,-1,3
 259 -92 259 -92 195 -154 c 1,4,-1
 62 -77 l 1,5,6
 97 -22 97 -22 117 38 c 128,-1,7
 137 98 137 98 137 178 c 2,8,-1
 137 263 l 1,9,-1
 339 263 l 1,0,-1
EndSplineSet
EndChar

StartChar: commaaccentrotate
Encoding: 65726 -1 364
Width: 509
GlyphClass: 1
Flags: W
LayerCount: 2
Fore
SplineSet
138 1118 m 1,0,-1
 138 1253 l 2,1,2
 138 1353 138 1353 179.5 1439.5 c 128,-1,3
 221 1526 221 1526 279 1568 c 1,4,-1
 418 1491 l 1,5,6
 391 1441 391 1441 371.5 1379 c 128,-1,7
 352 1317 352 1317 352 1242 c 2,8,-1
 351 1118 l 1,9,-1
 138 1118 l 1,0,-1
EndSplineSet
EndChar

StartChar: copyright
Encoding: 169 169 365
Width: 1609
VWidth: 1798
GlyphClass: 2
Flags: W
LayerCount: 2
Fore
SplineSet
89 479 m 256,0,1
 89 638 89 638 144 774 c 128,-1,2
 199 910 199 910 297 1011.5 c 128,-1,3
 395 1113 395 1113 523.5 1169.5 c 128,-1,4
 652 1226 652 1226 799 1226 c 256,5,6
 946 1226 946 1226 1074.5 1169.5 c 128,-1,7
 1203 1113 1203 1113 1300.5 1011.5 c 128,-1,8
 1398 910 1398 910 1453 774 c 128,-1,9
 1508 638 1508 638 1508 479 c 256,10,11
 1508 320 1508 320 1453 184 c 128,-1,12
 1398 48 1398 48 1300.5 -54 c 128,-1,13
 1203 -156 1203 -156 1074.5 -213 c 128,-1,14
 946 -270 946 -270 799 -270 c 256,15,16
 652 -270 652 -270 523.5 -213 c 128,-1,17
 395 -156 395 -156 297 -54 c 128,-1,18
 199 48 199 48 144 184 c 128,-1,19
 89 320 89 320 89 479 c 256,0,1
208 479 m 256,20,21
 208 346 208 346 254 232 c 128,-1,22
 300 118 300 118 381 32.5 c 128,-1,23
 462 -53 462 -53 569 -100.5 c 128,-1,24
 676 -148 676 -148 799 -148 c 0,25,26
 921 -148 921 -148 1028 -100.5 c 128,-1,27
 1135 -53 1135 -53 1216 32.5 c 128,-1,28
 1297 118 1297 118 1343 232 c 128,-1,29
 1389 346 1389 346 1389 479 c 256,30,31
 1389 612 1389 612 1343 725.5 c 128,-1,32
 1297 839 1297 839 1216 924 c 128,-1,33
 1135 1009 1135 1009 1028 1056.5 c 128,-1,34
 921 1104 921 1104 799 1104 c 0,35,36
 676 1104 676 1104 569 1056.5 c 128,-1,37
 462 1009 462 1009 381 924 c 128,-1,38
 300 839 300 839 254 725.5 c 128,-1,39
 208 612 208 612 208 479 c 256,20,21
967 347 m 1,40,-1
 1118 347 l 1,41,42
 1118 190 1118 190 1028.5 111.5 c 128,-1,43
 939 33 939 33 785 33 c 0,44,45
 625 33 625 33 531 140.5 c 128,-1,46
 437 248 437 248 437 420 c 2,47,-1
 437 537 l 2,48,49
 437 709 437 709 531 816.5 c 128,-1,50
 625 924 625 924 785 924 c 0,51,52
 939 924 939 924 1029 846 c 128,-1,53
 1119 768 1119 768 1119 611 c 1,54,-1
 968 611 l 1,55,56
 968 708 968 708 921.5 750 c 128,-1,57
 875 792 875 792 785 792 c 0,58,59
 688 792 688 792 637.5 720.5 c 128,-1,60
 587 649 587 649 587 538 c 2,61,-1
 587 420 l 2,62,63
 587 308 587 308 637.5 236.5 c 128,-1,64
 688 165 688 165 785 165 c 0,65,66
 875 165 875 165 921 206.5 c 128,-1,67
 967 248 967 248 967 347 c 1,40,-1
EndSplineSet
EndChar

StartChar: crossbar
Encoding: 65727 -1 366
Width: 963
GlyphClass: 1
Flags: W
LayerCount: 2
Fore
SplineSet
826 823 m 1,0,-1
 826 651 l 1,1,-1
 140 651 l 1,2,-1
 140 823 l 1,3,-1
 826 823 l 1,0,-1
EndSplineSet
EndChar

StartChar: currency
Encoding: 164 164 367
Width: 1428
VWidth: 1798
GlyphClass: 2
Flags: W
LayerCount: 2
Fore
SplineSet
121 358 m 0,0,1
 121 462 121 462 150 555.5 c 128,-1,2
 179 649 179 649 232 725 c 1,3,-1
 86 874 l 1,4,-1
 222 1014 l 1,5,-1
 366 867 l 1,6,7
 440 922 440 922 529.5 953 c 128,-1,8
 619 984 619 984 717 984 c 0,9,10
 816 984 816 984 905.5 953 c 128,-1,11
 995 922 995 922 1068 865 c 1,12,-1
 1215 1015 l 1,13,-1
 1352 874 l 1,14,-1
 1203 722 l 1,15,16
 1254 646 1254 646 1282.5 553.5 c 128,-1,17
 1311 461 1311 461 1311 358 c 0,18,19
 1311 259 1311 259 1285 170 c 128,-1,20
 1259 81 1259 81 1211 7 c 1,21,-1
 1352 -136 l 1,22,-1
 1215 -277 l 1,23,-1
 1081 -140 l 1,24,25
 1006 -202 1006 -202 913 -236 c 128,-1,26
 820 -270 820 -270 717 -270 c 256,27,28
 614 -270 614 -270 521.5 -236 c 128,-1,29
 429 -202 429 -202 354 -142 c 1,30,-1
 222 -276 l 1,31,-1
 86 -136 l 1,32,-1
 223 3 l 1,33,34
 175 78 175 78 148 168 c 128,-1,35
 121 258 121 258 121 358 c 0,0,1
301 358 m 0,36,37
 301 234 301 234 357 133 c 128,-1,38
 413 32 413 32 507.5 -27.5 c 128,-1,39
 602 -87 602 -87 717 -87 c 256,40,41
 832 -87 832 -87 926 -27.5 c 128,-1,42
 1020 32 1020 32 1076 133 c 128,-1,43
 1132 234 1132 234 1132 358 c 0,44,45
 1132 483 1132 483 1076 583.5 c 128,-1,46
 1020 684 1020 684 926 743 c 128,-1,47
 832 802 832 802 717 802 c 256,48,49
 602 802 602 802 507.5 743 c 128,-1,50
 413 684 413 684 357 583.5 c 128,-1,51
 301 483 301 483 301 358 c 0,36,37
EndSplineSet
EndChar

StartChar: d
Encoding: 100 100 368
Width: 1153
VWidth: 1798
GlyphClass: 2
Flags: W
AnchorPoint: "Anchor-1" 617 -250 basechar 0
AnchorPoint: "Anchor-0" 549 1362 basechar 0
LayerCount: 2
Fore
SplineSet
73 278 m 2,0,-1
 73 299 l 2,1,2
 73 464 73 464 123.5 588.5 c 128,-1,3
 174 713 174 713 269 782.5 c 128,-1,4
 364 852 364 852 497 852 c 0,5,6
 584 852 584 852 651 820 c 128,-1,7
 718 788 718 788 768 730 c 1,8,-1
 768 1286 l 1,9,-1
 1034 1286 l 1,10,-1
 1034 -250 l 1,11,-1
 794 -250 l 1,12,-1
 781 -133 l 1,13,14
 730 -198 730 -198 659 -234 c 128,-1,15
 588 -270 588 -270 495 -270 c 0,16,17
 363 -270 363 -270 268.5 -198.5 c 128,-1,18
 174 -127 174 -127 123.5 -3 c 128,-1,19
 73 121 73 121 73 278 c 2,0,-1
338 299 m 2,20,-1
 338 278 l 2,21,22
 338 185 338 185 360 108.5 c 128,-1,23
 382 32 382 32 431.5 -13.5 c 128,-1,24
 481 -59 481 -59 562 -59 c 0,25,26
 639 -59 639 -59 689.5 -24.5 c 128,-1,27
 740 10 740 10 768 68 c 1,28,-1
 768 516 l 1,29,30
 740 575 740 575 689.5 608.5 c 128,-1,31
 639 642 639 642 564 642 c 0,32,33
 483 642 483 642 433.5 596 c 128,-1,34
 384 550 384 550 361 472.5 c 128,-1,35
 338 395 338 395 338 299 c 2,20,-1
EndSplineSet
Substitution2: "'unic' Unicase lookup 2 subtable" D
Substitution2: "'smcp' Lowercase to Small Capitals lookup 1 subtable" D.smcp
EndChar

StartChar: dagger
Encoding: 8224 8224 369
Width: 1108
GlyphClass: 2
Flags: W
LayerCount: 2
Fore
SplineSet
1050 1082 m 1,0,-1
 1050 868 l 1,1,-1
 685 868 l 1,2,-1
 685 0 l 1,3,-1
 420 0 l 1,4,-1
 420 868 l 1,5,-1
 60 868 l 1,6,-1
 60 1082 l 1,7,-1
 420 1082 l 1,8,-1
 420 1456 l 1,9,-1
 685 1456 l 1,10,-1
 685 1082 l 1,11,-1
 1050 1082 l 1,0,-1
EndSplineSet
EndChar

StartChar: daggerdbl
Encoding: 8225 8225 370
Width: 1182
GlyphClass: 2
Flags: W
LayerCount: 2
Fore
SplineSet
1085 208 m 1,0,-1
 1085 0 l 1,1,-1
 720 0 l 1,2,-1
 720 -416 l 1,3,-1
 454 -416 l 1,4,-1
 454 0 l 1,5,-1
 96 0 l 1,6,-1
 96 208 l 1,7,-1
 454 208 l 1,8,-1
 454 873 l 1,9,-1
 96 873 l 1,10,-1
 96 1082 l 1,11,-1
 454 1082 l 1,12,-1
 454 1456 l 1,13,-1
 720 1456 l 1,14,-1
 720 1082 l 1,15,-1
 1085 1082 l 1,16,-1
 1085 873 l 1,17,-1
 720 873 l 1,18,-1
 720 208 l 1,19,-1
 1085 208 l 1,0,-1
EndSplineSet
EndChar

StartChar: dcroat
Encoding: 273 273 372
Width: 1275
VWidth: 1798
GlyphClass: 2
Flags: W
AnchorPoint: "Anchor-1" 617 -250 basechar 0
AnchorPoint: "Anchor-0" 549 1361 basechar 0
LayerCount: 2
Fore
SplineSet
73 278 m 2,0,-1
 73 299 l 2,1,2
 73 464 73 464 123.5 588.5 c 128,-1,3
 174 713 174 713 269 782.5 c 128,-1,4
 364 852 364 852 497 852 c 0,5,6
 584 852 584 852 651 820 c 128,-1,7
 718 788 718 788 768 730 c 1,8,-1
 768 974 l 1,9,-1
 510 974 l 1,10,-1
 510 1146 l 1,11,-1
 768 1146 l 1,12,-1
 768 1286 l 1,13,-1
 1034 1286 l 1,14,-1
 1034 1146 l 1,15,-1
 1196 1146 l 1,16,-1
 1196 974 l 1,17,-1
 1034 974 l 1,18,-1
 1034 -250 l 1,19,-1
 794 -250 l 1,20,-1
 781 -133 l 1,21,22
 730 -198 730 -198 659 -234 c 128,-1,23
 588 -270 588 -270 495 -270 c 0,24,25
 363 -270 363 -270 268.5 -198.5 c 128,-1,26
 174 -127 174 -127 123.5 -3 c 128,-1,27
 73 121 73 121 73 278 c 2,0,-1
338 299 m 2,28,-1
 338 278 l 2,29,30
 338 185 338 185 360 108.5 c 128,-1,31
 382 32 382 32 431.5 -13.5 c 128,-1,32
 481 -59 481 -59 562 -59 c 0,33,34
 639 -59 639 -59 689.5 -24.5 c 128,-1,35
 740 10 740 10 768 68 c 1,36,-1
 768 516 l 1,37,38
 740 575 740 575 689.5 608.5 c 128,-1,39
 639 642 639 642 564 642 c 0,40,41
 483 642 483 642 433.5 596 c 128,-1,42
 384 550 384 550 361 472.5 c 128,-1,43
 338 395 338 395 338 299 c 2,28,-1
EndSplineSet
Substitution2: "'unic' Unicase lookup 2 subtable" Dcroat
Substitution2: "'smcp' Lowercase to Small Capitals lookup 1 subtable" Dcroat.smcp
EndChar

StartChar: degree
Encoding: 176 176 373
Width: 791
VWidth: 1798
GlyphClass: 2
Flags: W
LayerCount: 2
Fore
SplineSet
128 956 m 256,0,1
 128 1030 128 1030 164.5 1091.5 c 128,-1,2
 201 1153 201 1153 262 1189.5 c 128,-1,3
 323 1226 323 1226 396 1226 c 256,4,5
 469 1226 469 1226 529 1189.5 c 128,-1,6
 589 1153 589 1153 625 1091.5 c 128,-1,7
 661 1030 661 1030 661 956 c 256,8,9
 661 882 661 882 625 821 c 128,-1,10
 589 760 589 760 529 724 c 128,-1,11
 469 688 469 688 396 688 c 256,12,13
 323 688 323 688 262 724 c 128,-1,14
 201 760 201 760 164.5 821 c 128,-1,15
 128 882 128 882 128 956 c 256,0,1
268 956 m 256,16,17
 268 901 268 901 306 865 c 128,-1,18
 344 829 344 829 396 829 c 0,19,20
 449 829 449 829 484.5 865 c 128,-1,21
 520 901 520 901 520 956 c 256,22,23
 520 1011 520 1011 484.5 1048 c 128,-1,24
 449 1085 449 1085 396 1085 c 0,25,26
 344 1085 344 1085 306 1048 c 128,-1,27
 268 1011 268 1011 268 956 c 256,16,17
EndSplineSet
EndChar

StartChar: dieresis
Encoding: 168 168 374
Width: 939
VWidth: 1798
GlyphClass: 2
Flags: W
LayerCount: 2
Fore
SplineSet
98 1118 m 0,0,1
 98 1169 98 1169 134.5 1203.5 c 128,-1,2
 171 1238 171 1238 229 1238 c 0,3,4
 288 1238 288 1238 324 1203.5 c 128,-1,5
 360 1169 360 1169 360 1118 c 0,6,7
 360 1068 360 1068 324 1033.5 c 128,-1,8
 288 999 288 999 229 999 c 0,9,10
 171 999 171 999 134.5 1033.5 c 128,-1,11
 98 1068 98 1068 98 1118 c 0,0,1
575 1117 m 0,12,13
 575 1168 575 1168 611.5 1202.5 c 128,-1,14
 648 1237 648 1237 706 1237 c 256,15,16
 764 1237 764 1237 800.5 1202.5 c 128,-1,17
 837 1168 837 1168 837 1117 c 0,18,19
 837 1067 837 1067 800.5 1032.5 c 128,-1,20
 764 998 764 998 706 998 c 256,21,22
 648 998 648 998 611.5 1032.5 c 128,-1,23
 575 1067 575 1067 575 1117 c 0,12,13
EndSplineSet
EndChar

StartChar: divide
Encoding: 247 247 375
Width: 1185
VWidth: 1798
GlyphClass: 2
Flags: W
LayerCount: 2
Fore
SplineSet
454 627 m 0,0,1
 454 686 454 686 496 728 c 128,-1,2
 538 770 538 770 596 770 c 0,3,4
 655 770 655 770 697 728 c 128,-1,5
 739 686 739 686 739 627 c 0,6,7
 739 569 739 569 697 527 c 128,-1,8
 655 485 655 485 596 485 c 0,9,10
 538 485 538 485 496 526 c 128,-1,11
 454 567 454 567 454 627 c 0,0,1
124 171 m 1,12,-1
 124 374 l 1,13,-1
 1061 374 l 1,14,-1
 1061 171 l 1,15,-1
 124 171 l 1,12,-1
454 -87 m 0,16,17
 454 -28 454 -28 496 14 c 128,-1,18
 538 56 538 56 596 56 c 0,19,20
 655 56 655 56 697 14 c 128,-1,21
 739 -28 739 -28 739 -87 c 0,22,23
 739 -145 739 -145 697 -187 c 128,-1,24
 655 -229 655 -229 596 -229 c 0,25,26
 538 -229 538 -229 496 -188 c 128,-1,27
 454 -147 454 -147 454 -87 c 0,16,17
EndSplineSet
EndChar

StartChar: dollar
Encoding: 36 36 376
Width: 1170
VWidth: 1798
GlyphClass: 2
Flags: W
LayerCount: 2
Fore
SplineSet
806 131 m 0,0,1
 806 217 806 217 755.5 270 c 128,-1,2
 705 323 705 323 581 368 c 0,3,4
 452 415 452 415 355 472 c 128,-1,5
 258 529 258 529 204.5 612.5 c 128,-1,6
 151 696 151 696 151 824 c 0,7,8
 151 993 151 993 257.5 1099.5 c 128,-1,9
 364 1206 364 1206 540 1224 c 1,10,-1
 540 1438 l 1,11,-1
 695 1438 l 1,12,-1
 695 1221 l 1,13,14
 867 1197 867 1197 968 1077 c 128,-1,15
 1069 957 1069 957 1069 757 c 1,16,-1
 805 757 l 1,17,18
 805 881 805 881 751.5 948.5 c 128,-1,19
 698 1016 698 1016 606 1016 c 0,20,21
 506 1016 506 1016 461 961.5 c 128,-1,22
 416 907 416 907 416 824 c 0,23,24
 416 742 416 742 464.5 690.5 c 128,-1,25
 513 639 513 639 643 589 c 0,26,27
 773 541 773 541 869 483.5 c 128,-1,28
 965 426 965 426 1018 342.5 c 128,-1,29
 1071 259 1071 259 1071 133 c 0,30,31
 1071 -42 1071 -42 963 -145 c 128,-1,32
 855 -248 855 -248 676 -267 c 1,33,-1
 676 -463 l 1,34,-1
 522 -463 l 1,35,-1
 522 -267 l 1,36,37
 413 -256 413 -256 315.5 -206.5 c 128,-1,38
 218 -157 218 -157 157 -58 c 128,-1,39
 96 41 96 41 96 199 c 1,40,-1
 361 199 l 1,41,42
 361 99 361 99 395.5 42.5 c 128,-1,43
 430 -14 430 -14 484 -37 c 128,-1,44
 538 -60 538 -60 596 -60 c 0,45,46
 700 -60 700 -60 753 -6.5 c 128,-1,47
 806 47 806 47 806 131 c 0,0,1
EndSplineSet
Substitution2: "'c2sc' Capitals to Small Capitals lookup 0 subtable" dollar.smcp
Position2: "'cpsp' Capital Spacing lookup 0 subtable" dx=36 dy=0 dh=72 dv=0
EndChar

StartChar: dollar.smcp
Encoding: 65728 -1 377
Width: 1089
GlyphClass: 2
Flags: W
LayerCount: 2
Fore
SplineSet
762 308 m 0,0,1
 762 370 762 370 713.5 409 c 128,-1,2
 665 448 665 448 528 481 c 0,3,4
 314 531 314 531 207.5 611 c 128,-1,5
 101 691 101 691 101 845 c 0,6,7
 101 982 101 982 208 1073 c 128,-1,8
 315 1164 315 1164 485 1178 c 1,9,-1
 485 1395 l 1,10,-1
 640 1395 l 1,11,-1
 640 1175 l 1,12,13
 812 1154 812 1154 914.5 1059.5 c 128,-1,14
 1017 965 1017 965 1017 820 c 1,15,-1
 752 820 l 1,16,17
 752 889 752 889 699 938 c 128,-1,18
 646 987 646 987 545 987 c 0,19,20
 447 987 447 987 400.5 945 c 128,-1,21
 354 903 354 903 354 853 c 0,22,23
 354 798 354 798 406.5 762 c 128,-1,24
 459 726 459 726 588 693 c 0,25,26
 801 645 801 645 908.5 559 c 128,-1,27
 1016 473 1016 473 1016 315 c 0,28,29
 1016 175 1016 175 914 89.5 c 128,-1,30
 812 4 812 4 640 -12 c 1,31,-1
 640 -237 l 1,32,-1
 485 -237 l 1,33,-1
 485 -12 l 1,34,35
 376 -2 376 -2 279 42 c 128,-1,36
 182 86 182 86 121.5 165.5 c 128,-1,37
 61 245 61 245 61 365 c 1,38,-1
 327 365 l 1,39,40
 327 265 327 265 392 221 c 128,-1,41
 457 177 457 177 573 177 c 0,42,43
 675 177 675 177 718.5 218 c 128,-1,44
 762 259 762 259 762 308 c 0,0,1
EndSplineSet
EndChar

StartChar: dotaccent
Encoding: 729 729 378
Width: 532
VWidth: 1798
GlyphClass: 2
Flags: W
LayerCount: 2
Fore
SplineSet
124 1123 m 0,0,1
 124 1178 124 1178 161 1214.5 c 128,-1,2
 198 1251 198 1251 262 1251 c 0,3,4
 327 1251 327 1251 364.5 1214.5 c 128,-1,5
 402 1178 402 1178 402 1123 c 0,6,7
 402 1069 402 1069 364.5 1033 c 128,-1,8
 327 997 327 997 262 997 c 0,9,10
 198 997 198 997 161 1033 c 128,-1,11
 124 1069 124 1069 124 1123 c 0,0,1
EndSplineSet
EndChar

StartChar: dotbelow
Encoding: 803 803 379
Width: 0
VWidth: 1798
GlyphClass: 4
Flags: W
AnchorPoint: "Anchor-2" -597 -604 basemark 0
AnchorPoint: "Anchor-2" -597 -250 mark 0
AnchorPoint: "Anchor-1" -597 -250 mark 0
LayerCount: 2
Fore
SplineSet
-750 -488 m 0,0,1
 -750 -433 -750 -433 -709.5 -396 c 128,-1,2
 -669 -359 -669 -359 -600 -359 c 256,3,4
 -531 -359 -531 -359 -490.5 -396 c 128,-1,5
 -450 -433 -450 -433 -450 -488 c 0,6,7
 -450 -542 -450 -542 -490.5 -578.5 c 128,-1,8
 -531 -615 -531 -615 -600 -615 c 256,9,10
 -669 -615 -669 -615 -709.5 -578.5 c 128,-1,11
 -750 -542 -750 -542 -750 -488 c 0,0,1
EndSplineSet
EndChar

StartChar: dotlessi
Encoding: 305 305 380
Width: 547
VWidth: 1798
GlyphClass: 2
Flags: W
AnchorPoint: "Anchor-1" 249 -240 basechar 0
AnchorPoint: "Anchor-0" 252 1038 basechar 0
LayerCount: 2
Fore
SplineSet
404 832 m 1,0,-1
 404 -250 l 1,1,-1
 139 -250 l 1,2,-1
 139 832 l 1,3,-1
 404 832 l 1,0,-1
EndSplineSet
Substitution2: "'smcp' Lowercase to Small Capitals lookup 1 subtable" I.smcp
EndChar

StartChar: e
Encoding: 101 101 381
Width: 1102
VWidth: 1798
GlyphClass: 2
Flags: W
AnchorPoint: "Anchor-1" 568 -250 basechar 0
AnchorPoint: "Anchor-0" 565 1040 basechar 0
LayerCount: 2
Fore
SplineSet
605 -270 m 0,0,1
 441 -270 441 -270 322.5 -200 c 128,-1,2
 204 -130 204 -130 140 -11.5 c 128,-1,3
 76 107 76 107 76 254 c 2,4,-1
 76 294 l 2,5,6
 76 461 76 461 139 586.5 c 128,-1,7
 202 712 202 712 314.5 782 c 128,-1,8
 427 852 427 852 575 852 c 0,9,10
 729 852 729 852 833.5 785 c 128,-1,11
 938 718 938 718 991 598.5 c 128,-1,12
 1044 479 1044 479 1044 322 c 2,13,-1
 1044 211 l 1,14,-1
 344 211 l 1,15,16
 355 92 355 92 427.5 15 c 128,-1,17
 500 -62 500 -62 621 -62 c 0,18,19
 789 -62 789 -62 889 67 c 1,20,-1
 1022 -71 l 1,21,22
 971 -147 971 -147 867 -208.5 c 128,-1,23
 763 -270 763 -270 605 -270 c 0,0,1
573 644 m 0,24,25
 475 644 475 644 419.5 576 c 128,-1,26
 364 508 364 508 348 393 c 1,27,-1
 784 393 l 1,28,-1
 784 413 l 2,29,30
 781 507 781 507 732 575.5 c 128,-1,31
 683 644 683 644 573 644 c 0,24,25
EndSplineSet
Substitution2: "'unic' Unicase lookup 2 subtable" E.unic
Substitution2: "'smcp' Lowercase to Small Capitals lookup 1 subtable" E.smcp
EndChar

StartChar: eight
Encoding: 56 56 389
Width: 1170
VWidth: 1798
GlyphClass: 2
Flags: W
LayerCount: 2
Fore
SplineSet
1071 148 m 0,0,1
 1071 12 1071 12 1007.5 -81.5 c 128,-1,2
 944 -175 944 -175 834.5 -222.5 c 128,-1,3
 725 -270 725 -270 586 -270 c 0,4,5
 448 -270 448 -270 337.5 -222.5 c 128,-1,6
 227 -175 227 -175 162.5 -81.5 c 128,-1,7
 98 12 98 12 98 148 c 0,8,9
 98 269 98 269 162 360.5 c 128,-1,10
 226 452 226 452 335 501 c 1,11,12
 240 549 240 549 185 632.5 c 128,-1,13
 130 716 130 716 130 822 c 0,14,15
 130 953 130 953 188.5 1043 c 128,-1,16
 247 1133 247 1133 350 1180 c 128,-1,17
 453 1227 453 1227 584 1227 c 0,18,19
 717 1227 717 1227 819.5 1180 c 128,-1,20
 922 1133 922 1133 980.5 1042.5 c 128,-1,21
 1039 952 1039 952 1039 822 c 0,22,23
 1039 715 1039 715 984 632 c 128,-1,24
 929 549 929 549 834 500 c 1,25,26
 943 451 943 451 1007 360 c 128,-1,27
 1071 269 1071 269 1071 148 c 0,0,1
775 811 m 0,28,29
 775 903 775 903 724 960.5 c 128,-1,30
 673 1018 673 1018 584 1018 c 0,31,32
 497 1018 497 1018 446.5 962.5 c 128,-1,33
 396 907 396 907 396 811 c 0,34,35
 396 716 396 716 446.5 658.5 c 128,-1,36
 497 601 497 601 586 601 c 256,37,38
 675 601 675 601 725 658.5 c 128,-1,39
 775 716 775 716 775 811 c 0,28,29
805 164 m 0,40,41
 805 268 805 268 744 330.5 c 128,-1,42
 683 393 683 393 584 393 c 0,43,44
 484 393 484 393 423.5 330.5 c 128,-1,45
 363 268 363 268 363 164 c 0,46,47
 363 58 363 58 423.5 -2 c 128,-1,48
 484 -62 484 -62 586 -62 c 0,49,50
 687 -62 687 -62 746 -2 c 128,-1,51
 805 58 805 58 805 164 c 0,40,41
EndSplineSet
Substitution2: "'ss01' Style Set 1 lookup 35 subtable" uni06F8
Substitution2: "'numr' Numerators lookup 21 subtable" eight.frac
Substitution2: "'dnom' Denominators lookup 20 subtable" eight.sup
Substitution2: "'frac' Diagonal Fractions lookup 19 subtable" eight.frac
Substitution2: "Single Substitution lookup 18 subtable" eight.sup
Substitution2: "'lnum' Lining Figures lookup 15 subtable" eight.pnum
Substitution2: "'onum' Oldstyle Figures lookup 14 subtable" eight.tnum
Substitution2: "'c2sc' Capitals to Small Capitals lookup 0 subtable" eight.smcp
Position2: "'cpsp' Capital Spacing lookup 0 subtable" dx=36 dy=0 dh=72 dv=0
EndChar

StartChar: eight.smcp
Encoding: 65731 -1 392
Width: 1059
GlyphClass: 2
Flags: W
LayerCount: 2
Fore
SplineSet
976 320 m 0,0,1
 976 209 976 209 917.5 134 c 128,-1,2
 859 59 859 59 758.5 21.5 c 128,-1,3
 658 -16 658 -16 530 -16 c 0,4,5
 403 -16 403 -16 301.5 21.5 c 128,-1,6
 200 59 200 59 141 133.5 c 128,-1,7
 82 208 82 208 82 320 c 0,8,9
 82 418 82 418 137 489.5 c 128,-1,10
 192 561 192 561 284 601 c 1,11,12
 204 639 204 639 157.5 704 c 128,-1,13
 111 769 111 769 111 854 c 0,14,15
 111 1014 111 1014 229 1098 c 128,-1,16
 347 1182 347 1182 528 1182 c 0,17,18
 712 1182 712 1182 829.5 1098 c 128,-1,19
 947 1014 947 1014 947 854 c 0,20,21
 947 769 947 769 901 704 c 128,-1,22
 855 639 855 639 775 600 c 1,23,24
 867 561 867 561 921.5 489.5 c 128,-1,25
 976 418 976 418 976 320 c 0,0,1
683 839 m 0,26,27
 683 901 683 901 642 937 c 128,-1,28
 601 973 601 973 528 973 c 0,29,30
 457 973 457 973 416.5 937.5 c 128,-1,31
 376 902 376 902 376 839 c 256,32,33
 376 776 376 776 416.5 738 c 128,-1,34
 457 700 457 700 530 700 c 256,35,36
 603 700 603 700 643 738 c 128,-1,37
 683 776 683 776 683 839 c 0,26,27
711 343 m 256,38,39
 711 414 711 414 660 452.5 c 128,-1,40
 609 491 609 491 528 491 c 256,41,42
 447 491 447 491 397 452.5 c 128,-1,43
 347 414 347 414 347 343 c 256,44,45
 347 272 347 272 397.5 231.5 c 128,-1,46
 448 191 448 191 530 191 c 0,47,48
 611 191 611 191 661 231.5 c 128,-1,49
 711 272 711 272 711 343 c 256,38,39
EndSplineSet
EndChar

StartChar: eight.sup
Encoding: 65732 -1 393
Width: 760
GlyphClass: 2
Flags: W
LayerCount: 2
Fore
SplineSet
686 218 m 0,0,1
 686 103 686 103 599.5 46 c 128,-1,2
 513 -11 513 -11 381 -11 c 0,3,4
 250 -11 250 -11 161.5 46 c 128,-1,5
 73 103 73 103 73 218 c 0,6,7
 73 284 73 284 109 332 c 128,-1,8
 145 380 145 380 206 407 c 1,9,10
 153 433 153 433 122.5 476.5 c 128,-1,11
 92 520 92 520 92 577 c 0,12,13
 92 687 92 687 173.5 744 c 128,-1,14
 255 801 255 801 379 801 c 0,15,16
 506 801 506 801 587 744 c 128,-1,17
 668 687 668 687 668 577 c 0,18,19
 668 520 668 520 637.5 476.5 c 128,-1,20
 607 433 607 433 554 406 c 1,21,22
 615 379 615 379 650.5 331 c 128,-1,23
 686 283 686 283 686 218 c 0,0,1
475 565 m 0,24,25
 475 647 475 647 379 647 c 0,26,27
 285 647 285 647 285 565 c 0,28,29
 285 527 285 527 310 503 c 128,-1,30
 335 479 335 479 381 479 c 256,31,32
 427 479 427 479 451 503 c 128,-1,33
 475 527 475 527 475 565 c 0,24,25
495 235 m 0,34,35
 495 279 495 279 462.5 302.5 c 128,-1,36
 430 326 430 326 379 326 c 0,37,38
 329 326 329 326 297.5 302.5 c 128,-1,39
 266 279 266 279 266 235 c 0,40,41
 266 192 266 192 297.5 167 c 128,-1,42
 329 142 329 142 381 142 c 0,43,44
 431 142 431 142 463 167 c 128,-1,45
 495 192 495 192 495 235 c 0,34,35
EndSplineSet
EndChar

StartChar: emdash
Encoding: 8212 8212 397
Width: 1600
GlyphClass: 2
Flags: W
LayerCount: 2
Fore
SplineSet
1473 419 m 1,0,-1
 127 419 l 1,1,-1
 127 618 l 1,2,-1
 1473 618 l 1,3,-1
 1473 419 l 1,0,-1
EndSplineSet
EndChar

StartChar: endash
Encoding: 8211 8211 398
Width: 1345
GlyphClass: 2
Flags: W
LayerCount: 2
Fore
SplineSet
1218 419 m 1,0,-1
 127 419 l 1,1,-1
 127 618 l 1,2,-1
 1218 618 l 1,3,-1
 1218 419 l 1,0,-1
EndSplineSet
EndChar

StartChar: eng
Encoding: 331 331 399
Width: 1156
VWidth: 1798
GlyphClass: 2
Flags: W
AnchorPoint: "Anchor-1" 563 -240 basechar 0
AnchorPoint: "Anchor-0" 573 1040 basechar 0
LayerCount: 2
Fore
SplineSet
1038 -300 m 2,0,1
 1038 -487 1038 -487 940 -587 c 128,-1,2
 842 -687 842 -687 670 -687 c 0,3,4
 633 -687 633 -687 601 -683.5 c 128,-1,5
 569 -680 569 -680 532 -670 c 1,6,-1
 546 -462 l 1,7,8
 567 -468 567 -468 594 -471 c 128,-1,9
 621 -474 621 -474 646 -474 c 0,10,11
 773 -474 773 -474 773 -300 c 2,12,-1
 773 415 l 2,13,14
 773 543 773 543 726 592.5 c 128,-1,15
 679 642 679 642 593 642 c 0,16,17
 520 642 520 642 467 614.5 c 128,-1,18
 414 587 414 587 381 540 c 1,19,-1
 381 -250 l 1,20,-1
 117 -250 l 1,21,-1
 117 832 l 1,22,-1
 362 832 l 1,23,-1
 375 679 l 1,24,25
 427 760 427 760 506.5 806 c 128,-1,26
 586 852 586 852 687 852 c 0,27,28
 845 852 845 852 941.5 752 c 128,-1,29
 1038 652 1038 652 1038 416 c 2,30,-1
 1038 -300 l 2,0,1
EndSplineSet
Substitution2: "'unic' Unicase lookup 2 subtable" Eng
Substitution2: "'smcp' Lowercase to Small Capitals lookup 1 subtable" Eng.smcp
EndChar

StartChar: eogonek
Encoding: 281 281 400
Width: 1102
VWidth: 1798
GlyphClass: 2
Flags: W
AnchorPoint: "Anchor-1" 568 -250 basechar 0
AnchorPoint: "Anchor-0" 565 1040 basechar 0
LayerCount: 2
Fore
SplineSet
870 -600 m 1,0,1
 845 -615 845 -615 805.5 -629.5 c 128,-1,2
 766 -644 766 -644 706 -644 c 0,3,4
 615 -644 615 -644 551 -592.5 c 128,-1,5
 487 -541 487 -541 487 -441 c 0,6,7
 487 -397 487 -397 503.5 -353 c 128,-1,8
 520 -309 520 -309 558 -268 c 1,9,10
 408 -258 408 -258 300 -186.5 c 128,-1,11
 192 -115 192 -115 134 -0.5 c 128,-1,12
 76 114 76 114 76 254 c 2,13,-1
 76 294 l 2,14,15
 76 461 76 461 139 586.5 c 128,-1,16
 202 712 202 712 314.5 782 c 128,-1,17
 427 852 427 852 575 852 c 0,18,19
 729 852 729 852 833.5 785 c 128,-1,20
 938 718 938 718 991 598.5 c 128,-1,21
 1044 479 1044 479 1044 322 c 2,22,-1
 1044 211 l 1,23,-1
 344 211 l 1,24,25
 355 92 355 92 427.5 15 c 128,-1,26
 500 -62 500 -62 621 -62 c 0,27,28
 789 -62 789 -62 889 67 c 1,29,-1
 1022 -71 l 1,30,31
 994 -112 994 -112 950.5 -151 c 128,-1,32
 907 -190 907 -190 847 -219 c 1,33,-1
 848 -219 l 1,34,35
 775 -263 775 -263 732.5 -307.5 c 128,-1,36
 690 -352 690 -352 690 -409 c 0,37,38
 690 -439 690 -439 705.5 -458 c 128,-1,39
 721 -477 721 -477 759 -477 c 0,40,41
 788 -477 788 -477 808.5 -469 c 128,-1,42
 829 -461 829 -461 843 -454 c 1,43,-1
 870 -600 l 1,0,1
573 644 m 0,44,45
 475 644 475 644 419.5 576 c 128,-1,46
 364 508 364 508 348 393 c 1,47,-1
 784 393 l 1,48,-1
 784 413 l 2,49,50
 781 507 781 507 732 575.5 c 128,-1,51
 683 644 683 644 573 644 c 0,44,45
EndSplineSet
Substitution2: "'locl' Localized Forms in Latin lookup 8 subtable" eogonek.NAV
Substitution2: "'unic' Unicase lookup 2 subtable" Eogonek.unic
Substitution2: "'smcp' Lowercase to Small Capitals lookup 1 subtable" Eogonek.smcp
EndChar

StartChar: equal
Encoding: 61 61 402
Width: 1145
VWidth: 1798
GlyphClass: 2
Flags: W
LayerCount: 2
Fore
SplineSet
1016 365 m 1,0,-1
 141 365 l 1,1,-1
 141 563 l 1,2,-1
 1016 563 l 1,3,-1
 1016 365 l 1,0,-1
1016 -33 m 1,4,-1
 141 -33 l 1,5,-1
 141 165 l 1,6,-1
 1016 165 l 1,7,-1
 1016 -33 l 1,4,-1
EndSplineSet
EndChar

StartChar: estimated
Encoding: 8494 8494 403
Width: 1298
GlyphClass: 2
Flags: W
LayerCount: 2
Fore
SplineSet
1041 198 m 1,0,-1
 1043 94 l 1,1,2
 959 42 959 42 865 11 c 128,-1,3
 771 -20 771 -20 673 -20 c 0,4,5
 564 -20 564 -20 469 24 c 128,-1,6
 374 68 374 68 302 145 c 128,-1,7
 230 222 230 222 189.5 324 c 128,-1,8
 149 426 149 426 149 541 c 0,9,10
 149 657 149 657 193.5 758.5 c 128,-1,11
 238 860 238 860 313 937 c 128,-1,12
 388 1014 388 1014 481.5 1058 c 128,-1,13
 575 1102 575 1102 673 1102 c 0,14,15
 810 1102 810 1102 922.5 1031.5 c 128,-1,16
 1035 961 1035 961 1101.5 839 c 128,-1,17
 1168 717 1168 717 1168 561 c 2,18,-1
 1168 514 l 1,19,-1
 400 514 l 1,20,-1
 400 186 l 1,21,22
 455 135 455 135 525 105.5 c 128,-1,23
 595 76 595 76 673 76 c 0,24,25
 766 76 766 76 859.5 105.5 c 128,-1,26
 953 135 953 135 1041 198 c 1,0,-1
673 1008 m 0,27,28
 598 1008 598 1008 527.5 975 c 128,-1,29
 457 942 457 942 400 886 c 1,30,-1
 400 609 l 1,31,-1
 940 609 l 1,32,-1
 940 895 l 1,33,34
 888 947 888 947 819 977.5 c 128,-1,35
 750 1008 750 1008 673 1008 c 0,27,28
EndSplineSet
EndChar

StartChar: eth
Encoding: 240 240 404
Width: 1183
VWidth: 1798
GlyphClass: 2
Flags: W
LayerCount: 2
Fore
SplineSet
240 1126 m 1,0,-1
 323 1330 l 1,1,2
 561 1280 561 1280 738 1147 c 1,3,-1
 913 1260 l 1,4,-1
 989 1151 l 1,5,-1
 842 1056 l 1,6,7
 963 933 963 933 1030.5 766 c 128,-1,8
 1098 599 1098 599 1098 395 c 2,9,-1
 1098 315 l 2,10,11
 1098 142 1098 142 1032 10 c 128,-1,12
 966 -122 966 -122 851.5 -196 c 128,-1,13
 737 -270 737 -270 591 -270 c 0,14,15
 443 -270 443 -270 331 -204.5 c 128,-1,16
 219 -139 219 -139 156.5 -28.5 c 128,-1,17
 94 82 94 82 94 218 c 0,18,19
 94 369 94 369 148.5 481.5 c 128,-1,20
 203 594 203 594 304.5 656.5 c 128,-1,21
 406 719 406 719 545 719 c 0,22,23
 618 719 618 719 682.5 697 c 128,-1,24
 747 675 747 675 799 635 c 1,25,26
 773 722 773 722 729.5 792 c 128,-1,27
 686 862 686 862 629 918 c 1,28,-1
 431 790 l 1,29,-1
 356 899 l 1,30,-1
 520 1005 l 1,31,32
 456 1047 456 1047 385 1076.5 c 128,-1,33
 314 1106 314 1106 240 1126 c 1,0,-1
359 218 m 0,34,35
 359 144 359 144 386.5 80 c 128,-1,36
 414 16 414 16 467 -23 c 128,-1,37
 520 -62 520 -62 595 -62 c 0,38,39
 711 -62 711 -62 771.5 40 c 128,-1,40
 832 142 832 142 832 294 c 2,41,-1
 832 397 l 2,42,43
 832 412 832 412 832 426 c 1,44,45
 803 465 803 465 746.5 493 c 128,-1,46
 690 521 690 521 604 521 c 0,47,48
 483 521 483 521 421 439.5 c 128,-1,49
 359 358 359 358 359 218 c 0,34,35
EndSplineSet
Substitution2: "'unic' Unicase lookup 2 subtable" Eth
Substitution2: "'smcp' Lowercase to Small Capitals lookup 1 subtable" Eth.smcp
EndChar

StartChar: exclam
Encoding: 33 33 405
Width: 588
VWidth: 1798
GlyphClass: 2
Flags: W
LayerCount: 2
Fore
SplineSet
166 1147 m 1,0,-1
 427 1147 l 1,1,-1
 405 220 l 1,2,-1
 188 220 l 1,3,-1
 166 1147 l 1,0,-1
129 -89 m 0,4,5
 129 -21 129 -21 177.5 25 c 128,-1,6
 226 71 226 71 294 71 c 256,7,8
 362 71 362 71 410.5 25 c 128,-1,9
 459 -21 459 -21 459 -89 c 256,10,11
 459 -157 459 -157 410.5 -203 c 128,-1,12
 362 -249 362 -249 294 -249 c 0,13,14
 224 -249 224 -249 176.5 -203.5 c 128,-1,15
 129 -158 129 -158 129 -89 c 0,4,5
EndSplineSet
EndChar

StartChar: exclamdown
Encoding: 161 161 407
Width: 561
VWidth: 1798
GlyphClass: 2
Flags: W
LayerCount: 2
Fore
SplineSet
431 713 m 0,0,1
 431 655 431 655 390.5 614.5 c 128,-1,2
 350 574 350 574 281 574 c 256,3,4
 212 574 212 574 171.5 614.5 c 128,-1,5
 131 655 131 655 131 713 c 0,6,7
 131 772 131 772 171.5 812 c 128,-1,8
 212 852 212 852 281 852 c 256,9,10
 350 852 350 852 390.5 812 c 128,-1,11
 431 772 431 772 431 713 c 0,0,1
142 -617 m 1,12,-1
 171 402 l 1,13,-1
 394 402 l 1,14,-1
 423 -617 l 1,15,-1
 142 -617 l 1,12,-1
EndSplineSet
EndChar

StartChar: f
Encoding: 102 102 408
Width: 728
VWidth: 1798
GlyphClass: 2
Flags: W
AnchorPoint: "Anchor-1" 330 -240 basechar 0
AnchorPoint: "Anchor-0" 502 1504 basechar 0
LayerCount: 2
Fore
SplineSet
465 -250 m 1,0,-1
 199 -250 l 1,1,-1
 199 642 l 1,2,-1
 36 642 l 1,3,-1
 36 832 l 1,4,-1
 199 832 l 1,5,-1
 199 932 l 2,6,7
 199 1114 199 1114 303 1210.5 c 128,-1,8
 407 1307 407 1307 585 1307 c 0,9,10
 623 1307 623 1307 659.5 1301.5 c 128,-1,11
 696 1296 696 1296 730 1288 c 1,12,-1
 725 1087 l 1,13,14
 686 1096 686 1096 634 1096 c 0,15,16
 553 1096 553 1096 509 1054 c 128,-1,17
 465 1012 465 1012 465 932 c 2,18,-1
 465 832 l 1,19,-1
 684 832 l 1,20,-1
 684 642 l 1,21,-1
 465 642 l 1,22,-1
 465 -250 l 1,0,-1
EndSplineSet
Substitution2: "'unic' Unicase lookup 2 subtable" F
Substitution2: "'smcp' Lowercase to Small Capitals lookup 1 subtable" F.smcp
EndChar

StartChar: f_f_i
Encoding: 64259 64259 410
Width: 1868
GlyphClass: 3
Flags: W
LayerCount: 2
Fore
SplineSet
465 0 m 1,0,-1
 199 0 l 1,1,-1
 199 892 l 1,2,-1
 36 892 l 1,3,-1
 36 1082 l 1,4,-1
 199 1082 l 1,5,-1
 199 1182 l 2,6,7
 199 1364 199 1364 303 1460.5 c 128,-1,8
 407 1557 407 1557 585 1557 c 0,9,10
 623 1557 623 1557 659.5 1551.5 c 128,-1,11
 696 1546 696 1546 730 1538 c 1,12,-1
 725 1337 l 1,13,14
 686 1346 686 1346 634 1346 c 0,15,16
 553 1346 553 1346 509 1304 c 128,-1,17
 465 1262 465 1262 465 1182 c 2,18,-1
 465 1082 l 1,19,-1
 834 1082 l 1,20,-1
 834 1142 l 2,21,22
 834 1344 834 1344 954.5 1450.5 c 128,-1,23
 1075 1557 1075 1557 1289 1557 c 0,24,25
 1372 1557 1372 1557 1449.5 1540.5 c 128,-1,26
 1527 1524 1527 1524 1609 1498 c 1,27,-1
 1570 1284 l 1,28,29
 1517 1301 1517 1301 1454 1316 c 128,-1,30
 1391 1331 1391 1331 1306 1331 c 0,31,32
 1099 1331 1099 1331 1099 1142 c 2,33,-1
 1099 1082 l 1,34,-1
 1315 1082 l 1,35,-1
 1315 892 l 1,36,-1
 1099 892 l 1,37,-1
 1099 0 l 1,38,-1
 834 0 l 1,39,-1
 834 892 l 1,40,-1
 465 892 l 1,41,-1
 465 0 l 1,0,-1
1733 1082 m 1,42,-1
 1733 0 l 1,43,-1
 1468 0 l 1,44,-1
 1468 1082 l 1,45,-1
 1733 1082 l 1,42,-1
EndSplineSet
Ligature2: "'liga' Standard Ligatures in Latin lookup 10 subtable" f f i
EndChar

StartChar: f_f_l
Encoding: 64260 64260 411
Width: 1868
GlyphClass: 3
Flags: W
LayerCount: 2
Fore
SplineSet
465 0 m 1,0,-1
 199 0 l 1,1,-1
 199 892 l 1,2,-1
 36 892 l 1,3,-1
 36 1082 l 1,4,-1
 199 1082 l 1,5,-1
 199 1182 l 2,6,7
 199 1364 199 1364 303 1460.5 c 128,-1,8
 407 1557 407 1557 585 1557 c 0,9,10
 623 1557 623 1557 659.5 1551.5 c 128,-1,11
 696 1546 696 1546 730 1538 c 1,12,-1
 725 1337 l 1,13,14
 686 1346 686 1346 634 1346 c 0,15,16
 553 1346 553 1346 509 1304 c 128,-1,17
 465 1262 465 1262 465 1182 c 2,18,-1
 465 1082 l 1,19,-1
 834 1082 l 1,20,-1
 834 1172 l 2,21,22
 834 1359 834 1359 946 1458 c 128,-1,23
 1058 1557 1058 1557 1262 1557 c 0,24,25
 1318 1557 1318 1557 1401.5 1551 c 128,-1,26
 1485 1545 1485 1545 1573.5 1535.5 c 128,-1,27
 1662 1526 1662 1526 1733 1517 c 1,28,-1
 1733 0 l 1,29,-1
 1468 0 l 1,30,-1
 1468 1334 l 1,31,32
 1422 1340 1422 1340 1379 1343 c 128,-1,33
 1336 1346 1336 1346 1296 1346 c 0,34,35
 1201 1346 1201 1346 1150 1301 c 128,-1,36
 1099 1256 1099 1256 1099 1172 c 2,37,-1
 1099 1082 l 1,38,-1
 1319 1082 l 1,39,-1
 1319 892 l 1,40,-1
 1099 892 l 1,41,-1
 1099 0 l 1,42,-1
 834 0 l 1,43,-1
 834 892 l 1,44,-1
 465 892 l 1,45,-1
 465 0 l 1,0,-1
EndSplineSet
Ligature2: "'liga' Standard Ligatures in Latin lookup 11 subtable" f f l
EndChar

StartChar: f_l
Encoding: 64258 64258 412
Width: 1234
GlyphClass: 3
Flags: W
LayerCount: 2
Fore
SplineSet
465 0 m 1,0,-1
 199 0 l 1,1,-1
 199 892 l 1,2,-1
 36 892 l 1,3,-1
 36 1082 l 1,4,-1
 199 1082 l 1,5,-1
 199 1172 l 2,6,7
 199 1359 199 1359 311.5 1458 c 128,-1,8
 424 1557 424 1557 628 1557 c 0,9,10
 684 1557 684 1557 767.5 1551 c 128,-1,11
 851 1545 851 1545 939.5 1535.5 c 128,-1,12
 1028 1526 1028 1526 1099 1517 c 1,13,-1
 1099 0 l 1,14,-1
 834 0 l 1,15,-1
 834 1334 l 1,16,17
 787 1340 787 1340 744 1343 c 128,-1,18
 701 1346 701 1346 662 1346 c 0,19,20
 465 1346 465 1346 465 1172 c 2,21,-1
 465 1082 l 1,22,-1
 684 1082 l 1,23,-1
 684 892 l 1,24,-1
 465 892 l 1,25,-1
 465 0 l 1,0,-1
EndSplineSet
Ligature2: "'liga' Standard Ligatures in Latin lookup 11 subtable" f l
EndChar

StartChar: fi
Encoding: 64257 64257 413
Width: 1223
GlyphClass: 3
Flags: W
LayerCount: 2
Fore
SplineSet
453 0 m 1,0,-1
 187 0 l 1,1,-1
 187 892 l 1,2,-1
 24 892 l 1,3,-1
 24 1082 l 1,4,-1
 187 1082 l 1,5,-1
 187 1142 l 2,6,7
 187 1344 187 1344 308 1450.5 c 128,-1,8
 429 1557 429 1557 643 1557 c 0,9,10
 726 1557 726 1557 803.5 1540.5 c 128,-1,11
 881 1524 881 1524 963 1498 c 1,12,-1
 924 1284 l 1,13,14
 871 1301 871 1301 808.5 1316 c 128,-1,15
 746 1331 746 1331 661 1331 c 0,16,17
 453 1331 453 1331 453 1142 c 2,18,-1
 453 1082 l 1,19,-1
 669 1082 l 1,20,-1
 669 892 l 1,21,-1
 453 892 l 1,22,-1
 453 0 l 1,0,-1
1087 1082 m 1,23,-1
 1087 0 l 1,24,-1
 822 0 l 1,25,-1
 822 1082 l 1,26,-1
 1087 1082 l 1,23,-1
EndSplineSet
Ligature2: "'liga' Standard Ligatures in Latin lookup 10 subtable" f i
EndChar

StartChar: figuredash
Encoding: 8210 8210 414
Width: 1025
GlyphClass: 2
Flags: W
LayerCount: 2
Fore
SplineSet
898 419 m 1,0,-1
 127 419 l 1,1,-1
 127 618 l 1,2,-1
 898 618 l 1,3,-1
 898 419 l 1,0,-1
EndSplineSet
EndChar

StartChar: five
Encoding: 53 53 415
Width: 1170
VWidth: 1798
GlyphClass: 2
Flags: W
LayerCount: 2
Fore
SplineSet
367 420 m 1,0,-1
 156 471 l 1,1,-1
 237 1206 l 1,2,-1
 1038 1206 l 1,3,-1
 1038 987 l 1,4,-1
 456 987 l 1,5,-1
 418 647 l 1,6,7
 450 666 450 666 509 685.5 c 128,-1,8
 568 705 568 705 643 705 c 0,9,10
 852 705 852 705 968.5 575 c 128,-1,11
 1085 445 1085 445 1085 217 c 0,12,13
 1085 85 1085 85 1032.5 -26 c 128,-1,14
 980 -137 980 -137 873 -203.5 c 128,-1,15
 766 -270 766 -270 601 -270 c 0,16,17
 477 -270 477 -270 368.5 -221.5 c 128,-1,18
 260 -173 260 -173 191 -79.5 c 128,-1,19
 122 14 122 14 116 149 c 1,20,-1
 377 149 l 1,21,22
 388 49 388 49 446.5 -6.5 c 128,-1,23
 505 -62 505 -62 600 -62 c 0,24,25
 715 -62 715 -62 767.5 20 c 128,-1,26
 820 102 820 102 820 228 c 0,27,28
 820 350 820 350 759 427 c 128,-1,29
 698 504 698 504 573 504 c 0,30,31
 490 504 490 504 445.5 479 c 128,-1,32
 401 454 401 454 367 420 c 1,0,-1
EndSplineSet
Substitution2: "'ss01' Style Set 1 lookup 35 subtable" uni06F5
Substitution2: "'numr' Numerators lookup 21 subtable" five.frac
Substitution2: "'dnom' Denominators lookup 20 subtable" five.sup
Substitution2: "'frac' Diagonal Fractions lookup 19 subtable" five.frac
Substitution2: "Single Substitution lookup 18 subtable" five.sup
Substitution2: "'onum' Oldstyle Figures lookup 14 subtable" five.tnum
Substitution2: "'c2sc' Capitals to Small Capitals lookup 0 subtable" five.smcp
Position2: "'cpsp' Capital Spacing lookup 0 subtable" dx=36 dy=0 dh=72 dv=0
EndChar

StartChar: five.onum
Encoding: 65737 -1 417
Width: 1131
GlyphClass: 1
Flags: W
LayerCount: 2
Fore
SplineSet
360 363 m 1,0,-1
 139 380 l 1,1,-1
 219 1164 l 1,2,-1
 1037 1164 l 1,3,-1
 1037 945 l 1,4,-1
 434 945 l 1,5,-1
 392 613 l 1,6,7
 433 636 433 636 490 650 c 128,-1,8
 547 664 547 664 626 665 c 0,9,10
 837 666 837 666 953 535 c 128,-1,11
 1069 404 1069 404 1069 176 c 0,12,13
 1069 35 1069 35 1008.5 -85.5 c 128,-1,14
 948 -206 948 -206 826 -279.5 c 128,-1,15
 704 -353 704 -353 519 -353 c 0,16,17
 409 -353 409 -353 302.5 -323 c 128,-1,18
 196 -293 196 -293 104 -234 c 1,19,-1
 185 -45 l 1,20,21
 239 -86 239 -86 318.5 -114.5 c 128,-1,22
 398 -143 398 -143 496 -143 c 0,23,24
 602 -143 602 -143 670 -99.5 c 128,-1,25
 738 -56 738 -56 771 16 c 128,-1,26
 804 88 804 88 804 174 c 0,27,28
 804 298 804 298 742.5 381 c 128,-1,29
 681 464 681 464 557 464 c 0,30,31
 478 464 478 464 432.5 436.5 c 128,-1,32
 387 409 387 409 360 363 c 1,0,-1
EndSplineSet
EndChar

StartChar: five.smcp
Encoding: 65738 -1 418
Width: 1059
GlyphClass: 2
Flags: W
LayerCount: 2
Fore
SplineSet
331 519 m 1,0,-1
 120 570 l 1,1,-1
 196 1165 l 1,2,-1
 919 1165 l 1,3,-1
 919 956 l 1,4,-1
 414 956 l 1,5,-1
 381 722 l 1,6,7
 405 733 405 733 460.5 749 c 128,-1,8
 516 765 516 765 582 765 c 0,9,10
 773 765 773 765 877 664.5 c 128,-1,11
 981 564 981 564 981 385 c 0,12,13
 981 280 981 280 933 188.5 c 128,-1,14
 885 97 885 97 787 40.5 c 128,-1,15
 689 -16 689 -16 537 -16 c 0,16,17
 424 -16 424 -16 323 24 c 128,-1,18
 222 64 222 64 158 140 c 128,-1,19
 94 216 94 216 90 323 c 1,20,-1
 354 323 l 1,21,22
 359 253 359 253 408.5 222 c 128,-1,23
 458 191 458 191 537 191 c 0,24,25
 637 191 637 191 676.5 248 c 128,-1,26
 716 305 716 305 716 387 c 0,27,28
 716 474 716 474 664.5 527 c 128,-1,29
 613 580 613 580 514 580 c 0,30,31
 436 580 436 580 396.5 559.5 c 128,-1,32
 357 539 357 539 331 519 c 1,0,-1
EndSplineSet
EndChar

StartChar: five.sup
Encoding: 65739 -1 419
Width: 760
GlyphClass: 2
Flags: W
LayerCount: 2
Fore
SplineSet
246 346 m 1,0,-1
 94 384 l 1,1,-1
 146 789 l 1,2,-1
 644 789 l 1,3,-1
 644 638 l 1,4,-1
 303 638 l 1,5,-1
 282 491 l 1,6,7
 297 497 297 497 335 508 c 128,-1,8
 373 519 373 519 416 519 c 0,9,10
 547 519 547 519 617 452 c 128,-1,11
 687 385 687 385 687 263 c 0,12,13
 687 193 687 193 654 130 c 128,-1,14
 621 67 621 67 553.5 28 c 128,-1,15
 486 -11 486 -11 382 -11 c 0,16,17
 305 -11 305 -11 235 17 c 128,-1,18
 165 45 165 45 121 97 c 128,-1,19
 77 149 77 149 75 221 c 1,20,-1
 268 221 l 1,21,22
 270 178 270 178 301 160 c 128,-1,23
 332 142 332 142 382 142 c 0,24,25
 447 142 447 142 470.5 178 c 128,-1,26
 494 214 494 214 494 264 c 0,27,28
 494 320 494 320 462 353 c 128,-1,29
 430 386 430 386 366 386 c 0,30,31
 314 386 314 386 288 372 c 128,-1,32
 262 358 262 358 246 346 c 1,0,-1
EndSplineSet
EndChar

StartChar: florin
Encoding: 402 402 422
Width: 729
VWidth: 1798
GlyphClass: 2
Flags: W
LayerCount: 2
Fore
SplineSet
667 832 m 1,0,-1
 667 642 l 1,1,-1
 458 642 l 1,2,-1
 457 -311 l 2,3,4
 457 -493 457 -493 362.5 -590 c 128,-1,5
 268 -687 268 -687 101 -687 c 0,6,7
 64 -687 64 -687 32 -683.5 c 128,-1,8
 0 -680 0 -680 -36 -670 c 1,9,-1
 -21 -466 l 1,10,11
 -6 -471 -6 -471 24 -475 c 128,-1,12
 54 -479 54 -479 72 -479 c 0,13,14
 137 -479 137 -479 165 -435.5 c 128,-1,15
 193 -392 193 -392 193 -311 c 2,16,-1
 193 642 l 1,17,-1
 29 642 l 1,18,-1
 29 832 l 1,19,-1
 193 832 l 1,20,-1
 193 932 l 2,21,22
 193 1114 193 1114 295 1210.5 c 128,-1,23
 397 1307 397 1307 578 1307 c 0,24,25
 618 1307 618 1307 656 1301 c 128,-1,26
 694 1295 694 1295 734 1286 c 1,27,-1
 710 1086 l 1,28,29
 689 1091 689 1091 665.5 1093.5 c 128,-1,30
 642 1096 642 1096 610 1096 c 0,31,32
 458 1096 458 1096 458 932 c 2,33,-1
 458 832 l 1,34,-1
 667 832 l 1,0,-1
EndSplineSet
EndChar

StartChar: four
Encoding: 52 52 423
Width: 1170
VWidth: 1798
GlyphClass: 2
Flags: W
LayerCount: 2
Fore
SplineSet
1116 281 m 1,0,-1
 1116 73 l 1,1,-1
 943 73 l 1,2,-1
 943 -250 l 1,3,-1
 678 -250 l 1,4,-1
 678 73 l 1,5,-1
 67 73 l 1,6,-1
 56 233 l 1,7,-1
 673 1206 l 1,8,-1
 943 1206 l 1,9,-1
 943 281 l 1,10,-1
 1116 281 l 1,0,-1
325 281 m 1,11,-1
 678 281 l 1,12,-1
 678 856 l 1,13,-1
 656 819 l 1,14,-1
 325 281 l 1,11,-1
EndSplineSet
Substitution2: "'ss01' Style Set 1 lookup 35 subtable" uni06F4
Substitution2: "'numr' Numerators lookup 21 subtable" four.frac
Substitution2: "'dnom' Denominators lookup 20 subtable" four.sup
Substitution2: "'frac' Diagonal Fractions lookup 19 subtable" four.frac
Substitution2: "Single Substitution lookup 18 subtable" four.sup
Substitution2: "'onum' Oldstyle Figures lookup 14 subtable" four.tnum
Substitution2: "'c2sc' Capitals to Small Capitals lookup 0 subtable" four.smcp
Position2: "'cpsp' Capital Spacing lookup 0 subtable" dx=36 dy=0 dh=72 dv=0
EndChar

StartChar: four.onum
Encoding: 65742 -1 425
Width: 1203
GlyphClass: 1
Flags: W
LayerCount: 2
Fore
SplineSet
1150 208 m 1,0,-1
 1150 -1 l 1,1,-1
 978 -1 l 1,2,-1
 978 -310 l 1,3,-1
 714 -310 l 1,4,-1
 714 -1 l 1,5,-1
 58 -1 l 1,6,-1
 48 160 l 1,7,-1
 708 1164 l 1,8,-1
 978 1164 l 1,9,-1
 978 208 l 1,10,-1
 1150 208 l 1,0,-1
320 208 m 1,11,-1
 714 208 l 1,12,-1
 714 815 l 1,13,-1
 689 772 l 1,14,-1
 320 208 l 1,11,-1
EndSplineSet
EndChar

StartChar: four.smcp
Encoding: 65743 -1 426
Width: 1059
GlyphClass: 2
Flags: W
LayerCount: 2
Fore
SplineSet
1008 456 m 1,0,-1
 1008 246 l 1,1,-1
 862 246 l 1,2,-1
 862 0 l 1,3,-1
 597 0 l 1,4,-1
 597 246 l 1,5,-1
 65 246 l 1,6,-1
 52 413 l 1,7,-1
 595 1165 l 1,8,-1
 862 1165 l 1,9,-1
 862 456 l 1,10,-1
 1008 456 l 1,0,-1
312 456 m 1,11,-1
 597 456 l 1,12,-1
 597 839 l 1,13,-1
 576 806 l 1,14,-1
 312 456 l 1,11,-1
EndSplineSet
EndChar

StartChar: four.sup
Encoding: 65744 -1 427
Width: 760
GlyphClass: 2
Flags: W
LayerCount: 2
Fore
SplineSet
704 318 m 1,0,-1
 704 163 l 1,1,-1
 610 163 l 1,2,-1
 610 0 l 1,3,-1
 418 0 l 1,4,-1
 418 163 l 1,5,-1
 65 163 l 1,6,-1
 54 288 l 1,7,-1
 416 789 l 1,8,-1
 610 789 l 1,9,-1
 610 318 l 1,10,-1
 704 318 l 1,0,-1
240 318 m 1,11,-1
 418 318 l 1,12,-1
 418 555 l 1,13,-1
 402 530 l 1,14,-1
 240 318 l 1,11,-1
EndSplineSet
EndChar

StartChar: fraction
Encoding: 8260 8260 429
Width: 916
GlyphClass: 2
Flags: W
LayerCount: 2
Fore
SplineSet
879 1248 m 1,0,-1
 168 110 l 1,1,-1
 36 183 l 1,2,-1
 747 1321 l 1,3,-1
 879 1248 l 1,0,-1
EndSplineSet
EndChar

StartChar: g
Encoding: 103 103 431
Width: 1165
VWidth: 1798
GlyphClass: 2
Flags: W
AnchorPoint: "Anchor-1" 554 -697 basechar 0
AnchorPoint: "Anchor-0" 556 1040 basechar 0
LayerCount: 2
Fore
SplineSet
76 278 m 2,0,-1
 76 299 l 2,1,2
 76 464 76 464 128.5 588.5 c 128,-1,3
 181 713 181 713 278.5 782.5 c 128,-1,4
 376 852 376 852 511 852 c 0,5,6
 608 852 608 852 678 818.5 c 128,-1,7
 748 785 748 785 796 725 c 1,8,-1
 807 832 l 1,9,-1
 1047 832 l 1,10,-1
 1047 -217 l 2,11,12
 1047 -364 1047 -364 983 -466.5 c 128,-1,13
 919 -569 919 -569 805.5 -622.5 c 128,-1,14
 692 -676 692 -676 541 -676 c 0,15,16
 476 -676 476 -676 400.5 -658 c 128,-1,17
 325 -640 325 -640 255.5 -601.5 c 128,-1,18
 186 -563 186 -563 140 -502 c 1,19,-1
 259 -346 l 1,20,21
 367 -474 367 -474 528 -474 c 0,22,23
 647 -474 647 -474 714.5 -408.5 c 128,-1,24
 782 -343 782 -343 782 -220 c 2,25,-1
 782 -152 l 1,26,27
 733 -208 733 -208 665.5 -239 c 128,-1,28
 598 -270 598 -270 509 -270 c 0,29,30
 376 -270 376 -270 278.5 -198.5 c 128,-1,31
 181 -127 181 -127 128.5 -3 c 128,-1,32
 76 121 76 121 76 278 c 2,0,-1
340 299 m 2,33,-1
 340 278 l 2,34,35
 340 185 340 185 365 108.5 c 128,-1,36
 390 32 390 32 442 -13.5 c 128,-1,37
 494 -59 494 -59 575 -59 c 0,38,39
 652 -59 652 -59 702.5 -28 c 128,-1,40
 753 3 753 3 782 56 c 1,41,-1
 782 528 l 1,42,43
 753 581 753 581 703 611.5 c 128,-1,44
 653 642 653 642 577 642 c 0,45,46
 496 642 496 642 443.5 596 c 128,-1,47
 391 550 391 550 365.5 472.5 c 128,-1,48
 340 395 340 395 340 299 c 2,33,-1
EndSplineSet
Substitution2: "'salt' Stylistic Alternatives lookup 13 subtable" g.alt
Substitution2: "'unic' Unicase lookup 2 subtable" G
Substitution2: "'smcp' Lowercase to Small Capitals lookup 1 subtable" G.smcp
EndChar

StartChar: g.alt
Encoding: 65746 -1 432
Width: 1083
GlyphClass: 2
Flags: W
LayerCount: 2
Fore
SplineSet
61 716 m 2,0,-1
 61 738 l 2,1,2
 61 846 61 846 118.5 928 c 128,-1,3
 176 1010 176 1010 279.5 1056 c 128,-1,4
 383 1102 383 1102 520 1102 c 0,5,6
 609 1102 609 1102 686 1082 c 1,7,-1
 1048 1082 l 1,8,-1
 1050 932 l 1,9,-1
 921 932 l 1,10,11
 981 848 981 848 981 738 c 2,12,-1
 981 716 l 2,13,14
 981 615 981 615 924 532 c 128,-1,15
 867 449 867 449 764 400 c 128,-1,16
 661 351 661 351 522 351 c 0,17,18
 446 351 446 351 377 367 c 1,19,20
 364 354 364 354 354.5 336 c 128,-1,21
 345 318 345 318 345 294 c 0,22,23
 345 248 345 248 381.5 233 c 128,-1,24
 418 218 418 218 472 218 c 2,25,-1
 653 218 l 2,26,27
 838 218 838 218 941.5 141.5 c 128,-1,28
 1045 65 1045 65 1045 -82 c 0,29,30
 1045 -163 1045 -163 980 -245 c 128,-1,31
 915 -327 915 -327 792 -382.5 c 128,-1,32
 669 -438 669 -438 494 -438 c 0,33,34
 335 -438 335 -438 225.5 -399.5 c 128,-1,35
 116 -361 116 -361 60 -298 c 128,-1,36
 4 -235 4 -235 4 -162 c 0,37,38
 4 -69 4 -69 61.5 -6 c 128,-1,39
 119 57 119 57 196 92 c 1,40,41
 147 141 147 141 147 216 c 0,42,43
 147 285 147 285 182.5 331.5 c 128,-1,44
 218 378 218 378 263 408 c 1,45,46
 168 457 168 457 114.5 538 c 128,-1,47
 61 619 61 619 61 716 c 2,0,-1
324 738 m 2,48,-1
 324 716 l 2,49,50
 324 651 324 651 377 599.5 c 128,-1,51
 430 548 430 548 522 548 c 256,52,53
 614 548 614 548 666 599.5 c 128,-1,54
 718 651 718 651 718 716 c 2,55,-1
 718 738 l 2,56,57
 718 807 718 807 665 855.5 c 128,-1,58
 612 904 612 904 520 904 c 0,59,60
 430 904 430 904 377 855.5 c 128,-1,61
 324 807 324 807 324 738 c 2,48,-1
256 -102 m 0,62,63
 256 -158 256 -158 314 -199.5 c 128,-1,64
 372 -241 372 -241 494 -241 c 0,65,66
 642 -241 642 -241 711.5 -192 c 128,-1,67
 781 -143 781 -143 781 -92 c 0,68,69
 781 -45 781 -45 746.5 -12.5 c 128,-1,70
 712 20 712 20 619 20 c 2,71,-1
 422 20 l 2,72,73
 376 20 376 20 335 27 c 1,74,75
 301 10 301 10 278.5 -24 c 128,-1,76
 256 -58 256 -58 256 -102 c 0,62,63
EndSplineSet
EndChar

StartChar: germandbls
Encoding: 223 223 437
Width: 1277
VWidth: 1798
GlyphClass: 2
Flags: W
LayerCount: 2
Fore
SplineSet
401 852 m 2,0,-1
 401 -250 l 1,1,-1
 137 -250 l 1,2,-1
 137 855 l 2,3,4
 137 1079 137 1079 260.5 1193.5 c 128,-1,5
 384 1308 384 1308 593 1308 c 0,6,7
 708 1308 708 1308 801 1268 c 128,-1,8
 894 1228 894 1228 949 1148.5 c 128,-1,9
 1004 1069 1004 1069 1004 948 c 0,10,11
 1004 872 1004 872 987 825 c 128,-1,12
 970 778 970 778 948.5 743.5 c 128,-1,13
 927 709 927 709 910 672 c 128,-1,14
 893 635 893 635 893 578 c 0,15,16
 893 533 893 533 924.5 494 c 128,-1,17
 956 455 956 455 1002.5 416 c 128,-1,18
 1049 377 1049 377 1095 331 c 128,-1,19
 1141 285 1141 285 1172.5 227.5 c 128,-1,20
 1204 170 1204 170 1204 94 c 0,21,22
 1204 -82 1204 -82 1089.5 -176 c 128,-1,23
 975 -270 975 -270 771 -270 c 0,24,25
 693 -270 693 -270 610.5 -252 c 128,-1,26
 528 -234 528 -234 488 -209 c 1,27,-1
 539 -3 l 1,28,29
 571 -22 571 -22 631 -42 c 128,-1,30
 691 -62 691 -62 763 -62 c 0,31,32
 850 -62 850 -62 895 -20.5 c 128,-1,33
 940 21 940 21 940 88 c 0,34,35
 940 139 940 139 908.5 179 c 128,-1,36
 877 219 877 219 830.5 256 c 128,-1,37
 784 293 784 293 737.5 336 c 128,-1,38
 691 379 691 379 659.5 435 c 128,-1,39
 628 491 628 491 628 569 c 0,40,41
 628 634 628 634 645.5 678 c 128,-1,42
 663 722 663 722 685.5 758.5 c 128,-1,43
 708 795 708 795 725.5 835 c 128,-1,44
 743 875 743 875 743 933 c 0,45,46
 743 1012 743 1012 696.5 1056 c 128,-1,47
 650 1100 650 1100 579 1100 c 0,48,49
 497 1100 497 1100 449 1043.5 c 128,-1,50
 401 987 401 987 401 852 c 2,0,-1
EndSplineSet
Substitution2: "'smcp' Lowercase to Small Capitals lookup 1 subtable" Germandbls.smcp
EndChar

StartChar: grave
Encoding: 96 96 438
Width: 666
VWidth: 1798
GlyphClass: 2
Flags: W
LayerCount: 2
Fore
SplineSet
349 1286 m 1,0,-1
 545 982 l 1,1,-1
 326 982 l 1,2,-1
 56 1286 l 1,3,-1
 349 1286 l 1,0,-1
EndSplineSet
EndChar

StartChar: gravecomb
Encoding: 768 768 439
Width: 0
VWidth: 1798
GlyphClass: 4
Flags: W
AnchorPoint: "Anchor-3" -530 1391 basemark 0
AnchorPoint: "Anchor-3" -530 1040 mark 0
AnchorPoint: "Anchor-0" -530 1040 mark 0
LayerCount: 2
Fore
SplineSet
-593 1286 m 1,0,-1
 -396 982 l 1,1,-1
 -615 982 l 1,2,-1
 -885 1286 l 1,3,-1
 -593 1286 l 1,0,-1
EndSplineSet
EndChar

StartChar: greater
Encoding: 62 62 440
Width: 1061
VWidth: 1798
GlyphClass: 2
Flags: W
LayerCount: 2
Fore
SplineSet
122 156 m 1,0,-1
 725 381 l 1,1,-1
 122 600 l 1,2,-1
 122 852 l 1,3,-1
 990 483 l 1,4,-1
 990 274 l 1,5,-1
 122 -95 l 1,6,-1
 122 156 l 1,0,-1
EndSplineSet
EndChar

StartChar: greaterequal
Encoding: 8805 8805 441
Width: 1061
GlyphClass: 2
Flags: W
LayerCount: 2
Fore
SplineSet
122 515 m 1,0,-1
 726 709 l 1,1,-1
 122 900 l 1,2,-1
 122 1111 l 1,3,-1
 990 796 l 1,4,-1
 990 619 l 1,5,-1
 122 303 l 1,6,-1
 122 515 l 1,0,-1
980 198 m 1,7,-1
 980 1 l 1,8,-1
 122 1 l 1,9,-1
 122 198 l 1,10,-1
 980 198 l 1,7,-1
EndSplineSet
EndChar

StartChar: guillemotleft
Encoding: 171 171 442
Width: 955
VWidth: 1798
GlyphClass: 2
Flags: W
LayerCount: 2
Fore
SplineSet
479 -160 m 1,0,-1
 353 -278 l 1,1,2
 219 -125 219 -125 154.5 -3.5 c 128,-1,3
 90 118 90 118 90 233 c 0,4,5
 90 349 90 349 154.5 470 c 128,-1,6
 219 591 219 591 353 744 c 1,7,-1
 479 624 l 1,8,9
 392 497 392 497 348.5 406.5 c 128,-1,10
 305 316 305 316 305 233 c 256,11,12
 305 150 305 150 349 59 c 128,-1,13
 393 -32 393 -32 479 -160 c 1,0,-1
858 -160 m 1,14,-1
 732 -278 l 1,15,16
 599 -125 599 -125 531.5 -3.5 c 128,-1,17
 464 118 464 118 464 233 c 0,18,19
 464 349 464 349 531 470 c 128,-1,20
 598 591 598 591 733 744 c 1,21,-1
 858 624 l 1,22,23
 771 497 771 497 728 406.5 c 128,-1,24
 685 316 685 316 685 233 c 256,25,26
 685 150 685 150 728.5 59 c 128,-1,27
 772 -32 772 -32 858 -160 c 1,14,-1
EndSplineSet
EndChar

StartChar: guillemotright
Encoding: 187 187 443
Width: 955
VWidth: 1798
GlyphClass: 2
Flags: W
LayerCount: 2
Fore
SplineSet
475 -160 m 1,0,1
 562 -32 562 -32 605.5 59 c 128,-1,2
 649 150 649 150 649 233 c 256,3,4
 649 316 649 316 605.5 406.5 c 128,-1,5
 562 497 562 497 475 624 c 1,6,-1
 601 744 l 1,7,8
 735 591 735 591 799.5 470 c 128,-1,9
 864 349 864 349 864 233 c 0,10,11
 864 118 864 118 799.5 -3.5 c 128,-1,12
 735 -125 735 -125 601 -278 c 1,13,-1
 475 -160 l 1,0,1
96 -160 m 1,14,15
 183 -32 183 -32 226.5 59 c 128,-1,16
 270 150 270 150 270 233 c 256,17,18
 270 316 270 316 226.5 406.5 c 128,-1,19
 183 497 183 497 96 624 c 1,20,-1
 222 744 l 1,21,22
 356 591 356 591 423 470 c 128,-1,23
 490 349 490 349 490 233 c 0,24,25
 490 118 490 118 423 -3.5 c 128,-1,26
 356 -125 356 -125 222 -278 c 1,27,-1
 96 -160 l 1,14,15
EndSplineSet
EndChar

StartChar: guilsinglleft
Encoding: 8249 8249 444
Width: 634
GlyphClass: 2
Flags: W
LayerCount: 2
Fore
SplineSet
567 931 m 1,0,-1
 323 533 l 1,1,-1
 567 134 l 1,2,-1
 392 134 l 1,3,-1
 108 523 l 1,4,-1
 108 542 l 1,5,-1
 392 931 l 1,6,-1
 567 931 l 1,0,-1
EndSplineSet
EndChar

StartChar: guilsinglright
Encoding: 8250 8250 445
Width: 618
GlyphClass: 2
Flags: W
LayerCount: 2
Fore
SplineSet
83 133 m 1,0,-1
 327 532 l 1,1,-1
 83 931 l 1,2,-1
 259 931 l 1,3,-1
 542 541 l 1,4,-1
 542 522 l 1,5,-1
 259 133 l 1,6,-1
 83 133 l 1,0,-1
EndSplineSet
EndChar

StartChar: h
Encoding: 104 104 446
Width: 1143
VWidth: 1798
GlyphClass: 2
Flags: W
AnchorPoint: "Anchor-1" 588 -240 basechar 0
AnchorPoint: "Anchor-0" 501 1361 basechar 0
LayerCount: 2
Fore
SplineSet
378 1286 m 1,0,-1
 378 710 l 1,1,2
 432 777 432 777 507.5 814.5 c 128,-1,3
 583 852 583 852 674 852 c 0,4,5
 835 852 835 852 932.5 758 c 128,-1,6
 1030 664 1030 664 1030 440 c 2,7,-1
 1030 -250 l 1,8,-1
 764 -250 l 1,9,-1
 764 442 l 2,10,11
 764 554 764 554 716.5 598 c 128,-1,12
 669 642 669 642 580 642 c 0,13,14
 507 642 507 642 457 610 c 128,-1,15
 407 578 407 578 378 524 c 1,16,-1
 378 -250 l 1,17,-1
 113 -250 l 1,18,-1
 113 1286 l 1,19,-1
 378 1286 l 1,0,-1
EndSplineSet
Substitution2: "'unic' Unicase lookup 2 subtable" H
Substitution2: "'smcp' Lowercase to Small Capitals lookup 1 subtable" H.smcp
EndChar

StartChar: hbar
Encoding: 295 295 447
Width: 1173
VWidth: 1798
GlyphClass: 2
Flags: W
AnchorPoint: "Anchor-1" 588 -240 basechar 0
AnchorPoint: "Anchor-0" 501 1361 basechar 0
LayerCount: 2
Fore
SplineSet
670 1144 m 1,0,-1
 670 972 l 1,1,-1
 408 972 l 1,2,-1
 408 710 l 1,3,4
 462 777 462 777 537.5 814.5 c 128,-1,5
 613 852 613 852 704 852 c 0,6,7
 865 852 865 852 962.5 758 c 128,-1,8
 1060 664 1060 664 1060 440 c 2,9,-1
 1060 -250 l 1,10,-1
 794 -250 l 1,11,-1
 794 442 l 2,12,13
 794 554 794 554 746.5 598 c 128,-1,14
 699 642 699 642 610 642 c 0,15,16
 537 642 537 642 487 610 c 128,-1,17
 437 578 437 578 408 524 c 1,18,-1
 408 -250 l 1,19,-1
 143 -250 l 1,20,-1
 143 972 l 1,21,-1
 -16 972 l 1,22,-1
 -16 1144 l 1,23,-1
 143 1144 l 1,24,-1
 143 1286 l 1,25,-1
 408 1286 l 1,26,-1
 408 1144 l 1,27,-1
 670 1144 l 1,0,-1
EndSplineSet
Substitution2: "'unic' Unicase lookup 2 subtable" Hbar
Substitution2: "'smcp' Lowercase to Small Capitals lookup 1 subtable" Hbar.smcp
EndChar

StartChar: hook
Encoding: 777 777 449
Width: 0
VWidth: 1798
GlyphClass: 4
Flags: W
AnchorPoint: "Anchor-3" -590 1471 basemark 0
AnchorPoint: "Anchor-3" -590 1024 mark 0
AnchorPoint: "Anchor-0" -590 1024 mark 0
LayerCount: 2
Fore
SplineSet
-506 1010 m 1,0,-1
 -704 1010 l 1,1,-1
 -716 1148 l 1,2,3
 -642 1152 -642 1152 -608.5 1167.5 c 128,-1,4
 -575 1183 -575 1183 -575 1217 c 0,5,6
 -575 1258 -575 1258 -618 1273 c 128,-1,7
 -661 1288 -661 1288 -725 1288 c 1,8,-1
 -718 1415 l 1,9,10
 -539 1415 -539 1415 -446.5 1363 c 128,-1,11
 -354 1311 -354 1311 -354 1222 c 0,12,13
 -354 1152 -354 1152 -402 1118 c 128,-1,14
 -450 1084 -450 1084 -506 1076 c 1,15,-1
 -506 1010 l 1,0,-1
EndSplineSet
EndChar

StartChar: hungarumlaut
Encoding: 733 733 450
Width: 827
VWidth: 1798
GlyphClass: 2
Flags: W
LayerCount: 2
Fore
SplineSet
403 984 m 1,0,-1
 631 1285 l 1,1,-1
 875 1285 l 1,2,-1
 608 984 l 1,3,-1
 403 984 l 1,0,-1
67 984 m 1,4,-1
 251 1285 l 1,5,-1
 492 1285 l 1,6,-1
 264 984 l 1,7,-1
 67 984 l 1,4,-1
EndSplineSet
EndChar

StartChar: hyphen
Encoding: 45 45 451
Width: 976
VWidth: 1798
GlyphClass: 2
Flags: W
LayerCount: 2
Fore
SplineSet
852 167 m 1,0,-1
 124 167 l 1,1,-1
 124 370 l 1,2,-1
 852 370 l 1,3,-1
 852 167 l 1,0,-1
EndSplineSet
EndChar

StartChar: hyphendot
Encoding: 8231 8231 453
Width: 497
GlyphClass: 2
Flags: W
LayerCount: 2
Fore
SplineSet
99 624 m 0,0,1
 99 683 99 683 139.5 722 c 128,-1,2
 180 761 180 761 248 761 c 0,3,4
 318 761 318 761 358.5 722 c 128,-1,5
 399 683 399 683 399 624 c 0,6,7
 399 566 399 566 358.5 527 c 128,-1,8
 318 488 318 488 248 488 c 0,9,10
 180 488 180 488 139.5 527 c 128,-1,11
 99 566 99 566 99 624 c 0,0,1
EndSplineSet
EndChar

StartChar: i
Encoding: 105 105 455
Width: 532
VWidth: 1798
GlyphClass: 2
Flags: W
AnchorPoint: "Anchor-1" 249 -240 basechar 0
AnchorPoint: "Anchor-0" 251 1350 basechar 0
LayerCount: 2
Fore
SplineSet
116 1115 m 0,0,1
 116 1174 116 1174 156.5 1213 c 128,-1,2
 197 1252 197 1252 266 1252 c 256,3,4
 335 1252 335 1252 375.5 1213 c 128,-1,5
 416 1174 416 1174 416 1115 c 0,6,7
 416 1057 416 1057 375.5 1018 c 128,-1,8
 335 979 335 979 266 979 c 256,9,10
 197 979 197 979 156.5 1018 c 128,-1,11
 116 1057 116 1057 116 1115 c 0,0,1
399 832 m 1,12,-1
 399 -250 l 1,13,-1
 134 -250 l 1,14,-1
 134 832 l 1,15,-1
 399 832 l 1,12,-1
EndSplineSet
Substitution2: "Single Substitution lookup 3 subtable" uni0069.ccmp
Substitution2: "'unic' Unicase lookup 2 subtable" I
Substitution2: "'smcp' Lowercase to Small Capitals lookup 1 subtable" I.smcp
EndChar

StartChar: infinity
Encoding: 8734 8734 463
Width: 2140
GlyphClass: 2
Flags: W
LayerCount: 2
Fore
SplineSet
96 530 m 2,0,-1
 96 551 l 2,1,2
 96 703 96 703 158.5 828 c 128,-1,3
 221 953 221 953 334.5 1027.5 c 128,-1,4
 448 1102 448 1102 602 1102 c 0,5,6
 720 1102 720 1102 808.5 1055.5 c 128,-1,7
 897 1009 897 1009 961 936 c 128,-1,8
 1025 863 1025 863 1067 783 c 1,9,10
 1109 863 1109 863 1173 936 c 128,-1,11
 1237 1009 1237 1009 1325.5 1055.5 c 128,-1,12
 1414 1102 1414 1102 1532 1102 c 0,13,14
 1687 1102 1687 1102 1800.5 1027.5 c 128,-1,15
 1914 953 1914 953 1976 828 c 128,-1,16
 2038 703 2038 703 2038 551 c 2,17,-1
 2038 530 l 2,18,19
 2038 378 2038 378 1976 253 c 128,-1,20
 1914 128 1914 128 1800 54 c 128,-1,21
 1686 -20 1686 -20 1530 -20 c 0,22,23
 1413 -20 1413 -20 1324.5 27.5 c 128,-1,24
 1236 75 1236 75 1172.5 149.5 c 128,-1,25
 1109 224 1109 224 1067 306 c 1,26,27
 1024 224 1024 224 961 149.5 c 128,-1,28
 898 75 898 75 809.5 27.5 c 128,-1,29
 721 -20 721 -20 604 -20 c 0,30,31
 449 -20 449 -20 335 54 c 128,-1,32
 221 128 221 128 158.5 253 c 128,-1,33
 96 378 96 378 96 530 c 2,0,-1
355 551 m 2,34,-1
 355 530 l 2,35,36
 355 436 355 436 385 359.5 c 128,-1,37
 415 283 415 283 473 238 c 128,-1,38
 531 193 531 193 616 193 c 0,39,40
 694 193 694 193 752 235.5 c 128,-1,41
 810 278 810 278 848.5 337.5 c 128,-1,42
 887 397 887 397 907.5 451.5 c 128,-1,43
 928 506 928 506 932 530 c 1,44,-1
 932 562 l 1,45,46
 928 585 928 585 907.5 637.5 c 128,-1,47
 887 690 887 690 848.5 748 c 128,-1,48
 810 806 810 806 752 847 c 128,-1,49
 694 888 694 888 614 888 c 0,50,51
 531 888 531 888 473 842.5 c 128,-1,52
 415 797 415 797 385 720.5 c 128,-1,53
 355 644 355 644 355 551 c 2,34,-1
1779 530 m 2,54,-1
 1779 551 l 2,55,56
 1779 644 1779 644 1749 720.5 c 128,-1,57
 1719 797 1719 797 1661.5 842.5 c 128,-1,58
 1604 888 1604 888 1520 888 c 0,59,60
 1440 888 1440 888 1381.5 847 c 128,-1,61
 1323 806 1323 806 1284.5 748 c 128,-1,62
 1246 690 1246 690 1226 637.5 c 128,-1,63
 1206 585 1206 585 1201 562 c 1,64,-1
 1201 530 l 1,65,66
 1205 506 1205 506 1226 451.5 c 128,-1,67
 1247 397 1247 397 1285.5 337.5 c 128,-1,68
 1324 278 1324 278 1382 235.5 c 128,-1,69
 1440 193 1440 193 1518 193 c 0,70,71
 1602 193 1602 193 1660.5 238 c 128,-1,72
 1719 283 1719 283 1749 359.5 c 128,-1,73
 1779 436 1779 436 1779 530 c 2,54,-1
EndSplineSet
EndChar

StartChar: integral
Encoding: 8747 8747 464
Width: 578
GlyphClass: 2
Flags: W
LayerCount: 2
Fore
SplineSet
415 -64 m 2,0,1
 415 -251 415 -251 317 -344 c 128,-1,2
 219 -437 219 -437 47 -437 c 0,3,4
 -26 -437 -26 -437 -92 -419 c 1,5,-1
 -76 -216 l 1,6,7
 -57 -221 -57 -221 -36 -225 c 128,-1,8
 -15 -229 -15 -229 10 -229 c 0,9,10
 78 -229 78 -229 114 -189.5 c 128,-1,11
 150 -150 150 -150 150 -64 c 2,12,-1
 150 1184 l 2,13,14
 150 1366 150 1366 252 1462 c 128,-1,15
 354 1558 354 1558 535 1558 c 0,16,17
 574 1558 574 1558 612.5 1552 c 128,-1,18
 651 1546 651 1546 691 1537 c 1,19,-1
 667 1339 l 1,20,21
 646 1344 646 1344 624.5 1346.5 c 128,-1,22
 603 1349 603 1349 571 1349 c 0,23,24
 495 1349 495 1349 455 1306 c 128,-1,25
 415 1263 415 1263 415 1184 c 2,26,-1
 415 -64 l 2,0,1
EndSplineSet
EndChar

StartChar: j
Encoding: 106 106 467
Width: 523
VWidth: 1798
GlyphClass: 2
Flags: W
AnchorPoint: "Anchor-1" 190 -709 basechar 0
AnchorPoint: "Anchor-0" 223 1350 basechar 0
LayerCount: 2
Fore
SplineSet
110 1115 m 0,0,1
 110 1174 110 1174 150.5 1213 c 128,-1,2
 191 1252 191 1252 260 1252 c 256,3,4
 329 1252 329 1252 369.5 1213 c 128,-1,5
 410 1174 410 1174 410 1115 c 0,6,7
 410 1057 410 1057 369.5 1018 c 128,-1,8
 329 979 329 979 260 979 c 256,9,10
 191 979 191 979 150.5 1018 c 128,-1,11
 110 1057 110 1057 110 1115 c 0,0,1
132 832 m 1,12,-1
 398 832 l 1,13,-1
 398 -330 l 2,14,15
 398 -503 398 -503 306 -595 c 128,-1,16
 214 -687 214 -687 46 -687 c 0,17,18
 12 -687 12 -687 -23.5 -683 c 128,-1,19
 -59 -679 -59 -679 -93 -670 c 1,20,-1
 -92 -466 l 1,21,22
 -69 -470 -69 -470 -46 -472.5 c 128,-1,23
 -23 -475 -23 -475 -1 -475 c 0,24,25
 64 -475 64 -475 98 -440.5 c 128,-1,26
 132 -406 132 -406 132 -330 c 2,27,-1
 132 832 l 1,12,-1
EndSplineSet
Substitution2: "Single Substitution lookup 3 subtable" uni006A.ccmp
Substitution2: "'unic' Unicase lookup 2 subtable" J
Substitution2: "'smcp' Lowercase to Small Capitals lookup 1 subtable" J.smcp
EndChar

StartChar: k
Encoding: 107 107 469
Width: 1081
VWidth: 1798
GlyphClass: 2
Flags: W
AnchorPoint: "Anchor-1" 529 -179 basechar 0
AnchorPoint: "Anchor-0" 549 1361 basechar 0
LayerCount: 2
Fore
SplineSet
791 -250 m 1,0,-1
 491 202 l 1,1,-1
 383 93 l 1,2,-1
 383 -250 l 1,3,-1
 119 -250 l 1,4,-1
 119 1287 l 1,5,-1
 383 1287 l 1,6,-1
 383 415 l 1,7,-1
 448 497 l 1,8,-1
 742 832 l 1,9,-1
 1061 832 l 1,10,-1
 661 383 l 1,11,-1
 1097 -250 l 1,12,-1
 791 -250 l 1,0,-1
EndSplineSet
Substitution2: "'unic' Unicase lookup 2 subtable" K
Substitution2: "'smcp' Lowercase to Small Capitals lookup 1 subtable" K.smcp
EndChar

StartChar: kgreenlandic
Encoding: 312 312 471
Width: 1194
VWidth: 1798
GlyphClass: 2
Flags: W
AnchorPoint: "Anchor-1" 590 -240 basechar 0
AnchorPoint: "Anchor-0" 590 1040 basechar 0
LayerCount: 2
Fore
SplineSet
814 -250 m 1,0,-1
 519 168 l 1,1,-1
 400 168 l 1,2,-1
 400 -250 l 1,3,-1
 136 -250 l 1,4,-1
 136 832 l 1,5,-1
 400 832 l 1,6,-1
 400 410 l 1,7,-1
 491 410 l 1,8,-1
 798 832 l 1,9,-1
 1131 832 l 1,10,-1
 736 313 l 1,11,-1
 1152 -250 l 1,12,-1
 814 -250 l 1,0,-1
EndSplineSet
EndChar

StartChar: l
Encoding: 108 108 472
Width: 532
VWidth: 1798
GlyphClass: 2
Flags: W
AnchorPoint: "Anchor-1" 249 -240 basechar 0
AnchorPoint: "Anchor-0" 249 1447 basechar 0
LayerCount: 2
Fore
SplineSet
399 1286 m 1,0,-1
 399 -250 l 1,1,-1
 134 -250 l 1,2,-1
 134 1286 l 1,3,-1
 399 1286 l 1,0,-1
EndSplineSet
Substitution2: "'unic' Unicase lookup 2 subtable" L
Substitution2: "'smcp' Lowercase to Small Capitals lookup 1 subtable" L.smcp
EndChar

StartChar: less
Encoding: 60 60 478
Width: 1043
VWidth: 1798
GlyphClass: 2
Flags: W
LayerCount: 2
Fore
SplineSet
911 598 m 1,0,-1
 328 377 l 1,1,-1
 911 159 l 1,2,-1
 911 -95 l 1,3,-1
 58 274 l 1,4,-1
 58 483 l 1,5,-1
 911 851 l 1,6,-1
 911 598 l 1,0,-1
EndSplineSet
EndChar

StartChar: lessequal
Encoding: 8804 8804 479
Width: 1043
GlyphClass: 2
Flags: W
LayerCount: 2
Fore
SplineSet
911 887 m 1,0,-1
 326 696 l 1,1,-1
 911 508 l 1,2,-1
 911 293 l 1,3,-1
 58 610 l 1,4,-1
 58 785 l 1,5,-1
 911 1101 l 1,6,-1
 911 887 l 1,0,-1
918 199 m 1,7,-1
 918 1 l 1,8,-1
 60 1 l 1,9,-1
 60 199 l 1,10,-1
 918 199 l 1,7,-1
EndSplineSet
EndChar

StartChar: lira
Encoding: 8356 8356 480
Width: 1211
GlyphClass: 2
Flags: W
LayerCount: 2
Fore
SplineSet
830 617 m 1,0,-1
 830 469 l 1,1,-1
 544 469 l 1,2,-1
 546 427 l 2,3,4
 546 364 546 364 530.5 311 c 128,-1,5
 515 258 515 258 480 216 c 1,6,-1
 1153 216 l 1,7,-1
 1153 0 l 1,8,-1
 101 0 l 1,9,-1
 101 216 l 1,10,-1
 192 216 l 1,11,12
 224 224 224 224 240.5 256 c 128,-1,13
 257 288 257 288 262.5 331 c 128,-1,14
 268 374 268 374 268 414 c 2,15,-1
 266 469 l 1,16,-1
 100 469 l 1,17,-1
 100 617 l 1,18,-1
 262 617 l 1,19,-1
 258 736 l 1,20,-1
 100 736 l 1,21,-1
 100 884 l 1,22,-1
 253 884 l 1,23,-1
 248 1039 l 1,24,25
 248 1246 248 1246 373 1360.5 c 128,-1,26
 498 1475 498 1475 697 1475 c 0,27,28
 911 1475 911 1475 1026.5 1362.5 c 128,-1,29
 1142 1250 1142 1250 1142 1067 c 1,30,-1
 878 1067 l 1,31,32
 878 1174 878 1174 822.5 1216.5 c 128,-1,33
 767 1259 767 1259 693 1259 c 256,34,35
 619 1259 619 1259 570.5 1203 c 128,-1,36
 522 1147 522 1147 522 1039 c 1,37,-1
 528 884 l 1,38,-1
 830 884 l 1,39,-1
 830 736 l 1,40,-1
 534 736 l 1,41,-1
 539 617 l 1,42,-1
 830 617 l 1,0,-1
EndSplineSet
Substitution2: "'c2sc' Capitals to Small Capitals lookup 0 subtable" lira.smcp
Position2: "'cpsp' Capital Spacing lookup 0 subtable" dx=36 dy=0 dh=72 dv=0
EndChar

StartChar: lira.smcp
Encoding: 65749 -1 481
Width: 1150
GlyphClass: 2
Flags: W
LayerCount: 2
Fore
SplineSet
481 735 m 2,0,-1
 482 708 l 1,1,-1
 860 708 l 1,2,-1
 860 554 l 1,3,-1
 489 554 l 1,4,-1
 492 496 l 2,5,6
 493 484 493 484 493 472 c 1,7,-1
 860 472 l 1,8,-1
 860 319 l 1,9,-1
 466 319 l 1,10,11
 442 257 442 257 399 208 c 1,12,-1
 1069 208 l 1,13,-1
 1069 0 l 1,14,-1
 130 0 l 1,15,-1
 130 208 l 1,16,-1
 140 208 l 1,17,18
 169 216 169 216 186 246.5 c 128,-1,19
 203 277 203 277 212 319 c 1,20,-1
 62 319 l 1,21,-1
 62 472 l 1,22,-1
 225 472 l 1,23,24
 225 479 225 479 225 485 c 2,25,-1
 223 554 l 1,26,-1
 62 554 l 1,27,-1
 62 708 l 1,28,-1
 218 708 l 1,29,-1
 217 735 l 2,30,31
 210 947 210 947 322 1064 c 128,-1,32
 434 1181 434 1181 626 1181 c 0,33,34
 838 1181 838 1181 942 1073.5 c 128,-1,35
 1046 966 1046 966 1046 790 c 1,36,-1
 781 790 l 1,37,38
 781 891 781 891 738 932 c 128,-1,39
 695 973 695 973 628 973 c 0,40,41
 555 973 555 973 515.5 912 c 128,-1,42
 476 851 476 851 481 735 c 2,0,-1
EndSplineSet
EndChar

StartChar: logicalnot
Encoding: 172 172 482
Width: 1129
VWidth: 1798
GlyphClass: 2
Flags: W
LayerCount: 2
Fore
SplineSet
960 553 m 1,0,-1
 960 125 l 1,1,-1
 767 125 l 1,2,-1
 767 386 l 1,3,-1
 126 386 l 1,4,-1
 126 553 l 1,5,-1
 960 553 l 1,0,-1
EndSplineSet
EndChar

StartChar: longs
Encoding: 383 383 483
Width: 524
VWidth: 1798
GlyphClass: 2
Flags: W
AnchorPoint: "Anchor-1" 248 -240 basechar 0
AnchorPoint: "Anchor-0" 428 1504 basechar 0
LayerCount: 2
Fore
SplineSet
391 -250 m 1,0,-1
 127 -250 l 1,1,-1
 127 932 l 2,2,3
 127 1114 127 1114 228.5 1210.5 c 128,-1,4
 330 1307 330 1307 511 1307 c 0,5,6
 551 1307 551 1307 589.5 1301 c 128,-1,7
 628 1295 628 1295 668 1286 c 1,8,-1
 644 1088 l 1,9,10
 623 1093 623 1093 601 1096 c 128,-1,11
 579 1099 579 1099 547 1099 c 0,12,13
 472 1099 472 1099 431.5 1055.5 c 128,-1,14
 391 1012 391 1012 391 932 c 2,15,-1
 391 -250 l 1,0,-1
EndSplineSet
EndChar

StartChar: longst
Encoding: 65750 -1 484
Width: 1310
GlyphClass: 3
Flags: W
LayerCount: 2
Fore
SplineSet
1248 1082 m 1,0,-1
 1248 892 l 1,1,-1
 1059 892 l 1,2,-1
 1059 312 l 2,3,4
 1059 239 1059 239 1088.5 216.5 c 128,-1,5
 1118 194 1118 194 1173 194 c 0,6,7
 1199 194 1199 194 1221 197 c 128,-1,8
 1243 200 1243 200 1258 203 c 1,9,-1
 1259 5 l 1,10,11
 1226 -6 1226 -6 1184.5 -13 c 128,-1,12
 1143 -20 1143 -20 1092 -20 c 0,13,14
 958 -20 958 -20 876 51 c 128,-1,15
 794 122 794 122 794 291 c 2,16,-1
 794 892 l 1,17,-1
 628 892 l 1,18,-1
 628 1082 l 1,19,-1
 794 1082 l 1,20,-1
 794 1318 l 1,21,22
 772 1330 772 1330 722.5 1339.5 c 128,-1,23
 673 1349 673 1349 620 1349 c 0,24,25
 544 1349 544 1349 504 1305.5 c 128,-1,26
 464 1262 464 1262 464 1182 c 2,27,-1
 464 0 l 1,28,-1
 199 0 l 1,29,-1
 199 892 l 1,30,-1
 36 892 l 1,31,-1
 36 1082 l 1,32,-1
 199 1082 l 1,33,-1
 199 1182 l 2,34,35
 199 1364 199 1364 301 1460.5 c 128,-1,36
 403 1557 403 1557 584 1557 c 0,37,38
 714 1557 714 1557 838.5 1524.5 c 128,-1,39
 963 1492 963 1492 1059 1453 c 1,40,-1
 1059 1082 l 1,41,-1
 1248 1082 l 1,0,-1
EndSplineSet
Ligature2: "'dlig' Discretionary Ligatures lookup 12 subtable" longs t
EndChar

StartChar: lozenge
Encoding: 9674 9674 485
Width: 1040
GlyphClass: 2
Flags: W
LayerCount: 2
Fore
SplineSet
35 727 m 1,0,-1
 410 1456 l 1,1,-1
 633 1456 l 1,2,-1
 1009 727 l 1,3,-1
 634 0 l 1,4,-1
 411 0 l 1,5,-1
 35 727 l 1,0,-1
299 727 m 1,6,-1
 524 273 l 1,7,-1
 744 727 l 1,8,-1
 521 1183 l 1,9,-1
 299 727 l 1,6,-1
EndSplineSet
EndChar

StartChar: lslash
Encoding: 322 322 486
Width: 611
VWidth: 1798
GlyphClass: 2
Flags: W
AnchorPoint: "Anchor-1" 280 -240 basechar 0
AnchorPoint: "Anchor-0" 280 1447 basechar 0
LayerCount: 2
Fore
SplineSet
578 699 m 1,0,-1
 578 547 l 1,1,-1
 432 497 l 1,2,-1
 432 -250 l 1,3,-1
 167 -250 l 1,4,-1
 167 406 l 1,5,-1
 31 360 l 1,6,-1
 31 512 l 1,7,-1
 167 558 l 1,8,-1
 167 1286 l 1,9,-1
 432 1286 l 1,10,-1
 432 649 l 1,11,-1
 578 699 l 1,0,-1
EndSplineSet
Substitution2: "'smcp' Lowercase to Small Capitals lookup 1 subtable" Lslash.smcp
EndChar

StartChar: m
Encoding: 109 109 487
Width: 1779
VWidth: 1798
GlyphClass: 2
Flags: W
AnchorPoint: "Anchor-1" 897 -240 basechar 0
AnchorPoint: "Anchor-0" 911 1040 basechar 0
LayerCount: 2
Fore
SplineSet
578 642 m 0,0,1
 506 642 506 642 457.5 609.5 c 128,-1,2
 409 577 409 577 382 523 c 1,3,-1
 382 -250 l 1,4,-1
 118 -250 l 1,5,-1
 118 832 l 1,6,-1
 367 832 l 1,7,-1
 375 709 l 1,8,9
 429 776 429 776 507.5 814 c 128,-1,10
 586 852 586 852 689 852 c 0,11,12
 789 852 789 852 865 811.5 c 128,-1,13
 941 771 941 771 982 683 c 1,14,15
 1034 761 1034 761 1117 806.5 c 128,-1,16
 1200 852 1200 852 1312 852 c 0,17,18
 1473 852 1473 852 1567.5 759 c 128,-1,19
 1662 666 1662 666 1662 445 c 2,20,-1
 1662 -250 l 1,21,-1
 1396 -250 l 1,22,-1
 1396 446 l 2,23,24
 1396 564 1396 564 1348.5 603 c 128,-1,25
 1301 642 1301 642 1219 642 c 0,26,27
 1143 642 1143 642 1093 602.5 c 128,-1,28
 1043 563 1043 563 1020 500 c 1,29,30
 1021 486 1021 486 1021 472 c 2,31,-1
 1021 -250 l 1,32,-1
 757 -250 l 1,33,-1
 757 445 l 2,34,35
 757 559 757 559 709 600.5 c 128,-1,36
 661 642 661 642 578 642 c 0,0,1
EndSplineSet
Substitution2: "'unic' Unicase lookup 2 subtable" M.unic
Substitution2: "'smcp' Lowercase to Small Capitals lookup 1 subtable" M.smcp
EndChar

StartChar: macron
Encoding: 175 175 488
Width: 1005
VWidth: 1798
GlyphClass: 2
Flags: W
LayerCount: 2
Fore
SplineSet
846 1202 m 1,0,-1
 846 1044 l 1,1,-1
 163 1044 l 1,2,-1
 163 1202 l 1,3,-1
 846 1202 l 1,0,-1
EndSplineSet
EndChar

StartChar: mu
Encoding: 181 181 491
Width: 1241
VWidth: 1798
GlyphClass: 2
Flags: W
LayerCount: 2
Fore
SplineSet
144 832 m 1,0,-1
 407 832 l 1,1,-1
 407 211 l 2,2,3
 407 99 407 99 431.5 40.5 c 128,-1,4
 456 -18 456 -18 499.5 -39 c 128,-1,5
 543 -60 543 -60 599 -60 c 0,6,7
 685 -60 685 -60 737.5 -28 c 128,-1,8
 790 4 790 4 817 59 c 1,9,-1
 817 832 l 1,10,-1
 1082 832 l 1,11,-1
 1082 -250 l 1,12,-1
 836 -250 l 1,13,-1
 830 -173 l 1,14,15
 787 -220 787 -220 728 -245.5 c 128,-1,16
 669 -271 669 -271 595 -271 c 0,17,18
 482 -271 482 -271 407 -219 c 1,19,-1
 407 -666 l 1,20,-1
 144 -666 l 1,21,-1
 144 832 l 1,0,-1
EndSplineSet
EndChar

StartChar: multiply
Encoding: 215 215 492
Width: 1059
VWidth: 1798
GlyphClass: 2
Flags: W
LayerCount: 2
Fore
SplineSet
386 265 m 1,0,-1
 121 536 l 1,1,-1
 263 683 l 1,2,-1
 530 412 l 1,3,-1
 797 683 l 1,4,-1
 938 536 l 1,5,-1
 673 265 l 1,6,-1
 940 -7 l 1,7,-1
 798 -154 l 1,8,-1
 530 119 l 1,9,-1
 262 -154 l 1,10,-1
 119 -7 l 1,11,-1
 386 265 l 1,0,-1
EndSplineSet
EndChar

StartChar: n
Encoding: 110 110 493
Width: 1144
VWidth: 1798
GlyphClass: 2
Flags: W
AnchorPoint: "Anchor-1" 563 -240 basechar 0
AnchorPoint: "Anchor-0" 573 1040 basechar 0
LayerCount: 2
Fore
SplineSet
581 642 m 0,0,1
 510 642 510 642 459 608 c 128,-1,2
 408 574 408 574 378 517 c 1,3,-1
 378 -250 l 1,4,-1
 114 -250 l 1,5,-1
 114 832 l 1,6,-1
 362 832 l 1,7,-1
 371 702 l 1,8,9
 427 773 427 773 507.5 812.5 c 128,-1,10
 588 852 588 852 686 852 c 0,11,12
 841 852 841 852 935.5 760.5 c 128,-1,13
 1030 669 1030 669 1030 444 c 2,14,-1
 1030 -250 l 1,15,-1
 764 -250 l 1,16,-1
 764 446 l 2,17,18
 764 557 764 557 716.5 599.5 c 128,-1,19
 669 642 669 642 581 642 c 0,0,1
EndSplineSet
Substitution2: "'unic' Unicase lookup 2 subtable" N.unic
Substitution2: "'smcp' Lowercase to Small Capitals lookup 1 subtable" N.smcp
EndChar

StartChar: naira
Encoding: 8358 8358 495
Width: 1655
GlyphClass: 2
Flags: W
LayerCount: 2
Fore
SplineSet
1619 658 m 1,0,-1
 1619 502 l 1,1,-1
 1410 502 l 1,2,-1
 1410 0 l 1,3,-1
 1136 0 l 1,4,-1
 828 502 l 1,5,-1
 516 502 l 1,6,-1
 516 0 l 1,7,-1
 241 0 l 1,8,-1
 241 502 l 1,9,-1
 36 502 l 1,10,-1
 36 658 l 1,11,-1
 241 658 l 1,12,-1
 241 817 l 1,13,-1
 36 817 l 1,14,-1
 36 973 l 1,15,-1
 241 973 l 1,16,-1
 241 1456 l 1,17,-1
 516 1456 l 1,18,-1
 813 973 l 1,19,-1
 1137 973 l 1,20,-1
 1137 1456 l 1,21,-1
 1410 1456 l 1,22,-1
 1410 973 l 1,23,-1
 1619 973 l 1,24,-1
 1619 817 l 1,25,-1
 1410 817 l 1,26,-1
 1410 658 l 1,27,-1
 1619 658 l 1,0,-1
516 1010 m 1,28,-1
 516 973 l 1,29,-1
 539 973 l 1,30,-1
 516 1010 l 1,28,-1
516 658 m 1,31,-1
 732 658 l 1,32,-1
 634 817 l 1,33,-1
 516 817 l 1,34,-1
 516 658 l 1,31,-1
1006 658 m 1,35,-1
 1137 658 l 1,36,-1
 1137 817 l 1,37,-1
 909 817 l 1,38,-1
 1006 658 l 1,35,-1
1137 445 m 1,39,-1
 1137 502 l 1,40,-1
 1102 502 l 1,41,-1
 1137 445 l 1,39,-1
EndSplineSet
EndChar

StartChar: nine
Encoding: 57 57 500
Width: 1170
VWidth: 1798
GlyphClass: 2
Flags: W
LayerCount: 2
Fore
SplineSet
304 -45 m 1,0,-1
 323 -45 l 2,1,2
 560 -45 560 -45 668 62.5 c 128,-1,3
 776 170 776 170 791 350 c 1,4,5
 737 294 737 294 665.5 260 c 128,-1,6
 594 226 594 226 512 226 c 0,7,8
 374 226 374 226 280 292 c 128,-1,9
 186 358 186 358 138 469.5 c 128,-1,10
 90 581 90 581 90 715 c 0,11,12
 90 855 90 855 148 971.5 c 128,-1,13
 206 1088 206 1088 314 1157.5 c 128,-1,14
 422 1227 422 1227 570 1227 c 0,15,16
 723 1227 723 1227 832 1149.5 c 128,-1,17
 941 1072 941 1072 999.5 938 c 128,-1,18
 1058 804 1058 804 1058 634 c 2,19,-1
 1058 541 l 2,20,21
 1058 372 1058 372 1015.5 226.5 c 128,-1,22
 973 81 973 81 884.5 -28.5 c 128,-1,23
 796 -138 796 -138 657.5 -199.5 c 128,-1,24
 519 -261 519 -261 327 -261 c 2,25,-1
 304 -261 l 1,26,-1
 304 -45 l 1,0,-1
353 719 m 0,27,28
 353 641 353 641 377.5 574.5 c 128,-1,29
 402 508 402 508 451 467 c 128,-1,30
 500 426 500 426 575 426 c 0,31,32
 652 426 652 426 708.5 468 c 128,-1,33
 765 510 765 510 793 570 c 1,34,-1
 793 678 l 2,35,36
 793 846 793 846 728.5 932 c 128,-1,37
 664 1018 664 1018 569 1018 c 0,38,39
 500 1018 500 1018 452 976.5 c 128,-1,40
 404 935 404 935 378.5 867 c 128,-1,41
 353 799 353 799 353 719 c 0,27,28
EndSplineSet
Substitution2: "'ss01' Style Set 1 lookup 35 subtable" uni06F9
Substitution2: "'numr' Numerators lookup 21 subtable" nine.frac
Substitution2: "'dnom' Denominators lookup 20 subtable" nine.sup
Substitution2: "'frac' Diagonal Fractions lookup 19 subtable" nine.frac
Substitution2: "Single Substitution lookup 18 subtable" nine.sup
Substitution2: "'onum' Oldstyle Figures lookup 14 subtable" nine.tnum
Substitution2: "'c2sc' Capitals to Small Capitals lookup 0 subtable" nine.smcp
Position2: "'cpsp' Capital Spacing lookup 0 subtable" dx=36 dy=0 dh=72 dv=0
EndChar

StartChar: nine.onum
Encoding: 65752 -1 502
Width: 1194
GlyphClass: 1
Flags: W
LayerCount: 2
Fore
SplineSet
494 -120 m 0,0,1
 633 -120 633 -120 722 -27.5 c 128,-1,2
 811 65 811 65 836 257 c 1,3,4
 717 164 717 164 545 164 c 0,5,6
 407 164 407 164 308 227 c 128,-1,7
 209 290 209 290 155.5 403 c 128,-1,8
 102 516 102 516 102 666 c 0,9,10
 102 820 102 820 164.5 936.5 c 128,-1,11
 227 1053 227 1053 336.5 1118.5 c 128,-1,12
 446 1184 446 1184 585 1184 c 0,13,14
 737 1184 737 1184 855.5 1119.5 c 128,-1,15
 974 1055 974 1055 1042 928.5 c 128,-1,16
 1110 802 1110 802 1110 614 c 2,17,-1
 1110 422 l 2,18,19
 1110 172 1110 172 1032.5 5 c 128,-1,20
 955 -162 955 -162 822.5 -245 c 128,-1,21
 690 -328 690 -328 524 -328 c 0,22,23
 371 -328 371 -328 226 -267 c 1,24,-1
 276 -73 l 1,25,26
 325 -91 325 -91 377.5 -105.5 c 128,-1,27
 430 -120 430 -120 494 -120 c 0,0,1
367 666 m 0,28,29
 367 540 367 540 427 451.5 c 128,-1,30
 487 363 487 363 599 363 c 0,31,32
 688 363 688 363 749.5 393 c 128,-1,33
 811 423 811 423 845 467 c 1,34,-1
 845 645 l 2,35,36
 845 812 845 812 777.5 894.5 c 128,-1,37
 710 977 710 977 599 977 c 0,38,39
 495 977 495 977 431 890 c 128,-1,40
 367 803 367 803 367 666 c 0,28,29
EndSplineSet
EndChar

StartChar: nine.smcp
Encoding: 65753 -1 503
Width: 1059
GlyphClass: 2
Flags: W
LayerCount: 2
Fore
SplineSet
284 193 m 1,0,-1
 303 193 l 2,1,2
 482 193 482 193 580 254 c 128,-1,3
 678 315 678 315 696 461 c 1,4,5
 650 422 650 422 589.5 398.5 c 128,-1,6
 529 375 529 375 460 375 c 0,7,8
 277 375 277 375 176.5 480 c 128,-1,9
 76 585 76 585 76 765 c 0,10,11
 76 879 76 879 131 973.5 c 128,-1,12
 186 1068 186 1068 286 1125 c 128,-1,13
 386 1182 386 1182 519 1182 c 0,14,15
 716 1182 716 1182 840.5 1060 c 128,-1,16
 965 938 965 938 965 704 c 2,17,-1
 965 629 l 2,18,19
 965 300 965 300 791.5 143 c 128,-1,20
 618 -14 618 -14 306 -14 c 2,21,-1
 284 -14 l 1,22,-1
 284 193 l 1,0,-1
340 763 m 0,23,24
 340 678 340 678 386.5 623.5 c 128,-1,25
 433 569 433 569 526 569 c 0,26,27
 590 569 590 569 634.5 595 c 128,-1,28
 679 621 679 621 700 655 c 1,29,-1
 700 755 l 2,30,31
 700 867 700 867 649.5 920 c 128,-1,32
 599 973 599 973 519 973 c 0,33,34
 434 973 434 973 387 911 c 128,-1,35
 340 849 340 849 340 763 c 0,23,24
EndSplineSet
EndChar

StartChar: nine.sup
Encoding: 65754 -1 504
Width: 760
GlyphClass: 2
Flags: W
LayerCount: 2
Fore
SplineSet
214 141 m 1,0,-1
 228 141 l 2,1,2
 340 141 340 141 405.5 174.5 c 128,-1,3
 471 208 471 208 485 307 c 1,4,5
 454 282 454 282 414.5 267 c 128,-1,6
 375 252 375 252 331 252 c 0,7,8
 209 252 209 252 139 320 c 128,-1,9
 69 388 69 388 69 515 c 0,10,11
 69 593 69 593 108 658 c 128,-1,12
 147 723 147 723 215.5 762 c 128,-1,13
 284 801 284 801 374 801 c 0,14,15
 505 801 505 801 592.5 722.5 c 128,-1,16
 680 644 680 644 680 477 c 2,17,-1
 680 423 l 2,18,19
 680 264 680 264 623 169 c 128,-1,20
 566 74 566 74 465 31.5 c 128,-1,21
 364 -11 364 -11 230 -11 c 2,22,-1
 214 -11 l 1,23,-1
 214 141 l 1,0,-1
262 513 m 0,24,25
 262 459 262 459 292.5 427 c 128,-1,26
 323 395 323 395 382 395 c 0,27,28
 422 395 422 395 448.5 409.5 c 128,-1,29
 475 424 475 424 488 442 c 1,30,-1
 488 515 l 2,31,32
 488 585 488 585 457.5 616 c 128,-1,33
 427 647 427 647 374 647 c 0,34,35
 322 647 322 647 292 607.5 c 128,-1,36
 262 568 262 568 262 513 c 0,24,25
EndSplineSet
EndChar

StartChar: notequal
Encoding: 8800 8800 506
Width: 1164
GlyphClass: 2
Flags: W
LayerCount: 2
Fore
SplineSet
1022 551 m 1,0,-1
 1022 338 l 1,1,-1
 474 338 l 1,2,-1
 351 114 l 1,3,-1
 238 175 l 1,4,-1
 327 338 l 1,5,-1
 139 338 l 1,6,-1
 139 551 l 1,7,-1
 444 551 l 1,8,-1
 561 766 l 1,9,-1
 139 766 l 1,10,-1
 139 979 l 1,11,-1
 678 979 l 1,12,-1
 802 1206 l 1,13,-1
 915 1145 l 1,14,-1
 824 979 l 1,15,-1
 1022 979 l 1,16,-1
 1022 766 l 1,17,-1
 708 766 l 1,18,-1
 590 551 l 1,19,-1
 1022 551 l 1,0,-1
EndSplineSet
EndChar

StartChar: nsuperior
Encoding: 8319 8319 507
Width: 858
GlyphClass: 2
Flags: W
LayerCount: 2
Fore
SplineSet
436 1296 m 0,0,1
 382 1296 382 1296 347.5 1271.5 c 128,-1,2
 313 1247 313 1247 295 1206 c 1,3,-1
 295 653 l 1,4,-1
 94 653 l 1,5,-1
 94 1454 l 1,6,-1
 252 1454 l 1,7,-1
 283 1330 l 1,8,9
 319 1394 319 1394 375.5 1430 c 128,-1,10
 432 1466 432 1466 507 1466 c 0,11,12
 629 1466 629 1466 699.5 1393.5 c 128,-1,13
 770 1321 770 1321 770 1159 c 2,14,-1
 770 653 l 1,15,-1
 570 653 l 1,16,-1
 570 1104 l 2,17,18
 570 1211 570 1211 534.5 1253.5 c 128,-1,19
 499 1296 499 1296 436 1296 c 0,0,1
EndSplineSet
EndChar

StartChar: numbersign
Encoding: 35 35 509
Width: 1224
VWidth: 1798
GlyphClass: 2
Flags: W
LayerCount: 2
Fore
SplineSet
230 -250 m 1,0,-1
 303 160 l 1,1,-1
 73 160 l 1,2,-1
 73 322 l 1,3,-1
 332 322 l 1,4,-1
 387 628 l 1,5,-1
 148 628 l 1,6,-1
 148 790 l 1,7,-1
 416 790 l 1,8,-1
 490 1206 l 1,9,-1
 663 1206 l 1,10,-1
 588 790 l 1,11,-1
 798 790 l 1,12,-1
 873 1206 l 1,13,-1
 1046 1206 l 1,14,-1
 971 790 l 1,15,-1
 1189 790 l 1,16,-1
 1189 628 l 1,17,-1
 942 628 l 1,18,-1
 888 322 l 1,19,-1
 1113 322 l 1,20,-1
 1113 160 l 1,21,-1
 858 160 l 1,22,-1
 785 -250 l 1,23,-1
 612 -250 l 1,24,-1
 685 160 l 1,25,-1
 475 160 l 1,26,-1
 402 -250 l 1,27,-1
 230 -250 l 1,0,-1
505 322 m 1,28,-1
 715 322 l 1,29,-1
 769 628 l 1,30,-1
 559 628 l 1,31,-1
 505 322 l 1,28,-1
EndSplineSet
EndChar

StartChar: o
Encoding: 111 111 510
Width: 1159
VWidth: 1798
GlyphClass: 2
Flags: W
AnchorPoint: "Anchor-1" 584 -251 basechar 0
AnchorPoint: "Anchor-0" 575 1040 basechar 0
LayerCount: 2
Fore
SplineSet
72 280 m 2,0,-1
 72 301 l 2,1,2
 72 459 72 459 131.5 583.5 c 128,-1,3
 191 708 191 708 304.5 780 c 128,-1,4
 418 852 418 852 578 852 c 0,5,6
 740 852 740 852 854 780 c 128,-1,7
 968 708 968 708 1027.5 583.5 c 128,-1,8
 1087 459 1087 459 1087 301 c 2,9,-1
 1087 280 l 2,10,11
 1087 123 1087 123 1027.5 -1.5 c 128,-1,12
 968 -126 968 -126 854.5 -198 c 128,-1,13
 741 -270 741 -270 580 -270 c 256,14,15
 419 -270 419 -270 305 -198 c 128,-1,16
 191 -126 191 -126 131.5 -1.5 c 128,-1,17
 72 123 72 123 72 280 c 2,0,-1
336 301 m 2,18,-1
 336 280 l 2,19,20
 336 186 336 186 361 108.5 c 128,-1,21
 386 31 386 31 439.5 -15.5 c 128,-1,22
 493 -62 493 -62 580 -62 c 0,23,24
 666 -62 666 -62 719.5 -15.5 c 128,-1,25
 773 31 773 31 798 108.5 c 128,-1,26
 823 186 823 186 823 280 c 2,27,-1
 823 301 l 2,28,29
 823 393 823 393 798 471 c 128,-1,30
 773 549 773 549 719 596.5 c 128,-1,31
 665 644 665 644 578 644 c 0,32,33
 493 644 493 644 439.5 596.5 c 128,-1,34
 386 549 386 549 361 471 c 128,-1,35
 336 393 336 393 336 301 c 2,18,-1
EndSplineSet
Substitution2: "'unic' Unicase lookup 2 subtable" O
Substitution2: "'smcp' Lowercase to Small Capitals lookup 1 subtable" O.smcp
EndChar

StartChar: oe
Encoding: 339 339 515
Width: 1852
VWidth: 1798
GlyphClass: 2
Flags: W
AnchorPoint: "Anchor-1" 945 -251 basechar 0
AnchorPoint: "Anchor-0" 945 1040 basechar 0
LayerCount: 2
Fore
SplineSet
86 280 m 2,0,-1
 86 301 l 2,1,2
 86 459 86 459 145 583.5 c 128,-1,3
 204 708 204 708 316.5 780 c 128,-1,4
 429 852 429 852 589 852 c 0,5,6
 712 852 712 852 807 809 c 128,-1,7
 902 766 902 766 967 690 c 1,8,9
 1030 767 1030 767 1120.5 810 c 128,-1,10
 1211 853 1211 853 1322 852 c 0,11,12
 1544 852 1544 852 1661 718.5 c 128,-1,13
 1778 585 1778 585 1778 366 c 2,14,-1
 1778 215 l 1,15,-1
 1107 215 l 1,16,17
 1118 99 1118 99 1184 18.5 c 128,-1,18
 1250 -62 1250 -62 1372 -62 c 0,19,20
 1480 -62 1480 -62 1548 -37 c 128,-1,21
 1616 -12 1616 -12 1675 25 c 1,22,-1
 1752 -143 l 1,23,24
 1695 -191 1695 -191 1592.5 -230.5 c 128,-1,25
 1490 -270 1490 -270 1348 -270 c 0,26,27
 1227 -270 1227 -270 1130.5 -227 c 128,-1,28
 1034 -184 1034 -184 968 -108 c 1,29,30
 904 -184 904 -184 809 -227 c 128,-1,31
 714 -270 714 -270 591 -270 c 0,32,33
 430 -270 430 -270 317 -198 c 128,-1,34
 204 -126 204 -126 145 -1.5 c 128,-1,35
 86 123 86 123 86 280 c 2,0,-1
1322 644 m 0,36,37
 1231 644 1231 644 1179 573.5 c 128,-1,38
 1127 503 1127 503 1111 397 c 1,39,-1
 1517 397 l 1,40,-1
 1517 423 l 2,41,42
 1517 518 1517 518 1470.5 581 c 128,-1,43
 1424 644 1424 644 1322 644 c 0,36,37
351 301 m 2,44,-1
 351 280 l 2,45,46
 351 186 351 186 375 108.5 c 128,-1,47
 399 31 399 31 451.5 -15.5 c 128,-1,48
 504 -62 504 -62 591 -62 c 0,49,50
 677 -62 677 -62 729.5 -15.5 c 128,-1,51
 782 31 782 31 806 108.5 c 128,-1,52
 830 186 830 186 830 280 c 2,53,-1
 830 301 l 2,54,55
 830 393 830 393 806 471 c 128,-1,56
 782 549 782 549 729 596.5 c 128,-1,57
 676 644 676 644 589 644 c 0,58,59
 504 644 504 644 451.5 596.5 c 128,-1,60
 399 549 399 549 375 471 c 128,-1,61
 351 393 351 393 351 301 c 2,44,-1
EndSplineSet
Substitution2: "'unic' Unicase lookup 2 subtable" OE
Substitution2: "'smcp' Lowercase to Small Capitals lookup 1 subtable" OE.smcp
EndChar

StartChar: ogonek
Encoding: 731 731 516
Width: 602
VWidth: 1798
GlyphClass: 2
Flags: W
LayerCount: 2
Fore
SplineSet
266 -191 m 1,0,-1
 398 -250 l 1,1,2
 325 -294 325 -294 282.5 -338.5 c 128,-1,3
 240 -383 240 -383 240 -440 c 0,4,5
 240 -469 240 -469 255.5 -488 c 128,-1,6
 271 -507 271 -507 309 -507 c 0,7,8
 338 -507 338 -507 358.5 -499.5 c 128,-1,9
 379 -492 379 -492 393 -485 c 1,10,-1
 420 -631 l 1,11,12
 395 -646 395 -646 355.5 -660.5 c 128,-1,13
 316 -675 316 -675 256 -675 c 0,14,15
 165 -675 165 -675 101 -623.5 c 128,-1,16
 37 -572 37 -572 37 -472 c 0,17,18
 37 -395 37 -395 87.5 -322.5 c 128,-1,19
 138 -250 138 -250 266 -191 c 1,0,-1
EndSplineSet
EndChar

StartChar: ohorn
Encoding: 417 417 518
Width: 1186
VWidth: 1798
GlyphClass: 2
Flags: W
AnchorPoint: "Anchor-1" 502 -250 basechar 0
AnchorPoint: "Anchor-0" 582 1040 basechar 0
LayerCount: 2
Fore
SplineSet
70 280 m 2,0,-1
 70 301 l 2,1,2
 70 459 70 459 130 583.5 c 128,-1,3
 190 708 190 708 303.5 780 c 128,-1,4
 417 852 417 852 577 852 c 0,5,6
 696 852 696 852 789.5 812 c 128,-1,7
 883 772 883 772 947 701 c 1,8,9
 1003 726 1003 726 1021 787.5 c 128,-1,10
 1039 849 1039 849 1039 938 c 1,11,-1
 1206 938 l 1,12,13
 1206 807 1206 807 1163 718 c 128,-1,14
 1120 629 1120 629 1023 590 c 1,15,16
 1086 464 1086 464 1086 301 c 2,17,-1
 1086 280 l 2,18,19
 1086 123 1086 123 1026.5 -1.5 c 128,-1,20
 967 -126 967 -126 853.5 -198 c 128,-1,21
 740 -270 740 -270 579 -270 c 256,22,23
 418 -270 418 -270 304 -198 c 128,-1,24
 190 -126 190 -126 130 -1.5 c 128,-1,25
 70 123 70 123 70 280 c 2,0,-1
335 301 m 2,26,-1
 335 280 l 2,27,28
 335 186 335 186 360 108.5 c 128,-1,29
 385 31 385 31 438.5 -15.5 c 128,-1,30
 492 -62 492 -62 579 -62 c 0,31,32
 665 -62 665 -62 718 -15.5 c 128,-1,33
 771 31 771 31 796 108.5 c 128,-1,34
 821 186 821 186 821 280 c 2,35,-1
 821 301 l 2,36,37
 821 393 821 393 796.5 471 c 128,-1,38
 772 549 772 549 718 596.5 c 128,-1,39
 664 644 664 644 577 644 c 0,40,41
 492 644 492 644 438.5 596.5 c 128,-1,42
 385 549 385 549 360 471 c 128,-1,43
 335 393 335 393 335 301 c 2,26,-1
EndSplineSet
EndChar

StartChar: one
Encoding: 49 49 521
Width: 1170
VWidth: 1798
GlyphClass: 2
Flags: W
LayerCount: 2
Fore
SplineSet
785 1210 m 1,0,-1
 785 -250 l 1,1,-1
 520 -250 l 1,2,-1
 520 901 l 1,3,-1
 169 785 l 1,4,-1
 169 999 l 1,5,-1
 755 1210 l 1,6,-1
 785 1210 l 1,0,-1
EndSplineSet
Substitution2: "'ss01' Style Set 1 lookup 35 subtable" uni06F1
Substitution2: "'numr' Numerators lookup 21 subtable" onesuperior
Substitution2: "'dnom' Denominators lookup 20 subtable" one.sup
Substitution2: "'frac' Diagonal Fractions lookup 19 subtable" onesuperior
Substitution2: "Single Substitution lookup 18 subtable" one.sup
Substitution2: "'onum' Oldstyle Figures lookup 14 subtable" one.tnum
Substitution2: "'c2sc' Capitals to Small Capitals lookup 0 subtable" one.smcp
Position2: "'cpsp' Capital Spacing lookup 0 subtable" dx=36 dy=0 dh=72 dv=0
EndChar

StartChar: one.onum
Encoding: 65756 -1 522
Width: 1100
GlyphClass: 1
Flags: W
LayerCount: 2
Fore
SplineSet
760 1164 m 1,0,-1
 760 0 l 1,1,-1
 496 0 l 1,2,-1
 496 856 l 1,3,-1
 146 739 l 1,4,-1
 146 953 l 1,5,-1
 729 1164 l 1,6,-1
 760 1164 l 1,0,-1
EndSplineSet
EndChar

StartChar: one.smcp
Encoding: 65757 -1 523
Width: 1059
GlyphClass: 2
Flags: W
LayerCount: 2
Fore
SplineSet
725 1164 m 1,0,-1
 725 0 l 1,1,-1
 461 0 l 1,2,-1
 461 861 l 1,3,-1
 151 784 l 1,4,-1
 151 988 l 1,5,-1
 698 1164 l 1,6,-1
 725 1164 l 1,0,-1
EndSplineSet
EndChar

StartChar: one.sup
Encoding: 65758 -1 524
Width: 760
GlyphClass: 2
Flags: W
LayerCount: 2
Fore
SplineSet
520 787 m 1,0,-1
 520 0 l 1,1,-1
 329 0 l 1,2,-1
 329 565 l 1,3,-1
 133 519 l 1,4,-1
 133 668 l 1,5,-1
 502 787 l 1,6,-1
 520 787 l 1,0,-1
EndSplineSet
EndChar

StartChar: onesuperior
Encoding: 185 185 529
Width: 760
VWidth: 1798
GlyphClass: 2
Flags: W
LayerCount: 2
Fore
SplineSet
520 1204 m 1,0,-1
 520 417 l 1,1,-1
 329 417 l 1,2,-1
 329 982 l 1,3,-1
 133 936 l 1,4,-1
 133 1085 l 1,5,-1
 502 1204 l 1,6,-1
 520 1204 l 1,0,-1
EndSplineSet
EndChar

StartChar: ordfeminine
Encoding: 170 170 530
Width: 910
VWidth: 1798
GlyphClass: 2
Flags: W
LayerCount: 2
Fore
SplineSet
610 455 m 1,0,1
 599 488 599 488 593 525 c 1,2,3
 561 491 561 491 510.5 466 c 128,-1,4
 460 441 460 441 389 441 c 0,5,6
 269 441 269 441 204.5 503.5 c 128,-1,7
 140 566 140 566 140 669 c 0,8,9
 140 779 140 779 224.5 839.5 c 128,-1,10
 309 900 309 900 480 900 c 2,11,-1
 586 900 l 1,12,-1
 586 951 l 2,13,14
 586 1082 586 1082 466 1082 c 0,15,16
 399 1082 399 1082 361 1056 c 128,-1,17
 323 1030 323 1030 323 980 c 1,18,-1
 156 993 l 1,19,20
 156 1094 156 1094 240.5 1160 c 128,-1,21
 325 1226 325 1226 466 1226 c 0,22,23
 596 1226 596 1226 675.5 1156.5 c 128,-1,24
 755 1087 755 1087 755 950 c 2,25,-1
 755 636 l 2,26,27
 755 587 755 587 761 543 c 128,-1,28
 767 499 767 499 781 455 c 1,29,-1
 610 455 l 1,0,1
430 582 m 0,30,31
 472 582 472 582 515.5 601.5 c 128,-1,32
 559 621 559 621 586 647 c 1,33,-1
 586 785 l 1,34,-1
 481 785 l 2,35,36
 393 785 393 785 351 751.5 c 128,-1,37
 309 718 309 718 309 673 c 0,38,39
 309 582 309 582 430 582 c 0,30,31
EndSplineSet
EndChar

StartChar: ordmasculine
Encoding: 186 186 531
Width: 936
VWidth: 1798
GlyphClass: 2
Flags: W
LayerCount: 2
Fore
SplineSet
120 794 m 2,0,-1
 120 872 l 2,1,2
 120 1027 120 1027 213 1126.5 c 128,-1,3
 306 1226 306 1226 464 1226 c 0,4,5
 625 1226 625 1226 717 1126.5 c 128,-1,6
 809 1027 809 1027 809 872 c 2,7,-1
 809 794 l 2,8,9
 809 639 809 639 717 539.5 c 128,-1,10
 625 440 625 440 466 440 c 0,11,12
 306 440 306 440 213 539.5 c 128,-1,13
 120 639 120 639 120 794 c 2,0,-1
290 872 m 2,14,-1
 290 794 l 2,15,16
 290 703 290 703 333.5 643 c 128,-1,17
 377 583 377 583 466 583 c 0,18,19
 554 583 554 583 597 643 c 128,-1,20
 640 703 640 703 640 794 c 2,21,-1
 640 872 l 2,22,23
 640 961 640 961 596.5 1021.5 c 128,-1,24
 553 1082 553 1082 464 1082 c 0,25,26
 376 1082 376 1082 333 1021.5 c 128,-1,27
 290 961 290 961 290 872 c 2,14,-1
EndSplineSet
EndChar

StartChar: oslash
Encoding: 248 248 532
Width: 1156
VWidth: 1798
GlyphClass: 2
Flags: W
AnchorPoint: "Anchor-0" 537 1039 basechar 0
LayerCount: 2
Fore
SplineSet
72 280 m 2,0,-1
 72 301 l 2,1,2
 72 459 72 459 131.5 583.5 c 128,-1,3
 191 708 191 708 304.5 780 c 128,-1,4
 418 852 418 852 578 852 c 0,5,6
 681 852 681 852 769 820 c 1,7,-1
 839 964 l 1,8,-1
 990 964 l 1,9,-1
 888 756 l 1,10,11
 985 683 985 683 1036 564.5 c 128,-1,12
 1087 446 1087 446 1087 301 c 2,13,-1
 1087 280 l 2,14,15
 1087 123 1087 123 1027.5 -1.5 c 128,-1,16
 968 -126 968 -126 854.5 -198 c 128,-1,17
 741 -270 741 -270 580 -270 c 0,18,19
 483 -270 483 -270 400 -242 c 1,20,-1
 327 -390 l 1,21,-1
 176 -390 l 1,22,-1
 279 -180 l 1,23,24
 178 -108 178 -108 125 12 c 128,-1,25
 72 132 72 132 72 280 c 2,0,-1
336 301 m 2,26,-1
 336 280 l 2,27,28
 336 212 336 212 348.5 151.5 c 128,-1,29
 361 91 361 91 389 45 c 1,30,-1
 673 625 l 1,31,32
 630 644 630 644 578 644 c 0,33,34
 493 644 493 644 439.5 596.5 c 128,-1,35
 386 549 386 549 361 471 c 128,-1,36
 336 393 336 393 336 301 c 2,26,-1
823 301 m 2,37,38
 823 364 823 364 811.5 422 c 128,-1,39
 800 480 800 480 775 525 c 1,40,-1
 495 -47 l 1,41,42
 533 -62 533 -62 580 -62 c 0,43,44
 666 -62 666 -62 719.5 -15.5 c 128,-1,45
 773 31 773 31 798 108.5 c 128,-1,46
 823 186 823 186 823 280 c 2,47,-1
 823 301 l 2,37,38
EndSplineSet
Substitution2: "'unic' Unicase lookup 2 subtable" Oslash
Substitution2: "'smcp' Lowercase to Small Capitals lookup 1 subtable" Oslash.smcp
EndChar

StartChar: p
Encoding: 112 112 535
Width: 1152
VWidth: 1798
GlyphClass: 2
Flags: W
AnchorPoint: "Anchor-1" 231 -657 basechar 0
AnchorPoint: "Anchor-0" 629 1030 basechar 0
LayerCount: 2
Fore
SplineSet
1078 302 m 2,0,-1
 1078 281 l 2,1,2
 1078 124 1078 124 1029.5 -1 c 128,-1,3
 981 -126 981 -126 887.5 -198 c 128,-1,4
 794 -270 794 -270 658 -270 c 0,5,6
 569 -270 569 -270 501 -239 c 128,-1,7
 433 -208 433 -208 383 -152 c 1,8,-1
 383 -666 l 1,9,-1
 118 -666 l 1,10,-1
 118 832 l 1,11,-1
 363 832 l 1,12,-1
 374 722 l 1,13,14
 424 784 424 784 494 818 c 128,-1,15
 564 852 564 852 656 852 c 0,16,17
 793 852 793 852 887 783.5 c 128,-1,18
 981 715 981 715 1029.5 591 c 128,-1,19
 1078 467 1078 467 1078 302 c 2,0,-1
813 281 m 2,20,-1
 813 302 l 2,21,22
 813 398 813 398 790 475 c 128,-1,23
 767 552 767 552 717 597 c 128,-1,24
 667 642 667 642 586 642 c 0,25,26
 509 642 509 642 459.5 610 c 128,-1,27
 410 578 410 578 383 523 c 1,28,-1
 383 59 l 1,29,30
 410 4 410 4 459.5 -29 c 128,-1,31
 509 -62 509 -62 588 -62 c 0,32,33
 669 -62 669 -62 718.5 -15 c 128,-1,34
 768 32 768 32 790.5 110 c 128,-1,35
 813 188 813 188 813 281 c 2,20,-1
EndSplineSet
Substitution2: "'unic' Unicase lookup 2 subtable" P
Substitution2: "'smcp' Lowercase to Small Capitals lookup 1 subtable" P.smcp
EndChar

StartChar: paragraph
Encoding: 182 182 536
Width: 1001
VWidth: 1798
GlyphClass: 2
Flags: W
LayerCount: 2
Fore
SplineSet
861 -250 m 1,0,-1
 652 -250 l 1,1,-1
 652 270 l 1,2,-1
 567 270 l 2,3,4
 408 270 408 270 298.5 330.5 c 128,-1,5
 189 391 189 391 132 497 c 128,-1,6
 75 603 75 603 75 738 c 0,7,8
 75 872 75 872 132 978 c 128,-1,9
 189 1084 189 1084 298.5 1145 c 128,-1,10
 408 1206 408 1206 567 1206 c 2,11,-1
 861 1206 l 1,12,-1
 861 -250 l 1,0,-1
EndSplineSet
EndChar

StartChar: parenleft
Encoding: 40 40 537
Width: 716
VWidth: 1798
GlyphClass: 2
Flags: W
LayerCount: 2
Fore
SplineSet
357 342 m 256,0,1
 357 162 357 162 392.5 -11.5 c 128,-1,2
 428 -185 428 -185 499.5 -325 c 128,-1,3
 571 -465 571 -465 678 -546 c 1,4,-1
 626 -691 l 1,5,6
 475 -618 475 -618 363.5 -462 c 128,-1,7
 252 -306 252 -306 191.5 -98.5 c 128,-1,8
 131 109 131 109 131 338 c 0,9,10
 131 510 131 510 165.5 672 c 128,-1,11
 200 834 200 834 265 973 c 128,-1,12
 330 1112 330 1112 421 1215.5 c 128,-1,13
 512 1319 512 1319 626 1374 c 1,14,-1
 678 1229 l 1,15,16
 571 1149 571 1149 499.5 1008.5 c 128,-1,17
 428 868 428 868 392.5 695 c 128,-1,18
 357 522 357 522 357 342 c 256,0,1
EndSplineSet
Position2: "Single Positioning lookup 9 subtable" dx=0 dy=0 dh=80 dv=0
Position2: "Single Positioning lookup 8 subtable" dx=0 dy=0 dh=160 dv=0
EndChar

